<?xml version="1.0" encoding="UTF-8"?>
<svg xmlns="http://www.w3.org/2000/svg" xmlns:xlink="http://www.w3.org/1999/xlink" width="111px" height="103px" viewBox="0 0 331 309" version="1.1">
<g id="surface1">
<path style=" stroke:none;fill-rule:nonzero;fill:rgb(94.901961%,94.901961%,94.901961%);fill-opacity:1;" d="M 156.050781 2.578125 L 145.921875 8.105469 L 21.136719 76.183594 L 11.007812 81.710938 C 6.089844 84.398438 2.445312 88.925781 0.863281 94.300781 C -0.714844 99.675781 -0.0976562 105.457031 2.578125 110.375 L 95.503906 280.671875 C 98.191406 285.585938 102.71875 289.234375 108.09375 290.8125 C 113.46875 292.394531 119.25 291.777344 124.171875 289.097656 L 124.199219 289.085938 L 269.1875 209.980469 L 269.214844 209.96875 C 274.128906 207.28125 277.777344 202.75 279.355469 197.378906 C 280.9375 192.003906 280.320312 186.222656 277.644531 181.300781 L 184.71875 11.003906 C 182.03125 6.089844 177.5 2.445312 172.125 0.863281 C 166.753906 -0.714844 160.96875 -0.0976562 156.050781 2.578125 Z M 156.050781 2.578125 "/>
<path style=" stroke:none;fill-rule:nonzero;fill:rgb(100%,100%,100%);fill-opacity:1;" d="M 158.964844 7.917969 L 146.964844 14.460938 L 25.917969 80.503906 L 13.917969 87.046875 C 10.417969 88.964844 7.824219 92.1875 6.695312 96.015625 C 5.570312 99.84375 6.011719 103.960938 7.917969 107.464844 L 100.84375 277.757812 C 102.757812 281.257812 105.980469 283.855469 109.808594 284.980469 C 113.636719 286.105469 117.753906 285.667969 121.257812 283.761719 L 121.285156 283.746094 L 266.277344 204.644531 L 266.300781 204.628906 C 269.800781 202.714844 272.398438 199.488281 273.523438 195.664062 C 274.648438 191.835938 274.210938 187.71875 272.304688 184.214844 L 179.378906 13.917969 C 177.464844 10.417969 174.238281 7.820312 170.410156 6.695312 C 166.585938 5.570312 162.46875 6.011719 158.964844 7.917969 Z M 158.964844 7.917969 "/>
<path style=" stroke:none;fill-rule:nonzero;fill:rgb(94.901961%,94.901961%,94.901961%);fill-opacity:1;" d="M 160.960938 60.777344 L 106.886719 90.28125 C 106.066406 90.726562 105.105469 90.828125 104.207031 90.566406 C 103.3125 90.304688 102.558594 89.695312 102.113281 88.875 C 101.664062 88.058594 101.5625 87.09375 101.824219 86.199219 C 102.089844 85.304688 102.695312 84.550781 103.515625 84.101562 L 157.59375 54.601562 C 158.410156 54.152344 159.375 54.050781 160.269531 54.3125 C 161.164062 54.574219 161.917969 55.183594 162.367188 56.003906 C 162.8125 56.824219 162.917969 57.785156 162.652344 58.679688 C 162.390625 59.574219 161.78125 60.328125 160.960938 60.777344 Z M 160.960938 60.777344 "/>
<path style=" stroke:none;fill-rule:nonzero;fill:rgb(94.901961%,94.901961%,94.901961%);fill-opacity:1;" d="M 179.390625 64.25 L 112.574219 100.703125 C 111.757812 101.148438 110.792969 101.253906 109.898438 100.992188 C 109 100.726562 108.246094 100.117188 107.800781 99.300781 C 107.355469 98.480469 107.25 97.519531 107.511719 96.621094 C 107.777344 95.726562 108.386719 94.972656 109.203125 94.527344 L 176.023438 58.074219 C 176.425781 57.851562 176.871094 57.710938 177.332031 57.664062 C 177.792969 57.613281 178.257812 57.65625 178.699219 57.785156 C 179.144531 57.914062 179.554688 58.132812 179.914062 58.421875 C 180.277344 58.710938 180.574219 59.070312 180.796875 59.476562 C 181.015625 59.882812 181.15625 60.328125 181.207031 60.785156 C 181.253906 61.246094 181.214844 61.710938 181.082031 62.152344 C 180.953125 62.597656 180.738281 63.011719 180.445312 63.371094 C 180.15625 63.730469 179.796875 64.027344 179.390625 64.25 Z M 179.390625 64.25 "/>
<path style=" stroke:none;fill-rule:nonzero;fill:rgb(94.901961%,94.901961%,94.901961%);fill-opacity:1;" d="M 84.65625 78 L 34.800781 105.199219 C 34.410156 105.414062 34.117188 105.773438 33.992188 106.203125 C 33.863281 106.632812 33.914062 107.09375 34.128906 107.484375 L 55.359375 146.390625 C 55.574219 146.785156 55.933594 147.074219 56.363281 147.199219 C 56.792969 147.328125 57.253906 147.277344 57.644531 147.0625 L 107.5 119.863281 C 107.890625 119.648438 108.183594 119.289062 108.308594 118.859375 C 108.4375 118.429688 108.386719 117.96875 108.171875 117.578125 L 86.945312 78.671875 C 86.730469 78.277344 86.367188 77.988281 85.9375 77.859375 C 85.507812 77.734375 85.046875 77.785156 84.65625 78 Z M 84.65625 78 "/>
<path style=" stroke:none;fill-rule:nonzero;fill:rgb(94.901961%,94.901961%,94.901961%);fill-opacity:1;" d="M 187.792969 110.140625 L 114.445312 150.160156 C 114.042969 150.378906 113.597656 150.519531 113.136719 150.566406 C 112.675781 150.617188 112.210938 150.574219 111.769531 150.445312 C 111.324219 150.316406 110.914062 150.097656 110.550781 149.808594 C 110.191406 149.519531 109.894531 149.160156 109.671875 148.753906 C 109.453125 148.347656 109.3125 147.902344 109.261719 147.445312 C 109.214844 146.984375 109.253906 146.519531 109.386719 146.078125 C 109.515625 145.632812 109.734375 145.222656 110.023438 144.859375 C 110.3125 144.5 110.671875 144.203125 111.074219 143.980469 L 184.421875 103.964844 C 185.242188 103.519531 186.207031 103.414062 187.101562 103.679688 C 187.996094 103.941406 188.75 104.546875 189.199219 105.367188 C 189.644531 106.1875 189.746094 107.148438 189.484375 108.046875 C 189.222656 108.941406 188.613281 109.695312 187.792969 110.140625 Z M 187.792969 110.140625 "/>
<path style=" stroke:none;fill-rule:nonzero;fill:rgb(94.901961%,94.901961%,94.901961%);fill-opacity:1;" d="M 206.222656 113.613281 L 120.136719 160.582031 C 119.316406 161.03125 118.351562 161.132812 117.457031 160.867188 C 116.5625 160.605469 115.808594 160 115.359375 159.179688 C 114.914062 158.359375 114.8125 157.398438 115.074219 156.5 C 115.335938 155.605469 115.945312 154.851562 116.765625 154.40625 L 202.851562 107.4375 C 203.671875 106.992188 204.636719 106.886719 205.53125 107.148438 C 206.425781 107.414062 207.179688 108.023438 207.625 108.839844 C 208.074219 109.660156 208.175781 110.621094 207.914062 111.519531 C 207.652344 112.414062 207.042969 113.167969 206.222656 113.613281 Z M 206.222656 113.613281 "/>
<path style=" stroke:none;fill-rule:nonzero;fill:rgb(94.901961%,94.901961%,94.901961%);fill-opacity:1;" d="M 86.511719 182.929688 C 94.757812 182.929688 101.441406 176.246094 101.441406 168.003906 C 101.441406 159.757812 94.757812 153.078125 86.511719 153.078125 C 78.269531 153.078125 71.585938 159.757812 71.585938 168.003906 C 71.585938 176.246094 78.269531 182.929688 86.511719 182.929688 Z M 86.511719 182.929688 "/>
<path style=" stroke:none;fill-rule:nonzero;fill:rgb(90.196078%,90.196078%,90.196078%);fill-opacity:1;" d="M 309.871094 72.746094 L 144.640625 72.746094 C 139.039062 72.753906 133.667969 74.980469 129.707031 78.945312 C 125.746094 82.902344 123.519531 88.273438 123.511719 93.875 L 123.511719 287.871094 C 123.519531 293.472656 125.746094 298.84375 129.707031 302.804688 C 133.667969 306.765625 139.039062 308.992188 144.640625 309 L 309.871094 309 C 315.472656 308.992188 320.84375 306.765625 324.804688 302.804688 C 328.765625 298.84375 330.992188 293.472656 331 287.871094 L 331 93.875 C 330.992188 88.273438 328.765625 82.902344 324.804688 78.945312 C 320.84375 74.980469 315.472656 72.753906 309.871094 72.746094 Z M 309.871094 72.746094 "/>
<path style=" stroke:none;fill-rule:nonzero;fill:rgb(100%,100%,100%);fill-opacity:1;" d="M 309.871094 78.832031 L 144.640625 78.832031 C 140.652344 78.835938 136.828125 80.421875 134.007812 83.242188 C 131.1875 86.0625 129.597656 89.886719 129.59375 93.875 L 129.59375 287.871094 C 129.597656 291.859375 131.1875 295.683594 134.007812 298.507812 C 136.828125 301.328125 140.652344 302.914062 144.640625 302.917969 L 309.871094 302.917969 C 313.859375 302.914062 317.683594 301.328125 320.503906 298.507812 C 323.328125 295.683594 324.914062 291.859375 324.917969 287.871094 L 324.917969 93.875 C 324.914062 89.886719 323.328125 86.0625 320.503906 83.242188 C 317.683594 80.421875 313.859375 78.835938 309.871094 78.832031 Z M 309.871094 78.832031 "/>
<path style=" stroke:none;fill-rule:nonzero;fill:rgb(100%,80.784314%,0%);fill-opacity:1;" d="M 286.304688 126.191406 L 224.703125 126.191406 C 223.769531 126.191406 222.875 125.820312 222.214844 125.160156 C 221.554688 124.5 221.183594 123.605469 221.183594 122.671875 C 221.183594 121.738281 221.554688 120.84375 222.214844 120.183594 C 222.875 119.523438 223.769531 119.152344 224.703125 119.152344 L 286.304688 119.152344 C 286.769531 119.152344 287.226562 119.242188 287.652344 119.421875 C 288.082031 119.597656 288.46875 119.855469 288.796875 120.183594 C 289.125 120.507812 289.382812 120.898438 289.558594 121.324219 C 289.738281 121.753906 289.828125 122.210938 289.828125 122.671875 C 289.828125 123.132812 289.738281 123.59375 289.558594 124.019531 C 289.382812 124.445312 289.125 124.835938 288.796875 125.160156 C 288.46875 125.488281 288.082031 125.746094 287.652344 125.921875 C 287.226562 126.101562 286.769531 126.191406 286.304688 126.191406 Z M 286.304688 126.191406 "/>
<path style=" stroke:none;fill-rule:nonzero;fill:rgb(100%,80.784314%,0%);fill-opacity:1;" d="M 300.820312 138.066406 L 224.703125 138.066406 C 223.769531 138.066406 222.875 137.695312 222.214844 137.035156 C 221.554688 136.375 221.183594 135.480469 221.183594 134.546875 C 221.183594 133.613281 221.554688 132.71875 222.214844 132.058594 C 222.875 131.398438 223.769531 131.027344 224.703125 131.027344 L 300.820312 131.027344 C 301.753906 131.027344 302.648438 131.398438 303.308594 132.058594 C 303.96875 132.71875 304.339844 133.613281 304.339844 134.546875 C 304.339844 135.480469 303.96875 136.375 303.308594 137.035156 C 302.648438 137.695312 301.753906 138.066406 300.820312 138.066406 Z M 300.820312 138.066406 "/>
<path style=" stroke:none;fill-rule:nonzero;fill:rgb(90.196078%,90.196078%,90.196078%);fill-opacity:1;" d="M 211.070312 104.761719 L 154.277344 104.761719 C 153.832031 104.761719 153.402344 104.941406 153.085938 105.257812 C 152.769531 105.574219 152.59375 106.003906 152.59375 106.449219 L 152.59375 150.769531 C 152.59375 151.214844 152.769531 151.644531 153.085938 151.960938 C 153.402344 152.277344 153.832031 152.453125 154.277344 152.453125 L 211.070312 152.453125 C 211.519531 152.453125 211.945312 152.277344 212.265625 151.960938 C 212.578125 151.644531 212.757812 151.214844 212.757812 150.769531 L 212.757812 106.449219 C 212.757812 106.003906 212.578125 105.574219 212.265625 105.257812 C 211.945312 104.941406 211.519531 104.761719 211.070312 104.761719 Z M 211.070312 104.761719 "/>
<path style=" stroke:none;fill-rule:nonzero;fill:rgb(18.431373%,18.039216%,25.490196%);fill-opacity:1;" d="M 169.859375 131.976562 C 169.882812 135.71875 168.5 139.335938 165.992188 142.109375 C 163.507812 144.835938 159.8125 146.640625 156.082031 145.894531 C 152.644531 145.207031 149.855469 142.203125 150.203125 138.570312 C 150.261719 137.785156 150.488281 137.019531 150.871094 136.332031 C 151.253906 135.640625 151.785156 135.042969 152.421875 134.578125 C 153.0625 134.117188 153.792969 133.796875 154.566406 133.644531 C 155.339844 133.492188 156.140625 133.511719 156.90625 133.699219 C 160.167969 134.546875 161.46875 139.25 158.75 141.457031 C 158.097656 141.988281 157.160156 141.0625 157.816406 140.527344 C 159.617188 139.066406 159.058594 135.875 156.890625 135.074219 C 154.363281 134.140625 151.6875 136.144531 151.507812 138.730469 C 151.289062 141.789062 153.636719 144.097656 156.511719 144.640625 C 159.625 145.226562 162.710938 143.632812 164.820312 141.4375 C 167.234375 138.882812 168.570312 135.492188 168.539062 131.976562 C 168.546875 131.808594 168.617188 131.644531 168.742188 131.527344 C 168.863281 131.410156 169.027344 131.34375 169.199219 131.34375 C 169.371094 131.34375 169.535156 131.410156 169.65625 131.527344 C 169.78125 131.644531 169.851562 131.808594 169.859375 131.976562 Z M 169.859375 131.976562 "/>
<path style=" stroke:none;fill-rule:nonzero;fill:rgb(100%,80.784314%,0%);fill-opacity:1;" d="M 182.71875 140.351562 C 195.699219 140.351562 206.21875 129.832031 206.21875 116.855469 C 206.21875 103.878906 195.699219 93.359375 182.71875 93.359375 C 169.742188 93.359375 159.222656 103.878906 159.222656 116.855469 C 159.222656 129.832031 169.742188 140.351562 182.71875 140.351562 Z M 182.71875 140.351562 "/>
<path style=" stroke:none;fill-rule:nonzero;fill:rgb(18.431373%,18.039216%,25.490196%);fill-opacity:1;" d="M 181.515625 126.878906 L 181.492188 126.003906 C 183.125 125.957031 184.566406 125.855469 185.648438 125.0625 C 185.957031 124.828125 186.207031 124.527344 186.386719 124.183594 C 186.570312 123.839844 186.671875 123.460938 186.695312 123.074219 C 186.714844 122.839844 186.675781 122.601562 186.589844 122.382812 C 186.503906 122.160156 186.363281 121.964844 186.1875 121.804688 C 185.46875 121.199219 184.3125 121.394531 183.472656 121.78125 L 182.746094 122.113281 L 184.136719 111.933594 L 185.007812 112.050781 L 183.824219 120.710938 C 184.96875 120.375 186.027344 120.519531 186.753906 121.132812 C 187.035156 121.378906 187.253906 121.683594 187.394531 122.023438 C 187.535156 122.367188 187.597656 122.738281 187.570312 123.105469 C 187.546875 123.628906 187.40625 124.132812 187.164062 124.59375 C 186.921875 125.054688 186.582031 125.457031 186.167969 125.773438 C 184.777344 126.789062 182.96875 126.839844 181.515625 126.878906 Z M 181.515625 126.878906 "/>
<path style=" stroke:none;fill-rule:nonzero;fill:rgb(18.431373%,18.039216%,25.490196%);fill-opacity:1;" d="M 194.039062 112.800781 L 189.308594 112.800781 L 189.308594 113.675781 L 194.039062 113.675781 Z M 194.039062 112.800781 "/>
<path style=" stroke:none;fill-rule:nonzero;fill:rgb(18.431373%,18.039216%,25.490196%);fill-opacity:1;" d="M 179.113281 112.800781 L 174.382812 112.800781 L 174.382812 113.675781 L 179.113281 113.675781 Z M 179.113281 112.800781 "/>
<path style=" stroke:none;fill-rule:nonzero;fill:rgb(18.431373%,18.039216%,25.490196%);fill-opacity:1;" d="M 169.703125 152.453125 C 171.464844 151.335938 173.367188 150.460938 175.363281 149.851562 C 175.171875 149.175781 175.175781 148.457031 175.371094 147.78125 C 175.636719 146.929688 176.167969 146.1875 176.890625 145.660156 C 177.613281 145.136719 178.488281 144.859375 179.378906 144.871094 L 185.105469 144.871094 C 186 144.859375 186.875 145.136719 187.597656 145.664062 C 188.320312 146.1875 188.855469 146.933594 189.125 147.789062 C 189.320312 148.460938 189.320312 149.175781 189.132812 149.851562 C 191.125 150.460938 193.027344 151.339844 194.792969 152.453125 Z M 169.703125 152.453125 "/>
<path style=" stroke:none;fill-rule:nonzero;fill:rgb(24.705882%,23.921569%,33.72549%);fill-opacity:1;" d="M 209.636719 108.132812 C 209.207031 107.617188 208.679688 107.1875 208.085938 106.875 C 207.5625 106.601562 206.984375 106.457031 206.394531 106.457031 C 205.585938 106.46875 204.800781 106.730469 204.152344 107.210938 C 202.363281 108.476562 201.125 111.203125 201.125 114.359375 C 201.125 118.320312 203.074219 121.605469 205.609375 122.175781 C 205.867188 122.234375 206.132812 122.261719 206.394531 122.261719 C 209.296875 122.261719 211.664062 118.71875 211.664062 114.359375 C 211.664062 111.832031 210.871094 109.578125 209.636719 108.132812 Z M 209.636719 108.132812 "/>
<path style=" stroke:none;fill-rule:nonzero;fill:rgb(24.705882%,23.921569%,33.72549%);fill-opacity:1;" d="M 161.375 107.023438 L 161.371094 107.023438 C 160.78125 106.660156 160.105469 106.464844 159.414062 106.457031 C 158.828125 106.460938 158.246094 106.601562 157.726562 106.875 C 157.128906 107.1875 156.601562 107.617188 156.175781 108.136719 L 156.171875 108.140625 C 154.941406 109.582031 154.148438 111.835938 154.148438 114.359375 C 154.148438 117.765625 155.585938 120.671875 157.605469 121.785156 C 158.160156 122.09375 158.78125 122.257812 159.414062 122.261719 C 159.554688 122.261719 159.695312 122.253906 159.835938 122.238281 L 159.839844 122.238281 C 162.546875 121.910156 164.683594 118.503906 164.683594 114.359375 C 164.683594 111.042969 163.308594 108.191406 161.375 107.023438 Z M 161.375 107.023438 "/>
<path style=" stroke:none;fill-rule:nonzero;fill:rgb(24.705882%,23.921569%,33.72549%);fill-opacity:1;" d="M 157.9375 121.027344 C 158.039062 121.027344 158.144531 121.003906 158.238281 120.957031 C 158.328125 120.910156 158.410156 120.839844 158.472656 120.753906 C 158.53125 120.667969 158.570312 120.570312 158.585938 120.46875 C 158.601562 120.363281 158.59375 120.257812 158.558594 120.160156 C 157.300781 116.417969 156.921875 112.433594 157.453125 108.519531 C 157.984375 104.609375 159.410156 100.871094 161.621094 97.597656 C 163.832031 94.324219 166.765625 91.605469 170.199219 89.652344 C 173.628906 87.699219 177.46875 86.5625 181.410156 86.335938 C 185.351562 86.105469 189.292969 86.785156 192.929688 88.328125 C 196.566406 89.867188 199.796875 92.226562 202.371094 95.222656 C 204.949219 98.214844 206.800781 101.761719 207.78125 105.585938 C 208.765625 109.410156 208.851562 113.410156 208.039062 117.273438 C 208 117.445312 208.035156 117.621094 208.128906 117.769531 C 208.226562 117.914062 208.375 118.015625 208.546875 118.054688 C 208.714844 118.089844 208.894531 118.054688 209.042969 117.960938 C 209.1875 117.863281 209.289062 117.714844 209.324219 117.542969 C 210.183594 113.484375 210.09375 109.277344 209.058594 105.253906 C 208.027344 101.234375 206.082031 97.503906 203.375 94.359375 C 200.664062 91.210938 197.265625 88.730469 193.445312 87.109375 C 189.621094 85.492188 185.476562 84.773438 181.332031 85.015625 C 177.1875 85.257812 173.152344 86.453125 169.542969 88.503906 C 165.9375 90.558594 162.851562 93.417969 160.527344 96.859375 C 158.203125 100.300781 156.703125 104.230469 156.148438 108.34375 C 155.589844 112.457031 155.988281 116.644531 157.3125 120.582031 C 157.355469 120.710938 157.441406 120.824219 157.550781 120.90625 C 157.664062 120.984375 157.796875 121.027344 157.9375 121.027344 Z M 157.9375 121.027344 "/>
<path style=" stroke:none;fill-rule:nonzero;fill:rgb(18.431373%,18.039216%,25.490196%);fill-opacity:1;" d="M 194.523438 101.632812 C 195.453125 102.902344 194.996094 104.613281 194.015625 105.707031 C 192.738281 107.132812 190.703125 107.222656 188.9375 106.957031 C 186.957031 106.660156 184.855469 105.734375 182.847656 106.359375 C 181.136719 106.890625 179.917969 108.441406 178.140625 108.832031 C 176.566406 109.179688 174.679688 108.722656 174.128906 107.042969 C 173.863281 106.234375 175.132812 105.886719 175.398438 106.691406 C 175.753906 107.777344 177.296875 107.757812 178.183594 107.453125 C 179.597656 106.972656 180.691406 105.800781 182.082031 105.238281 C 183.726562 104.578125 185.507812 104.875 187.179688 105.253906 C 188.753906 105.609375 190.566406 106.132812 192.136719 105.472656 C 193.296875 104.980469 194.222656 103.4375 193.386719 102.296875 C 192.882812 101.613281 194.027344 100.953125 194.523438 101.632812 Z M 194.523438 101.632812 "/>
<path style=" stroke:none;fill-rule:nonzero;fill:rgb(90.196078%,90.196078%,90.196078%);fill-opacity:1;" d="M 286.214844 182.375 L 202.65625 182.375 C 202.195312 182.375 201.738281 182.285156 201.3125 182.105469 C 200.886719 181.929688 200.496094 181.671875 200.171875 181.34375 C 199.84375 181.015625 199.585938 180.628906 199.40625 180.203125 C 199.230469 179.777344 199.140625 179.316406 199.140625 178.855469 C 199.140625 178.394531 199.230469 177.9375 199.40625 177.511719 C 199.585938 177.082031 199.84375 176.695312 200.171875 176.367188 C 200.496094 176.042969 200.886719 175.78125 201.3125 175.605469 C 201.738281 175.429688 202.195312 175.339844 202.65625 175.339844 L 286.214844 175.339844 C 287.144531 175.339844 288.039062 175.710938 288.699219 176.371094 C 289.359375 177.027344 289.726562 177.925781 289.726562 178.855469 C 289.726562 179.789062 289.359375 180.683594 288.699219 181.34375 C 288.039062 182.003906 287.144531 182.375 286.214844 182.375 Z M 286.214844 182.375 "/>
<path style=" stroke:none;fill-rule:nonzero;fill:rgb(90.196078%,90.196078%,90.196078%);fill-opacity:1;" d="M 300.726562 194.25 L 202.65625 194.25 C 202.195312 194.25 201.738281 194.160156 201.308594 193.980469 C 200.882812 193.804688 200.496094 193.546875 200.167969 193.21875 C 199.839844 192.894531 199.582031 192.503906 199.402344 192.078125 C 199.226562 191.652344 199.136719 191.191406 199.136719 190.730469 C 199.136719 190.269531 199.226562 189.8125 199.402344 189.382812 C 199.582031 188.957031 199.839844 188.566406 200.167969 188.242188 C 200.496094 187.914062 200.882812 187.65625 201.308594 187.480469 C 201.738281 187.304688 202.195312 187.210938 202.65625 187.210938 L 300.726562 187.210938 C 301.191406 187.210938 301.648438 187.304688 302.074219 187.480469 C 302.503906 187.65625 302.890625 187.914062 303.21875 188.242188 C 303.546875 188.566406 303.804688 188.957031 303.980469 189.382812 C 304.160156 189.8125 304.25 190.269531 304.25 190.730469 C 304.25 191.191406 304.160156 191.652344 303.980469 192.078125 C 303.804688 192.503906 303.546875 192.894531 303.21875 193.21875 C 302.890625 193.546875 302.503906 193.804688 302.074219 193.980469 C 301.648438 194.160156 301.191406 194.25 300.726562 194.25 Z M 300.726562 194.25 "/>
<path style=" stroke:none;fill-rule:nonzero;fill:rgb(90.196078%,90.196078%,90.196078%);fill-opacity:1;" d="M 286.214844 225.054688 L 202.65625 225.054688 C 201.726562 225.054688 200.832031 224.683594 200.171875 224.023438 C 199.511719 223.363281 199.140625 222.46875 199.140625 221.535156 C 199.140625 220.601562 199.511719 219.707031 200.171875 219.046875 C 200.832031 218.386719 201.726562 218.015625 202.65625 218.015625 L 286.214844 218.015625 C 287.144531 218.015625 288.042969 218.386719 288.699219 219.046875 C 289.359375 219.707031 289.730469 220.601562 289.730469 221.535156 C 289.730469 222.46875 289.359375 223.363281 288.699219 224.023438 C 288.042969 224.683594 287.144531 225.054688 286.214844 225.054688 Z M 286.214844 225.054688 "/>
<path style=" stroke:none;fill-rule:nonzero;fill:rgb(90.196078%,90.196078%,90.196078%);fill-opacity:1;" d="M 300.726562 236.929688 L 202.65625 236.929688 C 201.726562 236.929688 200.832031 236.558594 200.171875 235.898438 C 199.511719 235.238281 199.140625 234.34375 199.140625 233.410156 C 199.140625 232.476562 199.511719 231.582031 200.171875 230.921875 C 200.832031 230.261719 201.726562 229.890625 202.65625 229.890625 L 300.726562 229.890625 C 301.660156 229.890625 302.554688 230.261719 303.214844 230.921875 C 303.875 231.582031 304.246094 232.476562 304.246094 233.410156 C 304.246094 234.34375 303.875 235.238281 303.214844 235.898438 C 302.554688 236.558594 301.660156 236.929688 300.726562 236.929688 Z M 300.726562 236.929688 "/>
<path style=" stroke:none;fill-rule:nonzero;fill:rgb(90.196078%,90.196078%,90.196078%);fill-opacity:1;" d="M 169.589844 199.589844 C 177.832031 199.589844 184.515625 192.90625 184.515625 184.660156 C 184.515625 176.417969 177.832031 169.734375 169.589844 169.734375 C 161.34375 169.734375 154.660156 176.417969 154.660156 184.660156 C 154.660156 192.90625 161.34375 199.589844 169.589844 199.589844 Z M 169.589844 199.589844 "/>
<path style=" stroke:none;fill-rule:nonzero;fill:rgb(90.196078%,90.196078%,90.196078%);fill-opacity:1;" d="M 169.589844 242.613281 C 177.832031 242.613281 184.515625 235.929688 184.515625 227.6875 C 184.515625 219.441406 177.832031 212.757812 169.589844 212.757812 C 161.34375 212.757812 154.660156 219.441406 154.660156 227.6875 C 154.660156 235.929688 161.34375 242.613281 169.589844 242.613281 Z M 169.589844 242.613281 "/>
<path style=" stroke:none;fill-rule:nonzero;fill:rgb(90.196078%,90.196078%,90.196078%);fill-opacity:1;" d="M 286.214844 268.078125 L 202.65625 268.078125 C 201.726562 268.078125 200.832031 267.707031 200.171875 267.046875 C 199.511719 266.386719 199.140625 265.492188 199.140625 264.558594 C 199.140625 263.628906 199.511719 262.734375 200.171875 262.074219 C 200.832031 261.414062 201.726562 261.042969 202.65625 261.042969 L 286.214844 261.042969 C 287.144531 261.042969 288.042969 261.414062 288.699219 262.074219 C 289.359375 262.734375 289.730469 263.628906 289.730469 264.558594 C 289.730469 265.492188 289.359375 266.386719 288.699219 267.046875 C 288.042969 267.707031 287.144531 268.078125 286.214844 268.078125 Z M 286.214844 268.078125 "/>
<path style=" stroke:none;fill-rule:nonzero;fill:rgb(90.196078%,90.196078%,90.196078%);fill-opacity:1;" d="M 300.726562 279.953125 L 202.65625 279.953125 C 201.726562 279.953125 200.832031 279.582031 200.171875 278.921875 C 199.511719 278.261719 199.140625 277.367188 199.140625 276.433594 C 199.140625 275.503906 199.511719 274.605469 200.171875 273.945312 C 200.832031 273.289062 201.726562 272.917969 202.65625 272.917969 L 300.726562 272.917969 C 301.660156 272.917969 302.554688 273.289062 303.214844 273.945312 C 303.875 274.605469 304.246094 275.503906 304.246094 276.433594 C 304.246094 277.367188 303.875 278.261719 303.214844 278.921875 C 302.554688 279.582031 301.660156 279.953125 300.726562 279.953125 Z M 300.726562 279.953125 "/>
<path style=" stroke:none;fill-rule:nonzero;fill:rgb(90.196078%,90.196078%,90.196078%);fill-opacity:1;" d="M 169.589844 285.636719 C 177.832031 285.636719 184.515625 278.953125 184.515625 270.710938 C 184.515625 262.46875 177.832031 255.785156 169.589844 255.785156 C 161.34375 255.785156 154.660156 262.46875 154.660156 270.710938 C 154.660156 278.953125 161.34375 285.636719 169.589844 285.636719 Z M 169.589844 285.636719 "/>
</g>
</svg>
