<?xml version="1.0" encoding="UTF-8"?>
<svg id="Capa_2" data-name="Capa 2" xmlns="http://www.w3.org/2000/svg" viewBox="0 0 449.69 449.69">
  <defs>
    <style>
      .cls-1 {
        fill: #1a4590;
      }

      .cls-2 {
        fill: #fff;
        fill-rule: evenodd;
      }
    </style>
  </defs>
  <g id="Layer_1" data-name="Layer 1">
    <g>
      <circle class="cls-1" cx="224.85" cy="224.85" r="224.85" transform="translate(-93.13 224.85) rotate(-45)"/>
      <path class="cls-2" d="m158.71,81.62h132.27c42.49,0,77.44,34.95,77.44,77.44v131.58c0,42.49-34.95,77.44-77.44,77.44h-132.27c-42.49,0-77.44-34.95-77.44-77.44v-131.58c0-42.49,34.95-77.44,77.44-77.44h0Zm143.23,50.03h0c8.91,0,16.45,7.54,16.45,16.45h0c0,8.91-7.54,16.45-16.45,16.45h0c-9.59,0-16.45-7.54-16.45-16.45h0c0-8.91,6.85-16.45,16.45-16.45h0Zm-77.44,15.08h.69c42.49,0,78.13,35.64,78.13,78.13h0c0,43.17-35.64,78.13-78.13,78.13h-.69c-42.49,0-77.44-34.95-77.44-78.13h0c0-42.49,34.95-78.13,77.44-78.13h0Zm0,26.73h.69c28.1,0,51.4,23.3,51.4,51.4h0c0,28.78-23.3,52.08-51.4,52.08h-.69c-28.1,0-51.4-23.3-51.4-52.08h0c0-28.1,23.3-51.4,51.4-51.4h0Zm-65.1-67.16h130.89c29.47,0,53.45,23.99,53.45,53.45v130.21c0,29.47-23.99,53.45-53.45,53.45h-130.89c-29.47,0-53.45-23.99-53.45-53.45v-130.21c0-29.47,23.99-53.45,53.45-53.45h0Z"/>
    </g>
  </g>
</svg>