<?xml version="1.0" encoding="UTF-8"?>
<svg id="Capa_2" data-name="Capa 2" xmlns="http://www.w3.org/2000/svg" viewBox="0 0 449.69 449.69">
  <defs>
    <style>
      .cls-1 {
        fill: #1a4590;
      }

      .cls-2 {
        fill: #fff;
        fill-rule: evenodd;
      }
    </style>
  </defs>
  <g id="Layer_1" data-name="Layer 1">
    <g>
      <circle class="cls-1" cx="224.85" cy="224.85" r="224.85" transform="translate(-93.13 224.85) rotate(-45)"/>
      <path class="cls-2" d="m99.79,179.71h50.64v170.04h-50.64v-170.04Zm25.01-86.27c16.88,0,30.63,13.75,30.63,30.63s-13.75,30.63-30.63,30.63-30.01-13.75-30.01-30.63,13.13-30.63,30.01-30.63h0Zm55.64,86.27h50.01v23.76c10.63-15.63,28.13-25.63,48.14-25.63h13.75c31.88,0,57.51,26.26,57.51,57.51v114.4h-50.01v-15.63h0v-76.27h0c-.63-19.38-13.75-34.38-33.13-34.38h0c-19.38,0-35.63,15-36.26,34.38h0v91.9h-50.01v-170.04Z"/>
    </g>
  </g>
</svg>