<svg width="204" height="80" viewBox="0 0 204 80" fill="none" xmlns="http://www.w3.org/2000/svg">
<g clip-path="url(#clip0_4854_820)">
<path d="M29.9666 25.3084L23.8535 39.8879L29.9666 54.4674L36.0796 39.8879L29.9666 25.3084Z" fill="#FFCE00"/>
<path d="M21.0851 10.6334C20.8449 9.15893 20.382 7.22968 19.462 5.11213C18.6549 3.2582 17.7262 1.78954 16.9219 0.703247C11.4453 13.7619 5.96877 26.8263 0.492188 39.8879C5.96877 52.9494 11.4453 66.0139 16.9219 79.0754C17.7262 77.9862 18.6549 76.5205 19.462 74.6665C20.382 72.549 20.8449 70.6198 21.0851 69.1453L8.81844 39.8879L21.0851 10.6305V10.6334Z" fill="#003A84"/>
<path d="M27.5359 22.7654C27.3073 21.4271 26.8994 19.7354 26.1356 17.8815C25.314 15.8798 24.339 14.3126 23.5145 13.18C19.7824 22.0847 16.0504 30.9893 12.3154 39.8911C16.0475 48.7958 19.7824 57.7005 23.5145 66.6023C24.339 65.4696 25.314 63.9025 26.1356 61.9008C26.8965 60.0469 27.3073 58.3552 27.5359 57.0169L20.3553 39.8911L27.5359 22.7654Z" fill="#003A84"/>
<path d="M109.83 46.9362L109.723 46.9593L109.677 47.0578C108.803 48.8828 107.556 50.279 105.974 51.2089C104.389 52.1388 102.525 52.6109 100.442 52.6109C98.209 52.6109 96.1983 52.0837 94.4624 51.0409C92.7295 50.001 91.3582 48.4975 90.3919 46.577C89.4198 44.6506 88.928 42.3853 88.928 39.8449C88.928 37.3044 89.4198 34.9928 90.3919 33.0867C91.361 31.1835 92.7295 29.6917 94.4653 28.6488C96.1983 27.606 98.2118 27.0788 100.445 27.0788C102.528 27.0788 104.391 27.5423 105.977 28.4548C107.559 29.3643 108.803 30.7519 109.677 32.5769L109.764 32.7014H109.882C112.414 33.1417 116.366 33.1417 118.9 32.7014H119.218L119.123 32.4118C117.804 28.4113 115.452 25.2335 112.133 22.9654C108.818 20.703 104.904 19.553 100.5 19.553C96.7364 19.553 93.2907 20.422 90.2559 22.1398C87.2211 23.8576 84.7938 26.288 83.0435 29.3615C81.2903 32.4349 80.4021 35.9632 80.4021 39.8449C80.4021 43.7265 81.2903 47.2432 83.0435 50.2993C84.7967 53.3583 87.224 55.7771 90.2559 57.492C93.2878 59.2098 96.7335 60.0788 100.5 60.0788C104.941 60.0788 108.864 58.9404 112.162 56.6954C113.941 55.4845 115.457 53.984 116.67 52.2373C117.674 50.7889 118.486 49.1406 119.085 47.3388L119.201 46.9883L118.964 46.9362C116.285 46.3539 112.616 46.3539 109.833 46.9362H109.83Z" fill="#003A84"/>
<path d="M65.2159 21.2851L65.0076 20.8187H56.4123L39.1841 59.2734H44.111C46.4052 59.0793 48.7688 58.526 49.4053 57.1211L50.1054 55.58C50.2993 55.1542 50.4757 54.766 50.6349 54.4126L50.7824 54.0882C50.8142 54.0186 50.846 53.9491 50.875 53.8825L51.4912 52.5268C51.4912 52.5268 51.497 52.5123 51.4999 52.5065L51.5606 52.3733C51.5751 52.3414 51.5838 52.3211 51.5838 52.3211H69.8275L70.976 54.8964C71.2682 55.5394 71.6067 56.2868 71.9857 57.124C72.6222 58.5289 74.9858 59.0822 77.28 59.2763H82.2301L65.2101 21.288L65.2159 21.2851ZM55.0699 44.2652L60.7085 31.3195L66.3471 44.2652H55.067H55.0699Z" fill="#003A84"/>
<path d="M180.211 21.2851L180.002 20.8187H171.407L154.179 59.2734H159.106C161.4 59.0793 163.763 58.526 164.4 57.1211L165.1 55.58C165.294 55.1542 165.47 54.766 165.629 54.4126L165.777 54.0882C165.809 54.0186 165.841 53.9491 165.87 53.8825L166.486 52.5268C166.486 52.5268 166.492 52.5123 166.495 52.5065L166.555 52.3733C166.57 52.3414 166.578 52.3211 166.578 52.3211H184.822L185.974 54.8993C186.266 55.5423 186.604 56.2868 186.983 57.1211C187.62 58.526 189.983 59.0793 192.278 59.2734H197.228L180.208 21.2851H180.211ZM170.065 44.2652L175.703 31.3195L181.342 44.2652H170.062H170.065Z" fill="#003A84"/>
<path d="M138.871 35.1548C133.464 34.5088 131.355 33.4283 131.355 31.2992C131.355 28.7616 133.976 27.1858 138.2 27.1858C142.025 27.1858 145.152 29.06 146.26 30.9139L146.619 31.5106C146.723 31.4585 151.653 28.9962 152.521 26.1661C149.83 21.8354 144.843 19.5499 137.983 19.5499C130.496 19.6078 122.942 23.1969 122.942 31.0848C122.942 40.004 130.233 42.0983 138.113 43.0369C143.376 43.6047 145.936 45.1226 145.936 47.6804C145.936 52.0835 140.054 52.4253 138.252 52.4253C133.565 52.4253 129.963 50.4237 128.615 47.0692L128.291 46.2668L128.028 46.403C126.856 47.0258 122.19 49.6937 122.256 52.5007C125.126 57.683 130.342 60.2148 138.148 60.2148C142.438 60.2148 146.347 59.2299 149.153 57.4454C152.587 55.2613 154.404 51.8836 154.404 47.6775C154.404 38.3499 146.94 36.1426 138.874 35.1461L138.871 35.1548Z" fill="#003A84"/>
</g>
<defs>
<clipPath id="clip0_4854_820">
<rect width="196.737" height="78.3751" fill="white" transform="translate(0.492188 0.700317)"/>
</clipPath>
</defs>
</svg>
