<svg width="180" height="70" viewBox="0 0 180 70" fill="none" xmlns="http://www.w3.org/2000/svg">
<g clip-path="url(#clip0_4854_386)">
<path d="M26.4665 22.1694L21.0793 35.0176L26.4665 47.8658L31.8536 35.0176L26.4665 22.1694Z" fill="#FFCE00"/>
<path d="M18.6397 9.23668C18.4281 7.93731 18.0202 6.23715 17.2094 4.37106C16.4981 2.73728 15.6797 1.44301 14.9709 0.485718C10.1447 11.9937 5.31844 23.5068 0.492188 35.0173C5.31844 46.5278 10.1447 58.0409 14.9709 69.5514C15.6797 68.5915 16.4981 67.2998 17.2094 65.6661C18.0202 63.8 18.4281 62.0998 18.6397 60.8004L7.82972 35.0173L18.6397 9.23412V9.23668Z" fill="#003A84"/>
<path d="M24.3247 19.928C24.1233 18.7486 23.7638 17.2578 23.0907 15.624C22.3666 13.86 21.5074 12.479 20.7808 11.4808C17.4919 19.3281 14.2031 27.1754 10.9116 35.0201C14.2005 42.8674 17.4919 50.7146 20.7808 58.5593C21.5074 57.5612 22.3666 56.1801 23.0907 54.4162C23.7612 52.7824 24.1233 51.2916 24.3247 50.1122L17.9968 35.0201L24.3247 19.928Z" fill="#003A84"/>
<path d="M96.8469 41.2284L96.7525 41.2489L96.7117 41.3356C95.9418 42.9439 94.8429 44.1743 93.4483 44.9938C92.0512 45.8132 90.4093 46.2293 88.5737 46.2293C86.6054 46.2293 84.8335 45.7647 83.3038 44.8457C81.7766 43.9293 80.5681 42.6044 79.7166 40.9119C78.86 39.2143 78.4265 37.218 78.4265 34.9792C78.4265 32.7404 78.86 30.7033 79.7166 29.0235C80.5707 27.3464 81.7766 26.0317 83.3063 25.1127C84.8335 24.1937 86.608 23.7291 88.5762 23.7291C90.4119 23.7291 92.0537 24.1375 93.4509 24.9416C94.8455 25.7432 95.9418 26.966 96.7117 28.5743L96.7882 28.684H96.8927C99.1236 29.0721 102.606 29.0721 104.84 28.684H105.12L105.036 28.4287C103.873 24.9033 101.801 22.1029 98.8763 20.1041C95.9545 18.1104 92.505 17.0969 88.6246 17.0969C85.3077 17.0969 82.2712 17.8628 79.5968 19.3766C76.9223 20.8904 74.7833 23.0322 73.2408 25.7407C71.6958 28.4492 70.9131 31.5585 70.9131 34.9792C70.9131 38.3999 71.6958 41.499 73.2408 44.1922C74.7858 46.888 76.9249 49.0195 79.5968 50.5308C82.2687 52.0446 85.3052 52.8104 88.6246 52.8104C92.5382 52.8104 95.9953 51.8072 98.9018 49.8288C100.47 48.7617 101.806 47.4394 102.874 45.9C103.759 44.6236 104.475 43.1711 105.003 41.5833L105.105 41.2744L104.896 41.2284C102.535 40.7153 99.302 40.7153 96.8494 41.2284H96.8469Z" fill="#003A84"/>
<path d="M57.5302 18.6236L57.3467 18.2126H49.772L34.5896 52.1009H38.9314C40.9532 51.9299 43.0362 51.4423 43.5971 50.2042L44.2141 48.8461C44.3849 48.4708 44.5404 48.1288 44.6806 47.8173L44.8106 47.5314C44.8387 47.4701 44.8667 47.4089 44.8922 47.3502L45.4353 46.1555C45.4353 46.1555 45.4404 46.1427 45.4429 46.1376L45.4965 46.0202C45.5092 45.9921 45.5169 45.9742 45.5169 45.9742H61.5942L62.6063 48.2436C62.8638 48.8104 63.1621 49.469 63.4961 50.2067C64.057 51.4448 66.14 51.9324 68.1617 52.1035H72.524L57.5251 18.6262L57.5302 18.6236ZM48.589 38.8749L53.5581 27.4665L58.5271 38.8749H48.5865H48.589Z" fill="#003A84"/>
<path d="M158.869 18.6236L158.686 18.2126H151.111L135.929 52.1009H140.271C142.292 51.9299 144.375 51.4423 144.936 50.2042L145.553 48.8461C145.724 48.4708 145.88 48.1288 146.02 47.8173L146.15 47.5314C146.178 47.4701 146.206 47.4089 146.231 47.3502L146.774 46.1555C146.774 46.1555 146.779 46.1427 146.782 46.1376L146.836 46.0202C146.848 45.9921 146.856 45.9742 146.856 45.9742H162.933L163.948 48.2462C164.205 48.8129 164.504 49.469 164.838 50.2042C165.399 51.4423 167.482 51.9299 169.503 52.1009H173.866L158.867 18.6236H158.869ZM149.928 38.8749L154.897 27.4665L159.866 38.8749H149.926H149.928Z" fill="#003A84"/>
<path d="M122.439 30.8464C117.674 30.2771 115.815 29.3249 115.815 27.4486C115.815 25.2123 118.125 23.8236 121.847 23.8236C125.218 23.8236 127.974 25.4753 128.95 27.1091L129.267 27.6349C129.358 27.589 133.703 25.4191 134.468 22.9251C132.097 19.1086 127.701 17.0945 121.656 17.0945C115.058 17.1455 108.401 20.3084 108.401 27.2597C108.401 35.1197 114.826 36.9654 121.771 37.7925C126.409 38.2928 128.665 39.6305 128.665 41.8846C128.665 45.7648 123.482 46.0661 121.893 46.0661C117.763 46.0661 114.589 44.3021 113.401 41.346L113.115 40.6388L112.883 40.7588C111.851 41.3077 107.738 43.6588 107.797 46.1324C110.326 50.6994 114.923 52.9305 121.802 52.9305C125.582 52.9305 129.027 52.0626 131.5 50.4901C134.526 48.5653 136.127 45.5887 136.127 41.8821C136.127 33.6621 129.55 31.7169 122.441 30.8387L122.439 30.8464Z" fill="#003A84"/>
</g>
<defs>
<clipPath id="clip0_4854_386">
<rect width="173.375" height="69.0682" fill="white" transform="translate(0.492188 0.483643)"/>
</clipPath>
</defs>
</svg>
