<svg width="558" height="425" viewBox="0 0 558 425" fill="none" xmlns="http://www.w3.org/2000/svg">
<g clip-path="url(#clip0_4693_2414)">
<path d="M223.284 88.1352H221.248V32.3101C221.248 28.0671 220.413 23.8656 218.791 19.9456C217.169 16.0255 214.792 12.4637 211.795 9.46342C208.798 6.46315 205.24 4.08321 201.324 2.45947C197.408 0.835734 193.211 3.59502e-06 188.973 0H70.827C62.267 -1.63358e-05 54.0577 3.40405 48.0049 9.46335C41.9521 15.5226 38.5517 23.7408 38.5516 32.31V338.571C38.5516 342.814 39.3865 347.016 41.0084 350.936C42.6304 354.856 45.0078 358.417 48.0048 361.418C51.0019 364.418 54.5599 366.798 58.4757 368.422C62.3915 370.045 66.5884 370.881 70.8269 370.881H188.973C197.533 370.881 205.742 367.477 211.795 361.418C217.848 355.359 221.248 347.14 221.248 338.571V127.872H223.284V88.1352Z" fill="#3F3D56"/>
<path d="M190.275 8.40594H174.853C175.562 10.1466 175.833 12.0351 175.641 13.9052C175.45 15.7752 174.802 17.5694 173.754 19.1297C172.707 20.6899 171.292 21.9684 169.635 22.8524C167.978 23.7364 166.129 24.1988 164.251 24.199H96.5666C94.6888 24.1988 92.8398 23.7364 91.1825 22.8524C89.5253 21.9684 88.1106 20.6899 87.0632 19.1297C86.0157 17.5694 85.3676 15.7752 85.176 13.9052C84.9844 12.0351 85.2551 10.1466 85.9644 8.40594H71.5602C68.395 8.40594 65.2608 9.03005 62.3365 10.2426C59.4122 11.4552 56.7551 13.2325 54.517 15.4731C52.2788 17.7137 50.5034 20.3736 49.2921 23.301C48.0808 26.2285 47.4574 29.3661 47.4574 32.5347V338.346C47.4574 341.515 48.0808 344.653 49.2921 347.58C50.5034 350.508 52.2788 353.167 54.5169 355.408C56.7551 357.649 59.4122 359.426 62.3365 360.638C65.2607 361.851 68.395 362.475 71.5602 362.475H190.275C193.44 362.475 196.574 361.851 199.499 360.638C202.423 359.426 205.08 357.649 207.318 355.408C209.556 353.167 211.332 350.508 212.543 347.58C213.754 344.653 214.378 341.515 214.378 338.346V32.5347C214.378 29.3661 213.754 26.2285 212.543 23.301C211.332 20.3736 209.556 17.7137 207.318 15.4731C205.08 13.2325 202.423 11.4552 199.499 10.2426C196.574 9.03005 193.44 8.40594 190.275 8.40594Z" fill="white"/>
<path d="M261.152 370.934H0.683643C0.50233 370.934 0.328442 370.862 0.200234 370.733C0.072026 370.605 0 370.431 0 370.25C0 370.068 0.072026 369.894 0.200234 369.766C0.328442 369.637 0.50233 369.565 0.683643 369.565H261.152C261.333 369.565 261.507 369.637 261.635 369.766C261.763 369.894 261.835 370.068 261.835 370.25C261.835 370.431 261.763 370.605 261.635 370.733C261.507 370.862 261.333 370.934 261.152 370.934Z" fill="#CBCBCB"/>
<path d="M130.918 236.576C162.802 236.576 188.649 210.701 188.649 178.783C188.649 146.865 162.802 120.99 130.918 120.99C99.0337 120.99 73.1866 146.865 73.1866 178.783C73.1866 210.701 99.0337 236.576 130.918 236.576Z" fill="#FFCE00"/>
<path d="M125.197 200.83C123.898 200.832 122.634 200.411 121.595 199.631L121.53 199.583L107.963 189.193C107.334 188.71 106.807 188.109 106.411 187.423C106.015 186.737 105.757 185.979 105.654 185.193C105.55 184.407 105.602 183.609 105.806 182.843C106.011 182.077 106.364 181.359 106.846 180.73C107.328 180.101 107.929 179.573 108.614 179.177C109.3 178.78 110.056 178.523 110.841 178.419C111.626 178.315 112.424 178.367 113.189 178.572C113.954 178.777 114.671 179.13 115.299 179.612L124.087 186.359L144.854 159.237C145.335 158.609 145.936 158.081 146.621 157.685C147.306 157.288 148.063 157.031 148.848 156.927C149.632 156.823 150.43 156.875 151.194 157.08C151.959 157.285 152.676 157.638 153.304 158.12L153.305 158.121L153.177 158.301L153.309 158.121C154.576 159.096 155.405 160.535 155.614 162.121C155.823 163.707 155.395 165.312 154.424 166.582L129.998 198.469C129.433 199.203 128.706 199.798 127.874 200.206C127.043 200.614 126.128 200.825 125.202 200.822L125.197 200.83Z" fill="white"/>
<path d="M474.616 376.614C475.318 375.478 476.145 374.423 477.081 373.469C477.467 373.069 477.874 372.691 478.294 372.324C480.846 370.049 483.958 368.497 487.309 367.825C490.659 367.154 494.128 367.388 497.359 368.503C500.589 369.619 503.465 371.576 505.689 374.173C507.914 376.77 509.407 379.913 510.016 383.279C512.836 372.841 505.496 362.559 498.117 354.661C490.733 346.766 482.295 338.105 482.337 327.287C482.358 321.267 485.299 315.897 489.741 311.916C489.878 311.795 490.015 311.675 490.154 311.558C495.522 306.952 502.428 304.543 509.493 304.812C522.619 305.515 534.079 314.346 542.038 324.821C554.849 341.676 560.462 365.334 551.494 384.52C543.605 401.395 526.781 411.415 509.61 419.471C507.213 420.596 504.82 421.687 502.432 422.745C502.416 422.749 502.399 422.76 502.383 422.764C502.268 422.815 502.153 422.865 502.045 422.917C501.552 423.135 501.059 423.353 500.571 423.568L500.797 423.716L501.503 424.174C501.258 424.025 501.016 423.881 500.771 423.733C500.698 423.688 500.621 423.646 500.549 423.6C492.116 418.535 483.565 413.176 477.739 405.268C471.696 397.056 469.267 385.295 474.616 376.614Z" fill="#F1F1F1"/>
<path d="M530.882 357.545C532.749 361.798 533.987 366.3 534.557 370.911C535.005 375.022 534.836 379.177 534.057 383.238C532.382 391.584 528.73 399.405 523.407 406.044C519.392 411.083 514.756 415.595 509.61 419.471C507.213 420.596 504.82 421.687 502.432 422.745C502.416 422.749 502.399 422.76 502.383 422.764C502.268 422.815 502.153 422.865 502.045 422.917C501.552 423.135 501.059 423.353 500.571 423.568L500.797 423.716L501.503 424.174C501.258 424.025 501.016 423.881 500.771 423.733C500.699 423.688 500.622 423.646 500.549 423.601C502.405 417.102 502.678 410.252 501.345 403.626C500.012 397 497.111 390.79 492.887 385.517C488.64 380.311 483.224 376.183 477.081 373.47C477.467 373.069 477.874 372.691 478.294 372.324C480.66 373.412 482.926 374.707 485.064 376.194C492.712 381.486 498.456 389.102 501.443 397.916C504.111 405.912 504.444 414.504 502.404 422.683C502.827 422.406 503.252 422.121 503.665 421.839C511.521 416.535 518.762 410.165 524.216 402.354C528.92 395.752 531.93 388.094 532.981 380.053C534.027 371.27 531.831 362.633 527.914 354.796C523.589 346.412 518.138 338.659 511.714 331.753C505.262 324.656 497.967 318.377 489.991 313.054C489.811 312.933 489.685 312.747 489.638 312.535C489.592 312.323 489.628 312.102 489.741 311.916C489.826 311.747 489.975 311.618 490.155 311.558C490.246 311.535 490.341 311.533 490.433 311.551C490.526 311.57 490.612 311.609 490.687 311.666C491.672 312.324 492.648 312.988 493.613 313.671C501.645 319.365 508.939 326.035 515.329 333.529C521.503 340.753 527.121 348.778 530.882 357.545Z" fill="white"/>
<path d="M358.941 26.8349C365.712 26.8349 371.202 21.3398 371.202 14.5612C371.202 7.7826 365.712 2.28748 358.941 2.28748C352.17 2.28748 346.681 7.7826 346.681 14.5612C346.681 21.3398 352.17 26.8349 358.941 26.8349Z" fill="#F1F1F1"/>
<path d="M511.393 191.086C515.522 191.086 518.868 187.736 518.868 183.603C518.868 179.47 515.522 176.12 511.393 176.12C507.265 176.12 503.918 179.47 503.918 183.603C503.918 187.736 507.265 191.086 511.393 191.086Z" fill="#F1F1F1"/>
<path d="M292.628 211.618C296.756 211.618 300.103 208.267 300.103 204.134C300.103 200.002 296.756 196.651 292.628 196.651C288.499 196.651 285.153 200.002 285.153 204.134C285.153 208.267 288.499 211.618 292.628 211.618Z" fill="#F1F1F1"/>
<path d="M296.848 425H557.316C557.498 425 557.672 424.928 557.8 424.8C557.928 424.671 558 424.497 558 424.316C558 424.134 557.928 423.96 557.8 423.832C557.672 423.703 557.498 423.631 557.316 423.631H296.848C296.667 423.631 296.493 423.703 296.365 423.832C296.237 423.96 296.165 424.134 296.165 424.316C296.165 424.497 296.237 424.671 296.365 424.8C296.493 424.928 296.667 425 296.848 425Z" fill="#CBCBCB"/>
<path d="M528.572 66.135C528.914 63.7042 528.354 61.2322 526.997 59.1875C525.64 57.1427 523.58 55.6674 521.209 55.0409C518.838 54.4144 516.32 54.6804 514.132 55.7884C511.944 56.8964 510.238 58.7695 509.337 61.0527L488.2 85.3101L494.402 102.65L515.659 74.3062C517.046 74.7511 518.513 74.886 519.958 74.7015C521.403 74.5171 522.79 74.0178 524.021 73.2387C525.252 72.4597 526.298 71.4198 527.084 70.1925C527.87 68.9652 528.378 67.5801 528.572 66.135Z" fill="#FFB7B7"/>
<path d="M440.959 160.521L511.12 85.5612L501.657 70.4994L413.656 145.004L440.959 160.521Z" fill="#3F3D56"/>
<path d="M425.3 114.976C438.892 114.976 449.911 103.945 449.911 90.3382C449.911 76.7312 438.892 65.7005 425.3 65.7005C411.707 65.7005 400.688 76.7312 400.688 90.3382C400.688 103.945 411.707 114.976 425.3 114.976Z" fill="#2F2E41"/>
<path d="M427.278 76.4201C432.574 71.0439 438.983 66.8952 446.053 64.266C450.591 62.5829 455.531 61.5429 460.276 62.4988C465.021 63.4547 469.508 66.7406 470.832 71.4011C471.914 75.2119 470.797 79.3151 469.117 82.9024C467.437 86.4898 465.194 89.8164 463.836 93.5376C462.45 97.3346 462.033 101.418 462.623 105.417C463.213 109.416 464.792 113.204 467.216 116.438C469.639 119.671 472.831 122.248 476.502 123.933C480.172 125.618 484.205 126.359 488.235 126.088C483.573 126.714 479.275 128.907 474.718 130.075C470.161 131.242 464.783 131.163 461.397 127.895C457.814 124.437 457.742 118.815 457.915 113.836C458.173 106.434 458.43 99.0328 458.688 91.6312C458.819 87.8566 458.931 83.961 457.571 80.4378C456.212 76.9147 452.98 73.8297 449.207 73.8618C446.348 73.886 443.817 75.6201 441.524 77.3302C439.231 79.0403 436.804 80.8648 433.956 81.1192C431.108 81.3736 427.856 79.2635 428.069 76.409L427.278 76.4201Z" fill="#2F2E41"/>
<path d="M331.825 255.768C329.462 256.426 326.941 256.192 324.738 255.113C322.536 254.033 320.806 252.182 319.875 249.911C318.945 247.639 318.88 245.105 319.691 242.789C320.502 240.472 322.134 238.534 324.278 237.342L345.539 213.194L363.523 217.084L338.23 241.884C338.851 243.203 339.177 244.642 339.183 246.1C339.189 247.558 338.876 249 338.265 250.323C337.655 251.647 336.761 252.821 335.649 253.761C334.536 254.702 333.231 255.387 331.825 255.768Z" fill="#FFB7B7"/>
<path d="M401.776 169.319L348.783 235.909L332.63 228.485L394.917 131.409L401.776 169.319Z" fill="#3F3D56"/>
<path d="M359.492 370.394L346.863 370.196L348.382 413.288H359.49L359.492 370.394Z" fill="#FFB7B7"/>
<path d="M362.324 409.658L340.447 409.657H340.446C336.748 409.657 333.202 411.127 330.588 413.745C327.973 416.362 326.504 419.912 326.504 423.613V424.067L362.323 424.068L362.324 409.658Z" fill="#2F2E41"/>
<path d="M443.113 358.965L429.317 367.832L456.914 401.069L466.262 395.06L443.113 358.965Z" fill="#FFB7B7"/>
<path d="M466.687 390.472L448.277 402.304L448.277 402.305C445.165 404.305 442.975 407.46 442.188 411.077C441.4 414.693 442.08 418.475 444.077 421.59L444.322 421.972L474.464 402.599L466.687 390.472Z" fill="#2F2E41"/>
<path d="M448.029 227.378C448.029 227.378 417.374 125.456 407.523 124.078C397.672 122.701 381.799 150.23 381.799 150.23C361.219 176.516 339.998 261.662 339.998 261.662C339.998 261.662 375.374 263.878 401.234 277.651C427.094 291.425 457.613 276.954 457.613 276.954L448.029 227.378Z" fill="#3F3D56"/>
<path opacity="0.1" d="M448.029 227.378C448.029 227.378 417.374 125.456 407.523 124.078C397.672 122.701 385.83 150.51 385.83 150.51C375.576 192.941 339.998 261.662 339.998 261.662C339.998 261.662 375.374 263.878 401.234 277.651C427.094 291.425 457.613 276.954 457.613 276.954L448.029 227.378Z" fill="black"/>
<path d="M422.879 196.884V248.099L428.9 322.289L458.98 378.408L444.624 388.674L403.605 335.292L387.382 282.288L361.903 399.624L342.761 398.255L356.055 235.57L381.282 189.779L422.879 196.884Z" fill="#2F2E41"/>
<path d="M391.972 147.347C382.401 156.928 391.288 167.194 391.288 167.194L380.35 191.832L423.419 203.466L438.471 136.138L428.216 125.188C407.707 124.503 407.696 124.078 407.696 124.078C404.102 127.598 391.972 147.347 391.972 147.347Z" fill="#FFCE00"/>
<path d="M440.205 129.163C438.249 127.717 436.026 126.675 433.664 126.095C431.303 125.516 428.85 125.412 426.448 125.788C424.046 126.164 421.742 127.014 419.671 128.288C417.599 129.562 415.8 131.235 414.379 133.21C403.552 148.302 393.54 172.672 407.334 203.065C429.484 251.868 448.758 276.851 456.594 276.849C456.936 276.852 457.277 276.798 457.601 276.69C462.425 275.052 469.398 266.882 470.661 259.682C471.113 257.105 471.005 253.515 467.926 251.05C459.083 243.969 443.207 221.922 438.255 192.903C435.518 176.868 440.826 162.262 445.76 152.832C447.844 148.931 448.454 144.408 447.478 140.093C446.501 135.778 444.004 131.96 440.443 129.338L440.205 129.163Z" fill="#3F3D56"/>
<path d="M426.565 112.555C435.345 107.751 438.571 96.7315 433.772 87.9427C428.973 79.1538 417.965 75.9238 409.186 80.7282C400.406 85.5326 397.18 96.5522 401.979 105.341C406.778 114.13 417.786 117.36 426.565 112.555Z" fill="#FFB7B7"/>
<path d="M392.397 95.2705H418.557L418.826 91.5107L420.167 95.2705H424.195L424.726 87.8187L427.385 95.2705H435.179V94.9013C435.173 89.7134 433.112 84.7396 429.447 81.0712C425.783 77.4028 420.815 75.3393 415.632 75.3334H411.944C406.762 75.3393 401.793 77.4028 398.129 81.0712C394.464 84.7396 392.403 89.7134 392.397 94.9013V95.2705Z" fill="#2F2E41"/>
<path d="M431.227 108.785L442.391 105.159V78.0193H421.304L421.826 78.5411C429.09 85.803 437.168 111.567 431.227 108.785Z" fill="#2F2E41"/>
</g>
<defs>
<clipPath id="clip0_4693_2414">
<rect width="558" height="425" fill="white"/>
</clipPath>
</defs>
</svg>
