<svg width="725" height="749" viewBox="0 0 725 749" fill="none" xmlns="http://www.w3.org/2000/svg">
<g clip-path="url(#clip0_4218_8525)">
<path d="M174.236 427.211C174.055 427.211 173.874 427.26 173.677 427.277C173.48 427.293 173.3 427.277 173.119 427.293C172.938 427.309 172.758 427.342 172.577 427.358C172.396 427.375 172.199 427.358 172.019 427.375C171.838 427.391 171.641 427.424 171.46 427.44C171.28 427.456 171.083 427.44 170.902 427.456C170.722 427.473 170.541 427.505 170.344 427.522C170.147 427.538 169.983 427.522 169.786 427.538C169.588 427.554 169.424 427.587 169.227 427.603C169.03 427.62 168.866 427.603 168.669 427.62C168.472 427.636 168.291 427.669 168.111 427.685C167.93 427.701 167.733 427.685 167.552 427.702C167.372 427.718 167.191 427.75 167.01 427.767C166.83 427.783 166.633 427.767 166.452 427.783C166.271 427.8 166.091 427.832 165.894 427.849C165.697 427.865 165.533 427.849 165.336 427.865C165.138 427.881 164.974 427.914 164.794 427.93C164.613 427.947 164.416 427.93 164.235 427.947C164.055 427.963 163.874 427.996 163.677 428.012C163.48 428.028 163.316 428.012 163.119 428.028C162.922 428.045 162.757 428.077 162.56 428.094C162.363 428.11 162.183 428.094 162.002 428.11C161.821 428.126 161.641 428.159 161.46 428.175C161.28 428.192 161.083 428.175 160.902 428.192C160.721 428.208 160.524 428.241 160.344 428.257C160.163 428.274 159.966 428.257 159.785 428.273C159.605 428.29 159.424 428.323 159.227 428.339C159.03 428.355 158.849 428.339 158.669 428.355C158.488 428.372 158.307 428.404 158.127 428.421C157.946 428.437 157.749 428.421 157.568 428.437C157.388 428.453 157.207 428.486 157.01 428.502C156.813 428.519 156.632 428.502 156.452 428.519C156.271 428.535 156.091 428.568 155.894 428.584C155.697 428.6 155.532 428.584 155.335 428.6C155.138 428.617 154.974 428.649 154.777 428.666C154.58 428.682 154.416 428.666 154.219 428.682C154.022 428.698 153.857 428.731 153.677 428.747C153.496 428.764 153.299 428.747 153.118 428.764C152.938 428.78 152.757 428.813 152.577 428.829C152.396 428.846 152.215 428.829 152.018 428.845C151.821 428.862 151.657 428.895 151.46 428.911C151.263 428.927 151.099 428.911 150.902 428.927C150.705 428.944 150.54 428.976 150.343 428.993C150.146 429.009 149.982 428.993 149.785 429.009C149.588 429.025 149.424 429.058 149.227 429.074C149.03 429.091 148.865 429.074 148.668 429.091C148.471 429.107 148.307 429.14 148.11 429.156C147.913 429.172 147.749 429.156 147.552 429.172C147.355 429.189 147.191 429.221 147.01 429.238C146.829 429.254 146.632 429.238 146.452 429.254C146.271 429.27 146.09 429.303 145.893 429.319C145.696 429.336 145.532 429.319 145.335 429.336C145.138 429.352 144.974 429.385 144.793 429.401C144.613 429.417 144.432 429.401 144.235 429.418C144.038 429.434 143.874 429.467 143.677 429.483C143.479 429.499 143.315 429.483 143.118 429.499C142.921 429.516 142.757 429.548 142.56 429.565C142.363 429.581 142.182 429.565 142.002 429.581C141.821 429.597 141.64 429.63 141.46 429.646C141.279 429.663 141.082 429.646 140.901 429.663C140.721 429.679 140.54 429.712 140.343 429.728C140.146 429.744 139.982 429.728 139.785 429.744C139.588 429.761 139.424 429.793 139.243 429.81C139.062 429.826 138.865 429.81 138.685 429.826C138.504 429.842 138.323 429.875 138.126 429.891C137.929 429.908 137.765 429.891 137.568 429.908C137.371 429.924 137.207 429.957 137.01 429.973C136.813 429.99 136.632 429.973 136.451 429.99C136.271 430.006 136.09 430.039 135.91 430.055C135.729 430.071 135.532 430.055 135.351 430.071C135.171 430.088 134.974 430.12 134.793 430.137C134.612 430.153 134.432 430.137 134.235 430.153C134.038 430.169 133.873 430.202 133.676 430.218C133.479 430.235 133.315 430.218 133.118 430.235C132.921 430.251 132.757 430.284 132.56 430.3C132.363 430.316 132.182 430.3 132.001 430.316C131.821 430.333 131.624 430.365 131.443 430.382C131.262 430.398 131.065 430.382 130.885 430.398C130.704 430.414 130.523 430.447 130.343 430.463C130.162 430.48 129.965 430.463 129.785 430.48C129.604 430.496 129.423 430.529 129.243 430.545C129.062 430.562 128.865 430.545 128.684 430.562C100.375 432.555 80.1118 471.975 83.4288 518.586C86.7458 565.213 112.362 601.396 140.688 599.402C140.869 599.402 141.049 599.353 141.246 599.337C141.427 599.337 141.624 599.337 141.805 599.337C141.985 599.337 142.182 599.288 142.363 599.272C142.543 599.272 142.724 599.272 142.921 599.272C143.118 599.272 143.282 599.223 143.479 599.206C143.66 599.206 143.841 599.206 144.038 599.206C144.235 599.206 144.399 599.157 144.58 599.141C144.76 599.141 144.957 599.141 145.138 599.141C145.319 599.141 145.499 599.092 145.68 599.076C145.86 599.076 146.058 599.076 146.238 599.076C146.419 599.076 146.599 599.027 146.78 599.01C146.961 599.01 147.158 599.01 147.338 599.01C147.519 599.01 147.7 598.961 147.897 598.945C148.077 598.945 148.258 598.945 148.455 598.945C148.652 598.945 148.816 598.896 149.013 598.88C149.194 598.88 149.391 598.88 149.572 598.88C149.752 598.88 149.933 598.83 150.113 598.814C150.294 598.814 150.491 598.814 150.672 598.814C150.852 598.814 151.033 598.765 151.23 598.749C151.411 598.749 151.591 598.749 151.788 598.749C151.985 598.749 152.15 598.7 152.33 598.683C152.511 598.683 152.708 598.683 152.889 598.683C153.069 598.683 153.25 598.634 153.447 598.618C153.627 598.618 153.808 598.618 154.005 598.618C154.202 598.618 154.366 598.569 154.563 598.553C154.744 598.553 154.941 598.553 155.122 598.553C155.302 598.553 155.483 598.504 155.664 598.487C155.844 598.487 156.041 598.487 156.222 598.487C156.403 598.487 156.6 598.438 156.78 598.422C156.961 598.422 157.142 598.422 157.339 598.422C157.536 598.422 157.7 598.373 157.897 598.357C158.078 598.357 158.275 598.357 158.455 598.357C158.636 598.357 158.816 598.307 159.014 598.291C159.194 598.291 159.375 598.291 159.572 598.291C159.769 598.291 159.949 598.242 160.13 598.226C160.311 598.226 160.508 598.226 160.688 598.226C160.869 598.226 161.05 598.177 161.23 598.16C161.411 598.16 161.608 598.16 161.789 598.16C161.969 598.16 162.15 598.111 162.33 598.095C162.511 598.095 162.708 598.095 162.889 598.095C163.069 598.095 163.25 598.046 163.431 598.03C163.611 598.03 163.808 598.03 163.989 598.03C164.17 598.03 164.35 597.981 164.547 597.964C164.728 597.964 164.925 597.964 165.106 597.964C165.286 597.964 165.467 597.915 165.664 597.899C165.845 597.899 166.025 597.899 166.222 597.899C166.419 597.899 166.583 597.85 166.764 597.834C166.945 597.834 167.142 597.834 167.322 597.834C167.503 597.834 167.684 597.785 167.864 597.768C168.045 597.768 168.242 597.768 168.423 597.768C168.603 597.768 168.784 597.719 168.981 597.703C169.162 597.703 169.359 597.703 169.539 597.703C169.72 597.703 169.9 597.654 170.098 597.637C170.278 597.637 170.475 597.637 170.656 597.637C170.836 597.637 171.034 597.588 171.214 597.572C171.395 597.572 171.592 597.572 171.772 597.572C171.953 597.572 172.134 597.523 172.331 597.507C172.511 597.507 172.708 597.507 172.889 597.507C173.07 597.507 173.25 597.458 173.447 597.441C173.628 597.441 173.809 597.441 174.006 597.441C174.203 597.441 174.383 597.392 174.564 597.376C174.745 597.376 174.942 597.376 175.122 597.376C175.303 597.376 175.484 597.327 175.664 597.311C175.845 597.311 176.042 597.311 176.222 597.311C176.403 597.311 176.584 597.262 176.764 597.245C176.945 597.245 177.126 597.245 177.323 597.245C177.52 597.245 177.684 597.196 177.881 597.18C178.062 597.18 178.259 597.18 178.439 597.18C178.62 597.18 178.801 597.131 178.998 597.114C179.178 597.114 179.359 597.114 179.556 597.114C179.753 597.114 179.917 597.065 180.114 597.049C180.295 597.049 180.475 597.049 180.672 597.049C180.87 597.049 181.034 597 181.214 596.984C181.395 596.984 181.592 596.984 181.773 596.984C181.953 596.984 182.134 596.935 182.315 596.918C182.495 596.918 182.676 596.918 182.873 596.918C183.07 596.918 183.234 596.869 183.431 596.853C183.612 596.853 183.809 596.853 183.989 596.853C184.17 596.853 184.351 596.804 184.531 596.788C184.712 596.788 184.893 596.788 185.09 596.788C185.287 596.788 185.451 596.739 185.648 596.722C185.829 596.722 186.026 596.722 186.206 596.722C214.516 594.728 234.779 555.309 231.462 508.682C228.145 462.055 202.512 425.871 174.203 427.865L174.236 427.211Z" fill="#182C4F"/>
<path d="M635.576 394.754C635.396 394.754 635.215 394.803 635.018 394.819C634.821 394.835 634.64 394.819 634.46 394.835C634.279 394.852 634.098 394.884 633.901 394.901C633.704 394.917 633.524 394.901 633.343 394.917C633.162 394.933 632.982 394.966 632.785 394.982C632.588 394.999 632.423 394.982 632.226 394.999C632.029 395.015 631.865 395.048 631.668 395.064C631.471 395.081 631.307 395.064 631.11 395.081C630.913 395.097 630.749 395.13 630.552 395.146C630.354 395.162 630.174 395.146 629.993 395.162C629.813 395.179 629.632 395.211 629.435 395.228C629.238 395.244 629.074 395.228 628.877 395.244C628.68 395.26 628.515 395.293 628.318 395.309C628.121 395.326 627.941 395.309 627.76 395.326C627.579 395.342 627.399 395.375 627.202 395.391C627.005 395.407 626.84 395.391 626.643 395.407C626.446 395.424 626.282 395.456 626.085 395.473C625.888 395.489 625.707 395.473 625.527 395.489C625.346 395.505 625.165 395.538 624.968 395.554C624.771 395.571 624.591 395.554 624.41 395.571C624.23 395.587 624.049 395.62 623.868 395.636C623.688 395.653 623.491 395.636 623.31 395.653C623.129 395.669 622.949 395.702 622.752 395.718C622.555 395.734 622.374 395.718 622.193 395.734C622.013 395.751 621.832 395.783 621.635 395.8C621.438 395.816 621.274 395.8 621.077 395.816C620.88 395.832 620.715 395.865 620.518 395.881C620.321 395.898 620.157 395.881 619.96 395.898C619.763 395.914 619.582 395.947 619.402 395.963C619.221 395.979 619.024 395.963 618.844 395.979C618.663 395.996 618.482 396.028 618.285 396.045C618.088 396.061 617.924 396.045 617.727 396.061C617.53 396.077 617.366 396.11 617.169 396.126C616.972 396.143 616.791 396.126 616.61 396.143C616.43 396.159 616.249 396.192 616.052 396.208C615.855 396.225 615.691 396.208 615.494 396.225C615.297 396.241 615.132 396.274 614.935 396.29C614.738 396.306 614.574 396.29 614.377 396.306C614.18 396.323 613.999 396.355 613.819 396.372C613.638 396.388 613.457 396.372 613.26 396.388C613.063 396.404 612.899 396.437 612.702 396.453C612.505 396.47 612.341 396.453 612.144 396.47C611.947 396.486 611.766 396.519 611.586 396.535C611.405 396.551 611.224 396.535 611.027 396.551C610.83 396.568 610.666 396.6 610.469 396.617C610.272 396.633 610.108 396.617 609.911 396.633C609.714 396.649 609.549 396.682 609.352 396.698C609.155 396.715 608.975 396.698 608.794 396.715C608.613 396.731 608.416 396.764 608.236 396.78C608.055 396.797 607.874 396.78 607.677 396.797C607.48 396.813 607.316 396.846 607.119 396.862C606.922 396.878 606.741 396.862 606.561 396.878C606.38 396.895 606.183 396.927 606.002 396.944C605.822 396.96 605.641 396.944 605.444 396.96C605.247 396.976 605.083 397.009 604.886 397.025C604.689 397.042 604.525 397.025 604.328 397.042C604.131 397.058 603.95 397.091 603.769 397.107C603.589 397.123 603.392 397.107 603.211 397.123C603.03 397.14 602.85 397.172 602.669 397.189C602.488 397.205 602.291 397.189 602.111 397.205C601.93 397.221 601.75 397.254 601.569 397.27C601.388 397.287 601.191 397.27 601.011 397.287C600.83 397.303 600.633 397.336 600.452 397.352C600.272 397.369 600.091 397.352 599.894 397.369C599.697 397.385 599.533 397.418 599.336 397.434C599.139 397.45 598.974 397.434 598.777 397.45C598.58 397.467 598.4 397.499 598.219 397.516C598.038 397.532 597.858 397.516 597.661 397.532C597.464 397.548 597.299 397.581 597.119 397.597C596.938 397.614 596.741 397.597 596.561 397.614C596.38 397.63 596.199 397.663 596.019 397.679C595.838 397.695 595.641 397.679 595.46 397.695C595.28 397.712 595.099 397.744 594.918 397.761C594.738 397.777 594.557 397.761 594.36 397.777C594.163 397.793 593.983 397.826 593.802 397.843C593.621 397.859 593.441 397.843 593.244 397.859C593.047 397.875 592.882 397.908 592.702 397.924C592.521 397.941 592.34 397.924 592.143 397.941C591.946 397.957 591.782 397.99 591.585 398.006C591.388 398.022 591.224 398.006 591.027 398.022C590.83 398.039 590.649 398.071 590.485 398.088C590.321 398.104 590.107 398.088 589.927 398.104C561.617 400.098 541.354 439.518 544.671 486.128C547.988 532.755 573.621 568.939 601.93 566.945C602.111 566.945 602.308 566.896 602.488 566.88C602.669 566.88 602.85 566.88 603.047 566.88C603.244 566.88 603.408 566.831 603.589 566.814C603.769 566.814 603.966 566.814 604.147 566.814C604.328 566.814 604.508 566.765 604.705 566.749C604.886 566.749 605.066 566.749 605.264 566.749C605.461 566.749 605.625 566.7 605.822 566.683C606.002 566.683 606.2 566.683 606.38 566.683C606.561 566.683 606.741 566.634 606.922 566.618C607.103 566.618 607.3 566.618 607.48 566.618C607.661 566.618 607.858 566.569 608.039 566.553C608.219 566.553 608.4 566.553 608.597 566.553C608.794 566.553 608.958 566.504 609.155 566.487C609.336 566.487 609.517 566.487 609.714 566.487C609.911 566.487 610.075 566.438 610.272 566.422C610.453 566.422 610.65 566.422 610.83 566.422C611.011 566.422 611.191 566.373 611.372 566.357C611.553 566.357 611.75 566.357 611.93 566.357C612.111 566.357 612.292 566.308 612.472 566.291C612.653 566.291 612.85 566.291 613.031 566.291C613.211 566.291 613.392 566.242 613.589 566.226C613.77 566.226 613.95 566.226 614.147 566.226C614.344 566.226 614.508 566.177 614.705 566.16C614.886 566.16 615.083 566.16 615.264 566.16C615.444 566.16 615.642 566.111 615.822 566.095C616.003 566.095 616.183 566.095 616.38 566.095C616.577 566.095 616.742 566.046 616.922 566.03C617.103 566.03 617.284 566.03 617.481 566.03C617.678 566.03 617.842 565.981 618.022 565.964C618.203 565.964 618.4 565.964 618.581 565.964C618.761 565.964 618.942 565.915 619.139 565.899C619.32 565.899 619.5 565.899 619.697 565.899C619.894 565.899 620.059 565.85 620.239 565.834C620.42 565.834 620.617 565.834 620.798 565.834C620.978 565.834 621.159 565.785 621.339 565.768C621.52 565.768 621.717 565.768 621.898 565.768C622.078 565.768 622.259 565.719 622.44 565.703C622.62 565.703 622.801 565.703 622.998 565.703C623.195 565.703 623.376 565.654 623.556 565.637C623.737 565.637 623.934 565.637 624.115 565.637C624.295 565.637 624.476 565.588 624.656 565.572C624.837 565.572 625.018 565.572 625.215 565.572C625.412 565.572 625.576 565.523 625.757 565.507C625.937 565.507 626.134 565.507 626.315 565.507C626.496 565.507 626.676 565.458 626.857 565.441C627.054 565.441 627.235 565.441 627.415 565.441C627.596 565.441 627.776 565.392 627.957 565.376C628.138 565.376 628.318 565.376 628.515 565.376C628.712 565.376 628.877 565.327 629.074 565.311C629.254 565.311 629.451 565.311 629.632 565.311C629.813 565.311 629.993 565.262 630.174 565.245C630.354 565.245 630.552 565.245 630.732 565.245C630.913 565.245 631.11 565.196 631.29 565.18C631.471 565.18 631.668 565.18 631.849 565.18C632.029 565.18 632.21 565.131 632.391 565.115C632.571 565.115 632.768 565.115 632.949 565.115C633.13 565.115 633.31 565.065 633.491 565.049C633.671 565.049 633.868 565.049 634.049 565.049C634.23 565.049 634.427 565 634.607 564.984C634.788 564.984 634.985 564.984 635.166 564.984C635.346 564.984 635.527 564.935 635.708 564.918C635.888 564.918 636.069 564.918 636.266 564.918C636.463 564.918 636.644 564.869 636.824 564.853C637.005 564.853 637.185 564.853 637.383 564.853C637.58 564.853 637.744 564.804 637.941 564.788C638.122 564.788 638.319 564.788 638.499 564.788C638.68 564.788 638.86 564.739 639.041 564.722C639.222 564.722 639.419 564.722 639.599 564.722C639.78 564.722 639.961 564.673 640.158 564.657C640.338 564.657 640.519 564.657 640.716 564.657C640.913 564.657 641.077 564.608 641.258 564.592C641.438 564.592 641.619 564.592 641.816 564.592C642.013 564.592 642.177 564.543 642.374 564.526C642.555 564.526 642.752 564.526 642.933 564.526C643.113 564.526 643.294 564.477 643.475 564.461C643.672 564.461 643.852 564.461 644.033 564.461C644.214 564.461 644.394 564.412 644.575 564.395C644.755 564.395 644.952 564.395 645.133 564.395C645.314 564.395 645.494 564.346 645.691 564.33C645.872 564.33 646.053 564.33 646.25 564.33C646.447 564.33 646.611 564.281 646.808 564.265C646.989 564.265 647.169 564.265 647.366 564.265C675.676 562.271 695.939 522.851 692.638 476.224C689.321 429.597 663.689 393.414 635.379 395.407L635.576 394.754Z" fill="#182C4F"/>
<path d="M692.836 475.57C696.153 522.197 675.873 561.617 647.564 563.611C619.255 565.605 593.622 529.421 590.305 482.794C586.988 436.167 607.251 396.748 635.56 394.77C663.87 392.776 689.503 428.96 692.82 475.587L692.836 475.57Z" fill="#2A406D"/>
<path d="M231.495 508.028C234.812 554.655 214.549 594.075 186.239 596.068C157.93 598.062 132.297 561.879 128.98 515.252C125.663 468.625 145.943 429.205 174.252 427.228C202.562 425.25 228.194 461.417 231.511 508.044L231.495 508.028Z" fill="#2A406D"/>
<path d="M451.861 407.681C451.68 407.681 451.5 407.73 451.303 407.746C451.106 407.763 450.941 407.747 450.744 407.763C450.547 407.779 450.383 407.812 450.186 407.828C449.989 407.845 449.825 407.828 449.628 407.845C449.431 407.861 449.267 407.894 449.069 407.91C448.872 407.926 448.692 407.91 448.511 407.926C448.331 407.943 448.15 407.975 447.953 407.992C447.756 408.008 447.575 407.992 447.395 408.008C447.214 408.024 447.033 408.057 446.836 408.073C446.639 408.09 446.475 408.073 446.278 408.09C446.081 408.106 445.917 408.139 445.72 408.155C445.523 408.171 445.342 408.155 445.161 408.171C444.981 408.188 444.784 408.22 444.603 408.237C444.422 408.253 444.242 408.237 444.045 408.253C443.848 408.269 443.683 408.302 443.486 408.319C443.289 408.335 443.125 408.319 442.928 408.335C442.731 408.351 442.567 408.384 442.37 408.4C442.173 408.417 441.992 408.4 441.812 408.417C441.631 408.433 441.434 408.466 441.253 408.482C441.073 408.498 440.892 408.482 440.695 408.498C440.498 408.515 440.334 408.547 440.137 408.564C439.94 408.58 439.759 408.564 439.578 408.58C439.398 408.596 439.217 408.629 439.02 408.645C438.823 408.662 438.642 408.645 438.462 408.662C438.281 408.678 438.1 408.711 437.903 408.727C437.706 408.743 437.526 408.727 437.345 408.743C437.164 408.76 436.967 408.792 436.787 408.809C436.606 408.825 436.409 408.809 436.228 408.825C436.048 408.841 435.851 408.874 435.67 408.891C435.49 408.907 435.309 408.891 435.112 408.907C434.915 408.923 434.751 408.956 434.554 408.972C434.357 408.989 434.176 408.972 433.995 408.989C433.815 409.005 433.618 409.038 433.437 409.054C433.256 409.07 433.076 409.054 432.879 409.07C432.682 409.087 432.517 409.119 432.32 409.136C432.123 409.152 431.943 409.136 431.762 409.152C431.581 409.168 431.401 409.201 431.204 409.217C431.007 409.234 430.826 409.217 430.645 409.234C430.465 409.25 430.284 409.283 430.087 409.299C429.89 409.315 429.726 409.299 429.529 409.315C429.332 409.332 429.151 409.364 428.971 409.381C428.79 409.397 428.593 409.381 428.412 409.397C428.232 409.414 428.051 409.446 427.87 409.463C427.69 409.479 427.509 409.463 427.312 409.479C427.115 409.495 426.951 409.528 426.754 409.544C426.557 409.561 426.376 409.544 426.195 409.561C426.015 409.577 425.818 409.61 425.637 409.626C425.456 409.642 425.259 409.626 425.079 409.642C424.898 409.659 424.718 409.691 424.537 409.708C424.356 409.724 424.176 409.708 423.979 409.724C423.782 409.74 423.601 409.773 423.42 409.789C423.24 409.806 423.043 409.789 422.862 409.806C422.681 409.822 422.501 409.855 422.304 409.871C422.107 409.887 421.926 409.871 421.745 409.887C421.565 409.904 421.384 409.936 421.187 409.953C420.99 409.969 420.826 409.953 420.629 409.969C420.432 409.986 420.268 410.018 420.087 410.035C419.906 410.051 419.709 410.035 419.529 410.051C419.348 410.067 419.167 410.1 418.987 410.116C418.806 410.133 418.625 410.116 418.428 410.133C418.231 410.149 418.067 410.182 417.87 410.198C417.673 410.214 417.492 410.198 417.312 410.214C417.131 410.231 416.951 410.263 416.77 410.28C416.589 410.296 416.392 410.28 416.212 410.296C416.031 410.312 415.834 410.345 415.653 410.361C415.473 410.378 415.276 410.361 415.095 410.378C414.914 410.394 414.734 410.427 414.537 410.443C414.34 410.459 414.175 410.443 413.978 410.459C413.781 410.476 413.617 410.508 413.42 410.525C413.223 410.541 413.059 410.525 412.862 410.541C412.665 410.558 412.5 410.59 412.32 410.607C412.139 410.623 411.942 410.607 411.762 410.623C411.581 410.639 411.4 410.672 411.22 410.688C411.039 410.705 410.842 410.688 410.661 410.705C410.481 410.721 410.3 410.754 410.119 410.77C409.939 410.786 409.758 410.77 409.561 410.786C409.364 410.803 409.2 410.835 409.019 410.852C408.839 410.868 408.642 410.852 408.461 410.868C408.28 410.884 408.083 410.917 407.903 410.933C407.722 410.95 407.541 410.933 407.344 410.95C407.147 410.966 406.983 410.999 406.786 411.015C406.589 411.031 406.408 411.015 406.228 411.031C377.918 413.025 357.655 452.445 360.956 499.056C364.256 545.666 389.906 581.866 418.215 579.872C418.396 579.872 418.576 579.823 418.757 579.807C418.937 579.807 419.134 579.807 419.315 579.807C419.496 579.807 419.676 579.758 419.857 579.742C420.038 579.742 420.235 579.742 420.415 579.742C420.596 579.742 420.777 579.693 420.957 579.676C421.138 579.676 421.335 579.676 421.515 579.676C421.696 579.676 421.893 579.627 422.074 579.611C422.254 579.611 422.451 579.611 422.632 579.611C422.813 579.611 422.993 579.562 423.19 579.546C423.371 579.546 423.552 579.546 423.749 579.546C423.946 579.546 424.11 579.497 424.307 579.48C424.488 579.48 424.685 579.48 424.865 579.48C425.046 579.48 425.227 579.431 425.407 579.415C425.588 579.415 425.785 579.415 425.965 579.415C426.146 579.415 426.327 579.366 426.507 579.349C426.688 579.349 426.885 579.349 427.066 579.349C427.246 579.349 427.427 579.3 427.624 579.284C427.805 579.284 427.985 579.284 428.182 579.284C428.379 579.284 428.544 579.235 428.724 579.219C428.905 579.219 429.085 579.219 429.283 579.219C429.48 579.219 429.66 579.17 429.841 579.153C430.021 579.153 430.218 579.153 430.399 579.153C430.58 579.153 430.76 579.104 430.941 579.088C431.122 579.088 431.302 579.088 431.499 579.088C431.696 579.088 431.877 579.039 432.058 579.023C432.238 579.023 432.419 579.023 432.616 579.023C432.813 579.023 432.994 578.974 433.174 578.957C433.355 578.957 433.535 578.957 433.733 578.957C433.93 578.957 434.094 578.908 434.274 578.892C434.455 578.892 434.636 578.892 434.833 578.892C435.03 578.892 435.194 578.843 435.391 578.826C435.572 578.826 435.752 578.826 435.949 578.826C436.146 578.826 436.311 578.777 436.491 578.761C436.672 578.761 436.869 578.761 437.049 578.761C437.23 578.761 437.427 578.712 437.608 578.696C437.788 578.696 437.969 578.696 438.166 578.696C438.363 578.696 438.527 578.647 438.724 578.63C438.905 578.63 439.086 578.63 439.283 578.63C439.48 578.63 439.644 578.581 439.825 578.565C440.005 578.565 440.202 578.565 440.383 578.565C440.564 578.565 440.761 578.516 440.941 578.5C441.122 578.5 441.319 578.5 441.5 578.5C441.68 578.5 441.861 578.451 442.041 578.434C442.222 578.434 442.419 578.434 442.6 578.434C442.78 578.434 442.961 578.385 443.142 578.369C443.322 578.369 443.519 578.369 443.7 578.369C443.881 578.369 444.061 578.32 444.258 578.303C444.439 578.303 444.619 578.303 444.817 578.303C445.014 578.303 445.178 578.254 445.358 578.238C445.539 578.238 445.736 578.238 445.917 578.238C446.097 578.238 446.278 578.189 446.475 578.173C446.656 578.173 446.836 578.173 447.033 578.173C447.23 578.173 447.395 578.124 447.575 578.107C447.756 578.107 447.953 578.107 448.133 578.107C448.314 578.107 448.495 578.058 448.692 578.042C448.872 578.042 449.053 578.042 449.25 578.042C449.447 578.042 449.611 577.993 449.792 577.977C449.973 577.977 450.153 577.977 450.35 577.977C450.547 577.977 450.712 577.928 450.892 577.911C451.073 577.911 451.27 577.911 451.451 577.911C451.631 577.911 451.812 577.862 452.009 577.846C452.189 577.846 452.386 577.846 452.567 577.846C452.748 577.846 452.928 577.797 453.109 577.78C453.29 577.78 453.487 577.78 453.667 577.78C453.848 577.78 454.029 577.731 454.226 577.715C454.406 577.715 454.603 577.715 454.784 577.715C454.965 577.715 455.145 577.666 455.326 577.65C455.506 577.65 455.687 577.65 455.884 577.65C456.081 577.65 456.245 577.601 456.426 577.584C456.607 577.584 456.804 577.584 456.984 577.584C457.165 577.584 457.346 577.535 457.526 577.519C457.707 577.519 457.887 577.519 458.084 577.519C458.282 577.519 458.446 577.47 458.626 577.454C458.807 577.454 459.004 577.454 459.185 577.454C459.365 577.454 459.546 577.405 459.743 577.388C459.924 577.388 460.121 577.388 460.301 577.388C460.482 577.388 460.663 577.339 460.86 577.323C461.04 577.323 461.221 577.323 461.418 577.323C461.615 577.323 461.779 577.274 461.96 577.257C462.14 577.257 462.337 577.257 462.518 577.257C462.699 577.257 462.879 577.208 463.06 577.192C463.241 577.192 463.438 577.192 463.618 577.192C491.928 575.198 512.191 535.779 508.89 489.152C505.59 442.525 479.94 406.341 451.631 408.335L451.861 407.681Z" fill="#182C4F"/>
<path d="M30.9156 543.934C20.981 544.506 12.5572 536.792 12.278 526.904C11.2599 492.241 12.3273 418.206 27.8613 400.98C48.1409 378.443 150.721 339.922 159.03 331.865C167.339 323.792 220.247 221.386 293.418 182.881C364.01 145.733 521.059 117.476 810.606 145.08C824.53 146.403 831.444 162.583 822.741 173.484C762.673 248.695 588.351 466.843 584.558 469.36C579.993 472.4 523.817 509.711 521.732 509.172C519.646 508.633 150.754 533.229 146.813 535.55C143.775 537.331 66.3844 541.924 30.9156 543.95V543.934Z" fill="#003A84"/>
<path d="M375.292 494.741C373.288 495.558 364.914 421.229 376.047 399.395C394.061 364.094 471.123 322.599 470.581 324.691C470.039 326.766 508.595 185.888 596.775 156.552C684.954 127.216 810.474 142.203 843.677 147.351C876.864 152.499 953.828 244.413 974.748 288.539C995.651 332.666 1007.87 398.512 1006.37 425.838C1004.9 453.164 844.301 483.513 841.625 484.396C838.948 485.262 411.894 509.172 409.118 508.698C406.343 508.208 375.308 494.741 375.308 494.741H375.292Z" fill="#003166"/>
<path d="M861.707 498.173L519.745 522.23L515.098 489.429L859.868 465.176L865.615 488.383L861.707 498.173Z" fill="#C6C6C6"/>
<path d="M519.745 522.23C521.879 511.395 522.668 499.726 521.814 487.599C518.152 435.987 486.345 396.176 450.761 398.676C415.177 401.177 389.315 445.058 392.993 496.67C393.847 508.796 396.277 520.236 399.923 530.663L519.745 522.23Z" fill="#0F1E33"/>
<path d="M649.583 341.589C642.276 344.221 645.33 352.311 649.452 352.49C653.574 352.654 677.679 351.869 683.509 350.546C689.338 349.222 688.336 341.589 683.673 340.102C679.009 338.615 655.807 339.334 649.583 341.589Z" fill="#FFCE00"/>
<path d="M499.318 318.578C502.537 322.288 674.002 306.746 679.372 305.455C684.758 304.164 668.288 175.102 665.677 170.297C663.049 165.492 622.622 161.08 568.679 197.541C515.673 233.365 491.863 310.031 499.318 318.578Z" fill="#D1D8F9"/>
<path d="M520.173 251.539C508.087 272.164 500.878 292.511 498.694 305.471C510.55 280.728 544.048 233.921 638.698 168.107C631.062 169.219 622.031 171.359 611.915 175.053C590.306 188.471 553.655 214.129 520.156 251.555L520.173 251.539Z" fill="white"/>
<path d="M666.022 307.58L664.232 282.493C663.772 276.103 659.355 270.873 653.526 269.059C655.496 266.297 656.547 262.865 656.301 259.237L654.511 234.15C653.92 225.815 646.58 219.474 638.205 220.062L585.774 223.756C577.399 224.344 571.028 231.649 571.619 239.984L573.409 265.071C573.655 268.438 574.985 271.478 577.054 273.864C570.601 276.005 566.134 282.313 566.627 289.357L568.532 316.16L666.022 307.58Z" fill="#FFCE00"/>
<path d="M665.677 170.297C663.049 165.492 622.622 161.08 568.679 197.541C557.53 205.075 547.677 214.424 539.122 224.573C546.774 216.091 555.379 208.311 564.935 201.839C618.878 165.378 659.306 169.791 661.933 174.595C664.297 178.926 677.877 284.078 676.629 305.847C678.107 305.667 679.06 305.537 679.388 305.455C684.774 304.164 668.304 175.102 665.693 170.297H665.677Z" fill="#003A84"/>
<path d="M690.981 167.159C686.909 169.055 699.011 208.001 701.999 237.271C704.988 266.558 710.9 300.062 711.934 301.794C712.969 303.543 847.668 293.606 853.021 291.874C858.374 290.141 816.78 179.629 811.706 172.275C806.616 164.92 702.459 161.815 690.981 167.159Z" fill="#D1D8F9"/>
<path d="M509.104 488.498C512.421 535.125 492.158 574.545 463.832 576.538C435.523 578.532 409.89 542.349 406.573 495.722C403.256 449.095 423.536 409.675 451.845 407.697C480.154 405.704 505.787 441.887 509.104 488.514V488.498Z" fill="#2A406D"/>
<path d="M493.833 493.205C495.853 521.658 483.488 545.715 466.213 546.925C448.939 548.134 433.29 526.054 431.27 497.601C429.25 469.148 441.615 445.091 458.89 443.881C476.164 442.672 491.813 464.751 493.833 493.205Z" fill="#E2E1E0"/>
<path d="M482.01 492.142C481.255 473.315 472.42 458.377 462.207 458.786C461.189 458.819 460.22 459.015 459.251 459.342C450.614 462.3 444.439 476.633 445.113 493.597C445.359 499.742 446.476 505.478 448.249 510.398C448.249 510.398 448.249 510.409 448.249 510.43C451.32 519.06 456.312 525.155 461.928 526.594C462.913 526.839 463.898 526.953 464.916 526.921C470.433 526.708 475.179 522.099 478.25 514.974C480.943 508.829 482.355 500.804 482.01 492.11V492.142Z" fill="#AAAAAA"/>
<path d="M482.01 492.142C481.419 477.156 475.229 465.209 468.168 465.487C467.478 465.519 466.788 465.666 466.132 465.928C460.154 468.232 455.967 479.64 456.509 493.139C457.051 506.655 462.141 517.67 468.283 519.501C468.956 519.713 469.662 519.811 470.352 519.779C477.413 519.501 482.618 507.129 482.01 492.126V492.142Z" fill="#C6C6C6"/>
<path d="M462.01 481.617L468.364 470.422C468.364 470.422 472.946 473.07 475.803 479.673L465.77 482.549C465.77 482.549 464.473 481.65 461.993 481.617H462.01Z" fill="#E2E1E0"/>
<path d="M466.147 483.137L468.2 486.324L478.43 486.471C478.43 486.471 477.675 482.565 475.852 480.408L466.147 483.154V483.137Z" fill="#E2E1E0"/>
<path d="M467.198 492.714C467.001 487.664 464.916 483.644 462.535 483.742C462.305 483.742 462.075 483.807 461.845 483.889C459.842 484.674 458.43 488.498 458.61 493.041C458.791 497.585 460.499 501.295 462.568 501.916C462.798 501.981 463.027 502.014 463.257 502.014C465.638 501.916 467.379 497.748 467.182 492.698L467.198 492.714Z" fill="#AAAAAA"/>
<path d="M49.6353 482.925C50.1443 490.034 44.7583 496.196 37.6153 496.702C30.4722 497.209 24.2816 491.848 23.7726 484.739C23.2635 477.63 28.6495 471.469 35.7926 470.962C42.9356 470.455 49.1262 475.816 49.6353 482.909V482.925Z" fill="#FFCE00"/>
<path d="M32.4757 487.37C31.9667 480.261 37.3527 474.1 44.4957 473.593C44.5286 473.593 44.545 473.593 44.5778 473.593C42.164 471.763 39.0769 470.749 35.8092 470.978C28.6661 471.485 23.2801 477.646 23.7892 484.756C24.2982 491.865 30.4396 497.176 37.5498 496.719C34.6925 494.545 32.7549 491.227 32.4757 487.37Z" fill="#FFE888"/>
<path d="M349.708 461.826C350.218 468.935 344.832 475.097 337.688 475.603C330.545 476.11 324.355 470.749 323.846 463.64C323.337 456.531 328.723 450.369 335.866 449.863C343.009 449.356 349.199 454.717 349.708 461.81V461.826Z" fill="#FFCE00"/>
<path d="M329.856 466.451C329.347 459.342 334.733 453.181 341.876 452.674C342.976 452.592 344.06 452.674 345.094 452.837C342.615 450.762 339.347 449.618 335.866 449.863C328.723 450.369 323.337 456.531 323.846 463.64C324.273 469.654 328.772 474.41 334.47 475.423C331.859 473.25 330.119 470.079 329.856 466.435V466.451Z" fill="#FFE888"/>
<path d="M521.847 174.742C521.847 174.742 453.668 293.197 450.006 318.644C450.006 318.644 190.607 334.856 185.172 335.232C179.737 335.608 183.579 322.419 190.295 311.061C197.011 299.702 273.187 213.198 295.881 199.502C320.134 184.859 521.847 174.759 521.847 174.759V174.742Z" fill="#D1D8F9"/>
<path d="M366.26 509.842C366.408 513.013 363.961 515.709 360.726 515.938L330.151 518.096C321.218 518.717 41.5068 538.41 30.9975 539.146C20.4882 539.881 15.1843 502.308 30.4228 501.229L358.674 478.137C362.007 477.908 364.881 480.408 365.028 483.677L366.26 509.842Z" fill="#C6C6C6"/>
<path d="M31.605 501.131C30.8661 511.133 34.8892 523.391 40.6529 522.982C50.1769 522.312 304.009 504.449 312.104 503.877L339.855 501.932C342.778 501.72 345.012 499.268 344.88 496.408L344.076 479.166L31.6215 501.148L31.605 501.131Z" fill="#AAAAAA"/>
<path d="M731.36 164.479C730.374 165.378 729.389 166.26 728.42 167.159C717.566 177.292 706.991 187.882 697.434 199.225C696.876 199.878 696.35 200.532 695.809 201.186C696.81 205.958 697.828 210.943 698.781 215.96C700.998 213.574 703.198 211.171 705.431 208.769C710.702 203.065 715.99 197.378 721.458 191.821C726.909 186.281 732.493 180.871 738.223 175.609C739.701 174.252 741.179 172.912 742.673 171.588C742.723 171.539 743.002 171.278 743.133 171.18C743.396 170.935 743.659 170.706 743.938 170.461C744.775 169.725 745.613 169.006 746.45 168.271C747.797 167.11 749.16 165.983 750.523 164.839C744.036 164.626 737.583 164.512 731.409 164.479H731.36Z" fill="white"/>
<path d="M782 194.403C782 194.403 782.05 194.37 782.066 194.338C782.066 194.338 782.066 194.332 782.066 194.321C782.296 194.109 782.542 193.913 782.772 193.7C783.396 193.145 784.02 192.605 784.661 192.05C785.843 191.02 787.025 189.99 788.207 188.977C790.408 187.098 792.641 185.235 794.891 183.388C796.467 182.097 798.06 180.822 799.653 179.563C803.2 176.769 806.812 174.04 810.425 171.327C806.763 169.431 796.5 167.878 783.38 166.734C775.613 173.271 767.993 180.005 760.571 186.918C743.067 203.245 726.827 220.715 711.227 238.856C708.55 241.962 705.907 245.132 703.279 248.286C704.609 259.204 706.202 269.99 707.647 278.93C707.746 278.783 707.828 278.652 707.926 278.505C709.683 275.923 711.49 273.357 713.296 270.807C716.925 265.708 720.652 260.691 724.511 255.755C732.213 245.9 740.292 236.34 748.765 227.122C757.156 217.986 765.924 209.177 775.022 200.728C777.32 198.603 779.636 196.495 781.968 194.403H782Z" fill="white"/>
<path d="M811.706 172.275C806.616 164.92 702.459 161.815 690.981 167.159C690.537 167.372 690.291 168.042 690.209 169.071C714.315 165.541 801.148 168.712 805.778 175.413C810.458 182.195 846.075 276.397 847.52 292.658C850.525 292.331 852.479 292.054 853.021 291.874C858.374 290.141 816.78 179.629 811.706 172.275Z" fill="#003A84"/>
<path d="M189.918 311.077C185.697 318.203 182.61 326.064 182.249 330.836C190.427 326.39 197.75 318.889 204.647 313.251C213.76 305.814 222.923 298.411 232.037 290.975C250.658 275.776 269.673 261.132 288.672 246.423C307.309 231.976 325.865 217.447 344.749 203.294C352.368 197.574 360.037 191.919 367.721 186.281C354.076 187.752 341.3 189.321 330.315 191.004C312.416 204.454 294.518 218.003 277.161 232.123C258.491 247.322 240.099 262.897 221.757 278.472C214.976 284.242 208.292 290.109 201.642 296.009C195.55 303.314 191.297 308.74 189.934 311.061L189.918 311.077Z" fill="white"/>
<path d="M470.154 177.815C452.502 178.975 431.943 180.446 411.204 182.179C393.272 195.76 375.357 209.341 357.426 222.922C317.835 252.928 278.59 283.228 237.801 311.633C227.57 318.758 217.39 325.949 207.718 333.81C221.101 332.977 239.361 331.833 259.903 330.542C276.718 319.984 293.533 309.492 309.789 298.035C351.728 268.47 392.189 236.895 433.076 205.909C444.407 197.329 455.737 188.748 467.067 180.152C468.102 179.368 469.136 178.583 470.187 177.799L470.154 177.815Z" fill="white"/>
<path d="M194.68 315.506C201.396 304.147 277.572 217.643 300.282 203.948C321.744 191.004 481.977 181.59 518.727 179.596C520.484 176.508 521.486 174.775 521.486 174.775C521.486 174.775 319.79 184.875 295.52 199.519C272.826 213.214 196.634 299.718 189.934 311.077C183.218 322.435 179.359 335.641 184.811 335.248C185.057 335.232 185.813 335.183 187.028 335.101C187.438 330.329 190.509 322.55 194.68 315.506Z" fill="#003166"/>
<path d="M713.723 436.02C712.656 425.511 711.539 415.003 710.406 404.51C708.124 383.722 705.693 362.95 703.148 342.178C698.058 300.65 692.524 259.187 686.941 217.725C685.381 206.121 683.854 194.501 682.228 182.914C680.602 171.343 679.01 159.707 676.908 148.201C676.776 147.482 675.676 147.531 675.758 148.283C676.661 158.742 678.024 169.186 679.305 179.613C680.586 190.056 682.015 200.499 683.394 210.926C686.153 231.665 688.895 252.389 691.588 273.144C696.974 314.623 702.163 356.135 706.744 397.728C708.025 409.381 709.273 421.066 710.455 432.735C711.638 444.42 712.508 456.138 713.937 467.775C714.15 469.491 716.761 469.344 716.646 467.579C716.006 457.054 714.758 446.529 713.707 436.02H713.723Z" fill="#003A84"/>
<path d="M494.917 327.975C494.868 327.551 494.178 327.469 494.129 327.926C493.538 333.385 493.538 338.844 493.423 344.335C493.291 349.875 493.193 355.432 493.127 360.972C493.029 372.053 493.094 383.134 493.094 394.214C493.094 397.303 493.094 400.376 493.094 403.448C493.094 405.05 493.094 406.651 493.094 408.253C493.094 408.988 493.094 409.74 493.094 410.476C493.094 410.786 493.127 411.129 493.094 411.456C493.094 411.489 493.094 411.505 493.078 411.522C493.078 411.522 493.078 411.522 493.062 411.522C492.454 411.93 492.635 412.731 493.127 413.156C494.129 414.038 495.541 413.221 495.82 412.077C496.132 410.819 495.935 409.348 495.935 408.04C495.935 406.439 495.935 404.837 495.935 403.236C495.935 397.205 495.935 391.174 495.935 385.144C495.935 372.968 496.05 360.76 495.738 348.584C495.558 341.704 495.672 334.807 494.934 327.959L494.917 327.975Z" fill="#003A84"/>
<path d="M495.754 320.049C495.754 320.049 499.613 325.835 510.369 323.253C522.241 336.343 522.356 336.425 522.356 336.425C522.356 336.425 510.747 341.377 495.754 334.268C495.426 328.237 495.754 320.049 495.754 320.049Z" fill="#003A84"/>
<path d="M563.014 294.276C574.772 299.326 577.744 321.912 572.259 328.466C566.791 335.02 531.766 339.024 520.173 336.049C508.58 333.075 503.653 300.715 512.98 294.619C522.324 288.523 550.288 288.818 563.014 294.276Z" fill="#003A84"/>
<path d="M554.097 296.744C551.454 295.616 548.482 295.747 545.641 295.714C543.128 295.665 540.583 295.633 538.071 295.812C535.657 295.992 533.227 296.499 530.846 296.956C528.399 297.43 525.246 297.676 523.259 299.326C521.88 300.487 521.683 302.856 523.571 303.706C525.887 304.736 528.612 304.393 531.092 304.425C533.621 304.458 535.969 304.703 538.416 304.752C540.846 304.818 543.276 304.801 545.723 304.916C546.445 304.948 545.953 304.916 546.708 304.981C547.266 305.03 547.825 305.063 548.383 305.112C550.206 305.242 551.798 305.308 553.588 304.883C557.316 304 557.414 298.166 554.081 296.728L554.097 296.744Z" fill="#0A77ED"/>
<path d="M566.38 302.758C566.249 302.399 566.035 302.104 565.756 301.843C565.691 301.778 565.625 301.712 565.559 301.647C565.214 301.287 564.755 301.107 564.295 300.993C564.081 300.944 563.868 300.879 563.654 300.83C563.342 300.748 563.112 300.666 562.751 300.715C562.669 300.715 562.571 300.748 562.488 300.748C562.324 300.764 562.176 300.764 562.012 300.764C561.782 300.764 561.569 300.764 561.339 300.846C561.043 300.96 560.797 301.124 560.6 301.369C560.173 301.859 560.091 302.497 560.272 303.118C560.321 303.314 560.387 303.494 560.485 303.673C560.617 303.935 560.748 304.196 560.896 304.441C561.158 304.883 561.569 305.177 562.029 305.406C562.423 305.618 562.85 305.765 563.293 305.814C563.539 305.847 563.868 305.88 564.081 305.863C564.574 305.831 564.952 305.667 565.379 305.422C565.461 305.373 565.543 305.308 565.625 305.259C565.937 305.046 566.167 304.768 566.347 304.425C566.495 304.164 566.561 303.886 566.544 303.608C566.577 303.314 566.544 303.036 566.446 302.742L566.38 302.758Z" fill="#0A77ED"/>
<path d="M30.8166 401.013C19.7326 401.798 10.7997 446.66 12.8359 456.057C14.8721 465.438 56.63 465.846 69.8816 460.208C83.1331 454.57 95.4979 445.908 98.3223 437.115C103.922 419.71 51.8844 399.542 30.8002 401.03L30.8166 401.013Z" fill="#FFD939"/>
<path d="M91.1301 422.112C85.6456 427.767 77.1396 432.931 68.2231 436.723C56.9257 441.528 24.8724 441.936 14.4288 436.135C12.7703 444.878 12.1134 452.706 12.8359 456.057C14.8721 465.438 56.6301 465.846 69.8816 460.208C83.1332 454.57 95.498 445.908 98.3224 437.115C99.9152 432.147 96.8281 426.966 91.1137 422.128L91.1301 422.112Z" fill="#FFE888"/>
<path d="M354.963 381.156C392.189 381.042 395.932 427.473 367.656 442.606C358.526 447.493 322.351 451.824 307.408 447.82C292.465 443.816 278.015 436.461 273.664 427.538C265.076 409.871 332.269 381.205 354.963 381.14V381.156Z" fill="#FFD939"/>
<path d="M365.98 419.138C356.85 424.024 320.675 428.355 305.733 424.351C295.962 421.736 286.389 417.683 279.722 412.699C274.155 417.928 271.479 423.093 273.646 427.571C277.998 436.494 292.448 443.849 307.391 447.853C322.334 451.857 358.509 447.526 367.639 442.639C384.963 433.373 390.267 412.388 383.239 397.516C380.808 406.227 375.028 414.3 365.964 419.154L365.98 419.138Z" fill="#FFE888"/>
<path d="M34.3961 455.044C44.5533 455.044 52.7874 446.849 52.7874 436.739C52.7874 426.63 44.5533 418.435 34.3961 418.435C24.2389 418.435 16.0049 426.63 16.0049 436.739C16.0049 446.849 24.2389 455.044 34.3961 455.044Z" fill="#FFCE00"/>
<path d="M68.4202 450.402C73.6983 450.402 77.977 446.144 77.977 440.891C77.977 435.637 73.6983 431.379 68.4202 431.379C63.142 431.379 58.8633 435.637 58.8633 440.891C58.8633 446.144 63.142 450.402 68.4202 450.402Z" fill="#FFCE00"/>
<path d="M351.908 436.952C364.65 436.952 374.979 426.671 374.979 413.99C374.979 401.308 364.65 391.028 351.908 391.028C339.166 391.028 328.837 401.308 328.837 413.99C328.837 426.671 339.166 436.952 351.908 436.952Z" fill="#FFCE00"/>
<path d="M310.396 437.05C317.017 437.05 322.383 431.708 322.383 425.119C322.383 418.53 317.017 413.189 310.396 413.189C303.776 413.189 298.409 418.53 298.409 425.119C298.409 431.708 303.776 437.05 310.396 437.05Z" fill="#FFCE00"/>
<path opacity="0.1" d="M556.38 585.136C836.758 557.922 1060.48 499.448 1056.08 454.531C1051.68 409.614 820.82 395.262 540.442 422.476C260.064 449.69 36.3404 508.164 40.7416 553.081C45.1428 597.998 276.002 612.35 556.38 585.136Z" fill="#003A84"/>
<path d="M319.236 504.211C319.055 504.211 318.874 504.26 318.677 504.277C318.48 504.293 318.3 504.277 318.119 504.293C317.938 504.309 317.758 504.342 317.577 504.358C317.396 504.375 317.199 504.358 317.019 504.375C316.838 504.391 316.641 504.424 316.46 504.44C316.28 504.456 316.083 504.44 315.902 504.456C315.722 504.473 315.541 504.505 315.344 504.522C315.147 504.538 314.983 504.522 314.786 504.538C314.588 504.554 314.424 504.587 314.227 504.603C314.03 504.62 313.866 504.603 313.669 504.62C313.472 504.636 313.291 504.669 313.111 504.685C312.93 504.701 312.733 504.685 312.552 504.702C312.372 504.718 312.191 504.75 312.01 504.767C311.83 504.783 311.633 504.767 311.452 504.783C311.271 504.8 311.091 504.832 310.894 504.849C310.697 504.865 310.533 504.849 310.336 504.865C310.138 504.881 309.974 504.914 309.794 504.93C309.613 504.947 309.416 504.93 309.235 504.947C309.055 504.963 308.874 504.996 308.677 505.012C308.48 505.028 308.316 505.012 308.119 505.028C307.922 505.045 307.757 505.077 307.56 505.094C307.363 505.11 307.183 505.094 307.002 505.11C306.821 505.126 306.641 505.159 306.46 505.175C306.28 505.192 306.083 505.175 305.902 505.192C305.721 505.208 305.524 505.241 305.344 505.257C305.163 505.274 304.966 505.257 304.785 505.273C304.605 505.29 304.424 505.323 304.227 505.339C304.03 505.355 303.849 505.339 303.669 505.355C303.488 505.372 303.307 505.404 303.127 505.421C302.946 505.437 302.749 505.421 302.568 505.437C302.388 505.453 302.207 505.486 302.01 505.502C301.813 505.519 301.632 505.502 301.452 505.519C301.271 505.535 301.091 505.568 300.894 505.584C300.697 505.6 300.532 505.584 300.335 505.6C300.138 505.617 299.974 505.649 299.777 505.666C299.58 505.682 299.416 505.666 299.219 505.682C299.022 505.698 298.857 505.731 298.677 505.747C298.496 505.764 298.299 505.747 298.118 505.764C297.938 505.78 297.757 505.813 297.577 505.829C297.396 505.846 297.215 505.829 297.018 505.845C296.821 505.862 296.657 505.895 296.46 505.911C296.263 505.927 296.099 505.911 295.902 505.927C295.705 505.944 295.54 505.976 295.343 505.993C295.146 506.009 294.982 505.993 294.785 506.009C294.588 506.025 294.424 506.058 294.227 506.074C294.03 506.091 293.865 506.074 293.668 506.091C293.471 506.107 293.307 506.14 293.11 506.156C292.913 506.172 292.749 506.156 292.552 506.172C292.355 506.189 292.191 506.221 292.01 506.238C291.829 506.254 291.632 506.238 291.452 506.254C291.271 506.27 291.09 506.303 290.893 506.319C290.696 506.336 290.532 506.319 290.335 506.336C290.138 506.352 289.974 506.385 289.793 506.401C289.613 506.417 289.432 506.401 289.235 506.418C289.038 506.434 288.874 506.467 288.677 506.483C288.479 506.499 288.315 506.483 288.118 506.499C287.921 506.516 287.757 506.548 287.56 506.565C287.363 506.581 287.182 506.565 287.002 506.581C286.821 506.597 286.64 506.63 286.46 506.646C286.279 506.663 286.082 506.646 285.901 506.663C285.721 506.679 285.54 506.712 285.343 506.728C285.146 506.744 284.982 506.728 284.785 506.744C284.588 506.761 284.424 506.793 284.243 506.81C284.062 506.826 283.865 506.81 283.685 506.826C283.504 506.842 283.323 506.875 283.126 506.891C282.929 506.908 282.765 506.891 282.568 506.908C282.371 506.924 282.207 506.957 282.01 506.973C281.813 506.99 281.632 506.973 281.451 506.99C281.271 507.006 281.09 507.039 280.91 507.055C280.729 507.071 280.532 507.055 280.351 507.071C280.171 507.088 279.974 507.12 279.793 507.137C279.612 507.153 279.432 507.137 279.235 507.153C279.038 507.169 278.873 507.202 278.676 507.218C278.479 507.235 278.315 507.218 278.118 507.235C277.921 507.251 277.757 507.284 277.56 507.3C277.363 507.316 277.182 507.3 277.001 507.316C276.821 507.333 276.624 507.365 276.443 507.382C276.262 507.398 276.065 507.382 275.885 507.398C275.704 507.414 275.523 507.447 275.343 507.463C275.162 507.48 274.965 507.463 274.785 507.48C274.604 507.496 274.423 507.529 274.243 507.545C274.062 507.562 273.865 507.545 273.684 507.562C245.375 509.555 225.112 548.975 228.429 595.586C231.746 642.213 257.362 678.396 285.688 676.402C285.869 676.402 286.049 676.353 286.246 676.337C286.427 676.337 286.624 676.337 286.805 676.337C286.985 676.337 287.182 676.288 287.363 676.272C287.543 676.272 287.724 676.272 287.921 676.272C288.118 676.272 288.282 676.223 288.479 676.206C288.66 676.206 288.841 676.206 289.038 676.206C289.235 676.206 289.399 676.157 289.58 676.141C289.76 676.141 289.957 676.141 290.138 676.141C290.319 676.141 290.499 676.092 290.68 676.076C290.86 676.076 291.058 676.076 291.238 676.076C291.419 676.076 291.599 676.027 291.78 676.01C291.961 676.01 292.158 676.01 292.338 676.01C292.519 676.01 292.7 675.961 292.897 675.945C293.077 675.945 293.258 675.945 293.455 675.945C293.652 675.945 293.816 675.896 294.013 675.88C294.194 675.88 294.391 675.88 294.572 675.88C294.752 675.88 294.933 675.83 295.113 675.814C295.294 675.814 295.491 675.814 295.672 675.814C295.852 675.814 296.033 675.765 296.23 675.749C296.411 675.749 296.591 675.749 296.788 675.749C296.985 675.749 297.15 675.7 297.33 675.683C297.511 675.683 297.708 675.683 297.889 675.683C298.069 675.683 298.25 675.634 298.447 675.618C298.627 675.618 298.808 675.618 299.005 675.618C299.202 675.618 299.366 675.569 299.563 675.553C299.744 675.553 299.941 675.553 300.122 675.553C300.302 675.553 300.483 675.504 300.664 675.487C300.844 675.487 301.041 675.487 301.222 675.487C301.403 675.487 301.6 675.438 301.78 675.422C301.961 675.422 302.142 675.422 302.339 675.422C302.536 675.422 302.7 675.373 302.897 675.357C303.078 675.357 303.275 675.357 303.455 675.357C303.636 675.357 303.816 675.307 304.014 675.291C304.194 675.291 304.375 675.291 304.572 675.291C304.769 675.291 304.949 675.242 305.13 675.226C305.311 675.226 305.508 675.226 305.688 675.226C305.869 675.226 306.05 675.177 306.23 675.16C306.411 675.16 306.608 675.16 306.789 675.16C306.969 675.16 307.15 675.111 307.33 675.095C307.511 675.095 307.708 675.095 307.889 675.095C308.069 675.095 308.25 675.046 308.431 675.03C308.611 675.03 308.808 675.03 308.989 675.03C309.17 675.03 309.35 674.981 309.547 674.964C309.728 674.964 309.925 674.964 310.106 674.964C310.286 674.964 310.467 674.915 310.664 674.899C310.845 674.899 311.025 674.899 311.222 674.899C311.419 674.899 311.583 674.85 311.764 674.834C311.945 674.834 312.142 674.834 312.322 674.834C312.503 674.834 312.684 674.785 312.864 674.768C313.045 674.768 313.242 674.768 313.423 674.768C313.603 674.768 313.784 674.719 313.981 674.703C314.162 674.703 314.359 674.703 314.539 674.703C314.72 674.703 314.9 674.654 315.098 674.637C315.278 674.637 315.475 674.637 315.656 674.637C315.836 674.637 316.034 674.588 316.214 674.572C316.395 674.572 316.592 674.572 316.772 674.572C316.953 674.572 317.134 674.523 317.331 674.507C317.511 674.507 317.708 674.507 317.889 674.507C318.07 674.507 318.25 674.458 318.447 674.441C318.628 674.441 318.809 674.441 319.006 674.441C319.203 674.441 319.383 674.392 319.564 674.376C319.745 674.376 319.942 674.376 320.122 674.376C320.303 674.376 320.484 674.327 320.664 674.311C320.845 674.311 321.042 674.311 321.222 674.311C321.403 674.311 321.584 674.262 321.764 674.245C321.945 674.245 322.126 674.245 322.323 674.245C322.52 674.245 322.684 674.196 322.881 674.18C323.062 674.18 323.259 674.18 323.439 674.18C323.62 674.18 323.801 674.131 323.998 674.114C324.178 674.114 324.359 674.114 324.556 674.114C324.753 674.114 324.917 674.065 325.114 674.049C325.295 674.049 325.475 674.049 325.672 674.049C325.87 674.049 326.034 674 326.214 673.984C326.395 673.984 326.592 673.984 326.773 673.984C326.953 673.984 327.134 673.935 327.315 673.918C327.495 673.918 327.676 673.918 327.873 673.918C328.07 673.918 328.234 673.869 328.431 673.853C328.612 673.853 328.809 673.853 328.989 673.853C329.17 673.853 329.351 673.804 329.531 673.788C329.712 673.788 329.893 673.788 330.09 673.788C330.287 673.788 330.451 673.739 330.648 673.722C330.829 673.722 331.026 673.722 331.206 673.722C359.516 671.728 379.779 632.309 376.462 585.682C373.145 539.055 347.512 502.871 319.203 504.865L319.236 504.211Z" fill="#182C4F"/>
<path d="M780.576 471.754C780.396 471.754 780.215 471.803 780.018 471.819C779.821 471.835 779.64 471.819 779.46 471.835C779.279 471.852 779.098 471.884 778.901 471.901C778.704 471.917 778.524 471.901 778.343 471.917C778.162 471.933 777.982 471.966 777.785 471.982C777.588 471.999 777.423 471.982 777.226 471.999C777.029 472.015 776.865 472.048 776.668 472.064C776.471 472.081 776.307 472.064 776.11 472.081C775.913 472.097 775.749 472.13 775.552 472.146C775.354 472.162 775.174 472.146 774.993 472.162C774.813 472.179 774.632 472.211 774.435 472.228C774.238 472.244 774.074 472.228 773.877 472.244C773.68 472.26 773.515 472.293 773.318 472.309C773.121 472.326 772.941 472.309 772.76 472.326C772.579 472.342 772.399 472.375 772.202 472.391C772.005 472.407 771.84 472.391 771.643 472.407C771.446 472.424 771.282 472.456 771.085 472.473C770.888 472.489 770.707 472.473 770.527 472.489C770.346 472.505 770.165 472.538 769.968 472.554C769.771 472.571 769.591 472.554 769.41 472.571C769.23 472.587 769.049 472.62 768.868 472.636C768.688 472.653 768.491 472.636 768.31 472.653C768.129 472.669 767.949 472.702 767.752 472.718C767.555 472.734 767.374 472.718 767.193 472.734C767.013 472.751 766.832 472.783 766.635 472.8C766.438 472.816 766.274 472.8 766.077 472.816C765.88 472.832 765.715 472.865 765.518 472.881C765.321 472.898 765.157 472.881 764.96 472.898C764.763 472.914 764.582 472.947 764.402 472.963C764.221 472.979 764.024 472.963 763.844 472.979C763.663 472.996 763.482 473.028 763.285 473.045C763.088 473.061 762.924 473.045 762.727 473.061C762.53 473.077 762.366 473.11 762.169 473.126C761.972 473.143 761.791 473.126 761.61 473.143C761.43 473.159 761.249 473.192 761.052 473.208C760.855 473.225 760.691 473.208 760.494 473.225C760.297 473.241 760.132 473.274 759.935 473.29C759.738 473.306 759.574 473.29 759.377 473.306C759.18 473.323 758.999 473.355 758.819 473.372C758.638 473.388 758.457 473.372 758.26 473.388C758.063 473.404 757.899 473.437 757.702 473.453C757.505 473.47 757.341 473.453 757.144 473.47C756.947 473.486 756.766 473.519 756.586 473.535C756.405 473.551 756.224 473.535 756.027 473.551C755.83 473.568 755.666 473.6 755.469 473.617C755.272 473.633 755.108 473.617 754.911 473.633C754.714 473.649 754.549 473.682 754.352 473.698C754.155 473.715 753.975 473.698 753.794 473.715C753.613 473.731 753.416 473.764 753.236 473.78C753.055 473.797 752.874 473.78 752.677 473.797C752.48 473.813 752.316 473.846 752.119 473.862C751.922 473.878 751.741 473.862 751.561 473.878C751.38 473.895 751.183 473.927 751.002 473.944C750.822 473.96 750.641 473.944 750.444 473.96C750.247 473.976 750.083 474.009 749.886 474.025C749.689 474.042 749.525 474.025 749.328 474.042C749.131 474.058 748.95 474.091 748.769 474.107C748.589 474.123 748.392 474.107 748.211 474.123C748.03 474.14 747.85 474.172 747.669 474.189C747.488 474.205 747.291 474.189 747.111 474.205C746.93 474.221 746.75 474.254 746.569 474.27C746.388 474.287 746.191 474.27 746.011 474.287C745.83 474.303 745.633 474.336 745.452 474.352C745.272 474.369 745.091 474.352 744.894 474.369C744.697 474.385 744.533 474.418 744.336 474.434C744.139 474.45 743.974 474.434 743.777 474.45C743.58 474.467 743.4 474.499 743.219 474.516C743.038 474.532 742.858 474.516 742.661 474.532C742.464 474.548 742.299 474.581 742.119 474.597C741.938 474.614 741.741 474.597 741.561 474.614C741.38 474.63 741.199 474.663 741.019 474.679C740.838 474.695 740.641 474.679 740.46 474.695C740.28 474.712 740.099 474.744 739.918 474.761C739.738 474.777 739.557 474.761 739.36 474.777C739.163 474.793 738.983 474.826 738.802 474.843C738.621 474.859 738.441 474.843 738.244 474.859C738.047 474.875 737.882 474.908 737.702 474.924C737.521 474.941 737.34 474.924 737.143 474.941C736.946 474.957 736.782 474.99 736.585 475.006C736.388 475.022 736.224 475.006 736.027 475.022C735.83 475.039 735.649 475.071 735.485 475.088C735.321 475.104 735.107 475.088 734.927 475.104C706.617 477.098 686.354 516.518 689.671 563.128C692.988 609.755 718.621 645.939 746.93 643.945C747.111 643.945 747.308 643.896 747.488 643.88C747.669 643.88 747.85 643.88 748.047 643.88C748.244 643.88 748.408 643.831 748.589 643.814C748.769 643.814 748.966 643.814 749.147 643.814C749.328 643.814 749.508 643.765 749.705 643.749C749.886 643.749 750.066 643.749 750.264 643.749C750.461 643.749 750.625 643.7 750.822 643.683C751.002 643.683 751.2 643.683 751.38 643.683C751.561 643.683 751.741 643.634 751.922 643.618C752.103 643.618 752.3 643.618 752.48 643.618C752.661 643.618 752.858 643.569 753.039 643.553C753.219 643.553 753.4 643.553 753.597 643.553C753.794 643.553 753.958 643.504 754.155 643.487C754.336 643.487 754.517 643.487 754.714 643.487C754.911 643.487 755.075 643.438 755.272 643.422C755.453 643.422 755.65 643.422 755.83 643.422C756.011 643.422 756.191 643.373 756.372 643.357C756.553 643.357 756.75 643.357 756.93 643.357C757.111 643.357 757.292 643.308 757.472 643.291C757.653 643.291 757.85 643.291 758.031 643.291C758.211 643.291 758.392 643.242 758.589 643.226C758.77 643.226 758.95 643.226 759.147 643.226C759.344 643.226 759.508 643.177 759.705 643.16C759.886 643.16 760.083 643.16 760.264 643.16C760.444 643.16 760.642 643.111 760.822 643.095C761.003 643.095 761.183 643.095 761.38 643.095C761.577 643.095 761.742 643.046 761.922 643.03C762.103 643.03 762.284 643.03 762.481 643.03C762.678 643.03 762.842 642.981 763.022 642.964C763.203 642.964 763.4 642.964 763.581 642.964C763.761 642.964 763.942 642.915 764.139 642.899C764.32 642.899 764.5 642.899 764.697 642.899C764.894 642.899 765.059 642.85 765.239 642.834C765.42 642.834 765.617 642.834 765.798 642.834C765.978 642.834 766.159 642.785 766.339 642.768C766.52 642.768 766.717 642.768 766.898 642.768C767.078 642.768 767.259 642.719 767.44 642.703C767.62 642.703 767.801 642.703 767.998 642.703C768.195 642.703 768.376 642.654 768.556 642.637C768.737 642.637 768.934 642.637 769.115 642.637C769.295 642.637 769.476 642.588 769.656 642.572C769.837 642.572 770.018 642.572 770.215 642.572C770.412 642.572 770.576 642.523 770.757 642.507C770.937 642.507 771.134 642.507 771.315 642.507C771.496 642.507 771.676 642.458 771.857 642.441C772.054 642.441 772.235 642.441 772.415 642.441C772.596 642.441 772.776 642.392 772.957 642.376C773.138 642.376 773.318 642.376 773.515 642.376C773.712 642.376 773.877 642.327 774.074 642.311C774.254 642.311 774.451 642.311 774.632 642.311C774.813 642.311 774.993 642.262 775.174 642.245C775.354 642.245 775.552 642.245 775.732 642.245C775.913 642.245 776.11 642.196 776.29 642.18C776.471 642.18 776.668 642.18 776.849 642.18C777.029 642.18 777.21 642.131 777.391 642.115C777.571 642.115 777.768 642.115 777.949 642.115C778.13 642.115 778.31 642.065 778.491 642.049C778.671 642.049 778.868 642.049 779.049 642.049C779.23 642.049 779.427 642 779.607 641.984C779.788 641.984 779.985 641.984 780.166 641.984C780.346 641.984 780.527 641.935 780.708 641.918C780.888 641.918 781.069 641.918 781.266 641.918C781.463 641.918 781.644 641.869 781.824 641.853C782.005 641.853 782.185 641.853 782.383 641.853C782.58 641.853 782.744 641.804 782.941 641.788C783.122 641.788 783.319 641.788 783.499 641.788C783.68 641.788 783.86 641.739 784.041 641.722C784.222 641.722 784.419 641.722 784.599 641.722C784.78 641.722 784.961 641.673 785.158 641.657C785.338 641.657 785.519 641.657 785.716 641.657C785.913 641.657 786.077 641.608 786.258 641.592C786.438 641.592 786.619 641.592 786.816 641.592C787.013 641.592 787.177 641.543 787.374 641.526C787.555 641.526 787.752 641.526 787.933 641.526C788.113 641.526 788.294 641.477 788.475 641.461C788.672 641.461 788.852 641.461 789.033 641.461C789.214 641.461 789.394 641.412 789.575 641.395C789.755 641.395 789.952 641.395 790.133 641.395C790.314 641.395 790.494 641.346 790.691 641.33C790.872 641.33 791.053 641.33 791.25 641.33C791.447 641.33 791.611 641.281 791.808 641.265C791.989 641.265 792.169 641.265 792.366 641.265C820.676 639.271 840.939 599.851 837.638 553.224C834.321 506.597 808.689 470.414 780.379 472.407L780.576 471.754Z" fill="#182C4F"/>
<path d="M376.495 585.028C379.812 631.655 359.549 671.075 331.239 673.068C302.93 675.062 277.297 638.879 273.98 592.252C270.663 545.625 290.943 506.205 319.252 504.228C347.562 502.25 373.194 538.417 376.511 585.044L376.495 585.028Z" fill="#2A406D"/>
<path d="M596.861 484.681C596.68 484.681 596.5 484.73 596.303 484.746C596.106 484.763 595.941 484.747 595.744 484.763C595.547 484.779 595.383 484.812 595.186 484.828C594.989 484.845 594.825 484.828 594.628 484.845C594.431 484.861 594.267 484.894 594.069 484.91C593.872 484.926 593.692 484.91 593.511 484.926C593.331 484.943 593.15 484.975 592.953 484.992C592.756 485.008 592.575 484.992 592.395 485.008C592.214 485.024 592.033 485.057 591.836 485.073C591.639 485.09 591.475 485.073 591.278 485.09C591.081 485.106 590.917 485.139 590.72 485.155C590.523 485.171 590.342 485.155 590.161 485.171C589.981 485.188 589.784 485.22 589.603 485.237C589.422 485.253 589.242 485.237 589.045 485.253C588.848 485.269 588.683 485.302 588.486 485.319C588.289 485.335 588.125 485.319 587.928 485.335C587.731 485.351 587.567 485.384 587.37 485.4C587.173 485.417 586.992 485.4 586.812 485.417C586.631 485.433 586.434 485.466 586.253 485.482C586.073 485.498 585.892 485.482 585.695 485.498C585.498 485.515 585.334 485.547 585.137 485.564C584.94 485.58 584.759 485.564 584.578 485.58C584.398 485.596 584.217 485.629 584.02 485.645C583.823 485.662 583.642 485.645 583.462 485.662C583.281 485.678 583.1 485.711 582.903 485.727C582.706 485.743 582.526 485.727 582.345 485.743C582.164 485.76 581.967 485.792 581.787 485.809C581.606 485.825 581.409 485.809 581.228 485.825C581.048 485.841 580.851 485.874 580.67 485.891C580.49 485.907 580.309 485.891 580.112 485.907C579.915 485.923 579.751 485.956 579.554 485.972C579.357 485.989 579.176 485.972 578.995 485.989C578.815 486.005 578.618 486.038 578.437 486.054C578.256 486.07 578.076 486.054 577.879 486.07C577.682 486.087 577.517 486.119 577.32 486.136C577.123 486.152 576.943 486.136 576.762 486.152C576.581 486.168 576.401 486.201 576.204 486.217C576.007 486.234 575.826 486.217 575.645 486.234C575.465 486.25 575.284 486.283 575.087 486.299C574.89 486.315 574.726 486.299 574.529 486.315C574.332 486.332 574.151 486.364 573.971 486.381C573.79 486.397 573.593 486.381 573.412 486.397C573.232 486.414 573.051 486.446 572.87 486.463C572.69 486.479 572.509 486.463 572.312 486.479C572.115 486.495 571.951 486.528 571.754 486.544C571.557 486.561 571.376 486.544 571.195 486.561C571.015 486.577 570.818 486.61 570.637 486.626C570.456 486.642 570.259 486.626 570.079 486.642C569.898 486.659 569.718 486.691 569.537 486.708C569.356 486.724 569.176 486.708 568.979 486.724C568.782 486.74 568.601 486.773 568.42 486.789C568.24 486.806 568.043 486.789 567.862 486.806C567.681 486.822 567.501 486.855 567.304 486.871C567.107 486.887 566.926 486.871 566.745 486.887C566.565 486.904 566.384 486.936 566.187 486.953C565.99 486.969 565.826 486.953 565.629 486.969C565.432 486.986 565.268 487.018 565.087 487.035C564.906 487.051 564.709 487.035 564.529 487.051C564.348 487.067 564.167 487.1 563.987 487.116C563.806 487.133 563.625 487.116 563.428 487.133C563.231 487.149 563.067 487.182 562.87 487.198C562.673 487.214 562.492 487.198 562.312 487.214C562.131 487.231 561.951 487.263 561.77 487.28C561.589 487.296 561.392 487.28 561.212 487.296C561.031 487.312 560.834 487.345 560.653 487.361C560.473 487.378 560.276 487.361 560.095 487.378C559.914 487.394 559.734 487.427 559.537 487.443C559.34 487.459 559.175 487.443 558.978 487.459C558.781 487.476 558.617 487.508 558.42 487.525C558.223 487.541 558.059 487.525 557.862 487.541C557.665 487.558 557.5 487.59 557.32 487.607C557.139 487.623 556.942 487.607 556.762 487.623C556.581 487.639 556.4 487.672 556.22 487.688C556.039 487.705 555.842 487.688 555.661 487.705C555.481 487.721 555.3 487.754 555.119 487.77C554.939 487.786 554.758 487.77 554.561 487.786C554.364 487.803 554.2 487.835 554.019 487.852C553.839 487.868 553.642 487.852 553.461 487.868C553.28 487.884 553.083 487.917 552.903 487.933C552.722 487.95 552.541 487.933 552.344 487.95C552.147 487.966 551.983 487.999 551.786 488.015C551.589 488.031 551.408 488.015 551.228 488.031C522.918 490.025 502.655 529.445 505.956 576.056C509.256 622.666 534.906 658.866 563.215 656.872C563.396 656.872 563.576 656.823 563.757 656.807C563.937 656.807 564.134 656.807 564.315 656.807C564.496 656.807 564.676 656.758 564.857 656.742C565.038 656.742 565.235 656.742 565.415 656.742C565.596 656.742 565.777 656.693 565.957 656.676C566.138 656.676 566.335 656.676 566.515 656.676C566.696 656.676 566.893 656.627 567.074 656.611C567.254 656.611 567.451 656.611 567.632 656.611C567.813 656.611 567.993 656.562 568.19 656.546C568.371 656.546 568.552 656.546 568.749 656.546C568.946 656.546 569.11 656.497 569.307 656.48C569.488 656.48 569.685 656.48 569.865 656.48C570.046 656.48 570.227 656.431 570.407 656.415C570.588 656.415 570.785 656.415 570.965 656.415C571.146 656.415 571.327 656.366 571.507 656.349C571.688 656.349 571.885 656.349 572.066 656.349C572.246 656.349 572.427 656.3 572.624 656.284C572.805 656.284 572.985 656.284 573.182 656.284C573.379 656.284 573.544 656.235 573.724 656.219C573.905 656.219 574.085 656.219 574.283 656.219C574.48 656.219 574.66 656.17 574.841 656.153C575.021 656.153 575.218 656.153 575.399 656.153C575.58 656.153 575.76 656.104 575.941 656.088C576.122 656.088 576.302 656.088 576.499 656.088C576.696 656.088 576.877 656.039 577.058 656.023C577.238 656.023 577.419 656.023 577.616 656.023C577.813 656.023 577.994 655.974 578.174 655.957C578.355 655.957 578.535 655.957 578.733 655.957C578.93 655.957 579.094 655.908 579.274 655.892C579.455 655.892 579.636 655.892 579.833 655.892C580.03 655.892 580.194 655.843 580.391 655.826C580.572 655.826 580.752 655.826 580.949 655.826C581.146 655.826 581.311 655.777 581.491 655.761C581.672 655.761 581.869 655.761 582.049 655.761C582.23 655.761 582.427 655.712 582.608 655.696C582.788 655.696 582.969 655.696 583.166 655.696C583.363 655.696 583.527 655.647 583.724 655.63C583.905 655.63 584.086 655.63 584.283 655.63C584.48 655.63 584.644 655.581 584.825 655.565C585.005 655.565 585.202 655.565 585.383 655.565C585.564 655.565 585.761 655.516 585.941 655.5C586.122 655.5 586.319 655.5 586.5 655.5C586.68 655.5 586.861 655.451 587.041 655.434C587.222 655.434 587.419 655.434 587.6 655.434C587.78 655.434 587.961 655.385 588.142 655.369C588.322 655.369 588.519 655.369 588.7 655.369C588.881 655.369 589.061 655.32 589.258 655.303C589.439 655.303 589.619 655.303 589.817 655.303C590.014 655.303 590.178 655.254 590.358 655.238C590.539 655.238 590.736 655.238 590.917 655.238C591.097 655.238 591.278 655.189 591.475 655.173C591.656 655.173 591.836 655.173 592.033 655.173C592.23 655.173 592.395 655.124 592.575 655.107C592.756 655.107 592.953 655.107 593.133 655.107C593.314 655.107 593.495 655.058 593.692 655.042C593.872 655.042 594.053 655.042 594.25 655.042C594.447 655.042 594.611 654.993 594.792 654.977C594.973 654.977 595.153 654.977 595.35 654.977C595.547 654.977 595.712 654.928 595.892 654.911C596.073 654.911 596.27 654.911 596.451 654.911C596.631 654.911 596.812 654.862 597.009 654.846C597.189 654.846 597.386 654.846 597.567 654.846C597.748 654.846 597.928 654.797 598.109 654.78C598.29 654.78 598.487 654.78 598.667 654.78C598.848 654.78 599.029 654.731 599.226 654.715C599.406 654.715 599.603 654.715 599.784 654.715C599.965 654.715 600.145 654.666 600.326 654.65C600.506 654.65 600.687 654.65 600.884 654.65C601.081 654.65 601.245 654.601 601.426 654.584C601.607 654.584 601.804 654.584 601.984 654.584C602.165 654.584 602.346 654.535 602.526 654.519C602.707 654.519 602.887 654.519 603.084 654.519C603.282 654.519 603.446 654.47 603.626 654.454C603.807 654.454 604.004 654.454 604.185 654.454C604.365 654.454 604.546 654.405 604.743 654.388C604.924 654.388 605.121 654.388 605.301 654.388C605.482 654.388 605.663 654.339 605.86 654.323C606.04 654.323 606.221 654.323 606.418 654.323C606.615 654.323 606.779 654.274 606.96 654.257C607.14 654.257 607.337 654.257 607.518 654.257C607.699 654.257 607.879 654.208 608.06 654.192C608.241 654.192 608.438 654.192 608.618 654.192C636.928 652.198 657.191 612.779 653.89 566.152C650.59 519.525 624.94 483.341 596.631 485.335L596.861 484.681Z" fill="#182C4F"/>
<path d="M175.916 620.934C165.981 621.506 157.557 613.792 157.278 603.904C156.26 569.241 157.327 495.206 172.861 477.98C193.141 455.443 295.721 416.922 304.03 408.865C312.339 400.792 365.247 298.386 438.418 259.881C509.01 222.733 666.059 194.476 955.606 222.08C969.53 223.403 976.444 239.583 967.741 250.484C907.673 325.695 733.351 543.843 729.558 546.36C724.993 549.4 668.817 586.711 666.732 586.172C664.646 585.633 295.754 610.229 291.813 612.55C288.775 614.331 211.384 618.924 175.916 620.95V620.934Z" fill="#FFCE00"/>
<path d="M520.292 571.741C518.288 572.558 509.914 498.229 521.047 476.395C539.061 441.094 616.123 399.599 615.581 401.691C615.039 403.766 653.595 262.888 741.775 233.552C829.954 204.216 955.474 219.203 988.677 224.351C1021.86 229.499 1098.83 321.413 1119.75 365.539C1140.65 409.666 1152.87 475.512 1151.37 502.838C1149.9 530.164 989.301 560.513 986.625 561.396C983.948 562.262 556.894 586.172 554.118 585.698C551.343 585.208 520.308 571.741 520.308 571.741H520.292Z" fill="#EABD00"/>
<path d="M1006.71 575.173L664.745 599.23L660.098 566.429L1004.87 542.176L1010.62 565.383L1006.71 575.173Z" fill="#C6C6C6"/>
<path d="M664.745 599.23C666.879 588.395 667.668 576.726 666.814 564.599C663.152 512.987 631.345 473.176 595.761 475.676C560.177 478.177 534.315 522.058 537.993 573.67C538.847 585.796 541.277 597.236 544.923 607.663L664.745 599.23Z" fill="#0F1E33"/>
<path d="M644.318 395.578C647.537 399.288 819.002 383.746 824.372 382.455C829.758 381.164 813.288 252.102 810.677 247.297C808.049 242.492 767.622 238.08 713.679 274.541C660.673 310.365 636.863 387.031 644.318 395.578Z" fill="#D1D8F9"/>
<path d="M665.173 328.539C653.087 349.164 645.878 369.511 643.694 382.471C655.55 357.728 689.048 310.921 783.698 245.107C776.062 246.219 767.031 248.359 756.915 252.053C735.306 265.471 698.655 291.129 665.156 328.555L665.173 328.539Z" fill="white"/>
<path d="M811.022 384.58L809.232 359.493C808.772 353.103 804.355 347.873 798.526 346.059C800.496 343.297 801.547 339.865 801.301 336.237L799.511 311.15C798.92 302.815 791.58 296.474 783.205 297.062L730.774 300.756C722.399 301.344 716.028 308.649 716.619 316.984L718.409 342.071C718.655 345.438 719.985 348.478 722.054 350.864C715.601 353.005 711.134 359.313 711.627 366.357L713.532 393.16L811.022 384.58Z" fill="#003A84"/>
<path d="M810.677 247.297C808.049 242.492 767.622 238.08 713.679 274.541C702.53 282.075 692.677 291.424 684.122 301.573C691.774 293.091 700.379 285.311 709.935 278.839C763.878 242.378 804.306 246.791 806.933 251.595C809.297 255.926 822.877 361.078 821.629 382.847C823.107 382.667 824.06 382.537 824.388 382.455C829.774 381.164 813.304 252.102 810.693 247.297H810.677Z" fill="#FFCE00"/>
<path d="M654.104 565.498C657.421 612.125 637.158 651.545 608.832 653.538C580.523 655.532 554.89 619.349 551.573 572.722C548.256 526.095 568.536 486.675 596.845 484.697C625.154 482.704 650.787 518.887 654.104 565.514V565.498Z" fill="#2A406D"/>
<path d="M638.833 570.205C640.853 598.658 628.488 622.715 611.213 623.925C593.939 625.134 578.29 603.054 576.27 574.601C574.25 546.148 586.615 522.091 603.89 520.881C621.164 519.672 636.813 541.751 638.833 570.205Z" fill="#E2E1E0"/>
<path d="M627.01 569.142C626.255 550.315 617.42 535.377 607.207 535.786C606.189 535.819 605.22 536.015 604.251 536.342C595.614 539.3 589.439 553.633 590.113 570.597C590.359 576.742 591.476 582.478 593.249 587.398C593.249 587.398 593.249 587.409 593.249 587.43C596.32 596.06 601.312 602.155 606.928 603.594C607.913 603.839 608.898 603.953 609.916 603.921C615.433 603.708 620.179 599.099 623.25 591.974C625.943 585.829 627.355 577.804 627.01 569.11V569.142Z" fill="#AAAAAA"/>
<path d="M627.01 569.142C626.419 554.156 620.229 542.209 613.168 542.487C612.478 542.519 611.788 542.666 611.132 542.928C605.154 545.232 600.967 556.64 601.509 570.139C602.051 583.655 607.141 594.67 613.283 596.501C613.956 596.713 614.662 596.811 615.352 596.779C622.413 596.501 627.618 584.129 627.01 569.126V569.142Z" fill="#C6C6C6"/>
<path d="M607.01 558.617L613.364 547.422C613.364 547.422 617.946 550.07 620.803 556.673L610.77 559.549C610.77 559.549 609.473 558.65 606.993 558.617H607.01Z" fill="#E2E1E0"/>
<path d="M611.147 560.137L613.2 563.324L623.43 563.471C623.43 563.471 622.675 559.565 620.852 557.408L611.147 560.154V560.137Z" fill="#E2E1E0"/>
<path d="M612.198 569.714C612.001 564.664 609.916 560.644 607.535 560.742C607.305 560.742 607.075 560.807 606.845 560.889C604.842 561.674 603.43 565.498 603.61 570.041C603.791 574.585 605.499 578.295 607.568 578.916C607.798 578.981 608.027 579.014 608.257 579.014C610.638 578.916 612.379 574.748 612.182 569.698L612.198 569.714Z" fill="#AAAAAA"/>
<path d="M194.635 559.925C195.144 567.034 189.758 573.196 182.615 573.702C175.472 574.209 169.282 568.848 168.773 561.739C168.264 554.63 173.65 548.469 180.793 547.962C187.936 547.455 194.126 552.816 194.635 559.909V559.925Z" fill="#003A84"/>
<path d="M177.476 564.37C176.967 557.261 182.353 551.1 189.496 550.593C189.529 550.593 189.545 550.593 189.578 550.593C187.164 548.763 184.077 547.749 180.809 547.978C173.666 548.485 168.28 554.646 168.789 561.756C169.298 568.865 175.44 574.176 182.55 573.719C179.693 571.545 177.755 568.227 177.476 564.37Z" fill="#FFE888"/>
<path d="M494.708 538.826C495.218 545.935 489.832 552.097 482.688 552.603C475.545 553.11 469.355 547.749 468.846 540.64C468.337 533.531 473.723 527.369 480.866 526.863C488.009 526.356 494.199 531.717 494.708 538.81V538.826Z" fill="#003A84"/>
<path d="M474.856 543.451C474.347 536.342 479.733 530.181 486.876 529.674C487.976 529.592 489.06 529.674 490.094 529.837C487.615 527.762 484.347 526.618 480.866 526.863C473.723 527.369 468.337 533.531 468.846 540.64C469.273 546.654 473.772 551.41 479.47 552.423C476.859 550.25 475.119 547.079 474.856 543.435V543.451Z" fill="#FFE888"/>
<path d="M666.847 251.742C666.847 251.742 598.668 370.197 595.006 395.644C595.006 395.644 335.607 411.856 330.172 412.232C324.737 412.608 328.579 399.419 335.295 388.061C342.011 376.702 418.187 290.198 440.881 276.502C465.134 261.859 666.847 251.759 666.847 251.759V251.742Z" fill="#D1D8F9"/>
<path d="M511.26 586.842C511.408 590.013 508.961 592.709 505.726 592.938L475.151 595.096C466.218 595.717 186.507 615.41 175.998 616.146C165.488 616.881 160.184 579.308 175.423 578.229L503.674 555.137C507.007 554.908 509.881 557.408 510.028 560.677L511.26 586.842Z" fill="#C6C6C6"/>
<path d="M176.605 578.131C175.866 588.133 179.889 600.391 185.653 599.982C195.177 599.312 449.009 581.449 457.104 580.877L484.855 578.932C487.778 578.72 490.012 576.268 489.88 573.408L489.076 556.166L176.621 578.148L176.605 578.131Z" fill="#AAAAAA"/>
<path d="M334.918 388.077C330.697 395.203 327.61 403.064 327.249 407.836C335.427 403.39 342.75 395.889 349.647 390.251C358.76 382.814 367.923 375.411 377.037 367.975C395.658 352.776 414.673 338.132 433.672 323.423C452.309 308.976 470.865 294.447 489.749 280.294C497.368 274.574 505.037 268.919 512.721 263.281C499.076 264.752 486.3 266.321 475.315 268.004C457.416 281.454 439.518 295.003 422.161 309.123C403.491 324.322 385.099 339.897 366.757 355.472C359.976 361.242 353.292 367.109 346.642 373.009C340.55 380.314 336.297 385.74 334.934 388.061L334.918 388.077Z" fill="white"/>
<path d="M615.154 254.815C597.502 255.975 576.943 257.446 556.204 259.179C538.272 272.76 520.357 286.341 502.426 299.922C462.835 329.928 423.59 360.228 382.801 388.633C372.57 395.758 362.39 402.949 352.718 410.81C366.101 409.977 384.361 408.833 404.903 407.542C421.718 396.984 438.533 386.492 454.789 375.035C496.728 345.47 537.189 313.895 578.076 282.909C589.407 274.329 600.737 265.748 612.067 257.152C613.102 256.368 614.136 255.583 615.187 254.799L615.154 254.815Z" fill="white"/>
<path d="M339.68 392.506C346.396 381.147 422.572 294.643 445.282 280.948C466.744 268.004 626.977 258.59 663.727 256.596C665.484 253.508 666.486 251.775 666.486 251.775C666.486 251.775 464.79 261.875 440.52 276.519C417.826 290.214 341.634 376.718 334.934 388.077C328.218 399.435 324.359 412.641 329.811 412.248C330.057 412.232 330.813 412.183 332.028 412.101C332.438 407.329 335.509 399.55 339.68 392.506Z" fill="#003166"/>
<path d="M639.917 404.975C639.868 404.551 639.178 404.469 639.129 404.926C638.538 410.385 638.538 415.844 638.423 421.335C638.291 426.875 638.193 432.432 638.127 437.972C638.029 449.053 638.094 460.134 638.094 471.214C638.094 474.303 638.094 477.376 638.094 480.448C638.094 482.05 638.094 483.651 638.094 485.253C638.094 485.988 638.094 486.74 638.094 487.476C638.094 487.786 638.127 488.129 638.094 488.456C638.094 488.489 638.094 488.505 638.078 488.522C638.078 488.522 638.078 488.522 638.062 488.522C637.454 488.93 637.635 489.731 638.127 490.156C639.129 491.038 640.541 490.221 640.82 489.077C641.132 487.819 640.935 486.348 640.935 485.04C640.935 483.439 640.935 481.837 640.935 480.236C640.935 474.205 640.935 468.174 640.935 462.144C640.935 449.968 641.05 437.76 640.738 425.584C640.558 418.704 640.672 411.807 639.934 404.959L639.917 404.975Z" fill="#FFCE00"/>
<path d="M640.754 397.049C640.754 397.049 644.613 402.835 655.369 400.253C667.241 413.343 667.356 413.425 667.356 413.425C667.356 413.425 655.747 418.377 640.754 411.268C640.426 405.237 640.754 397.049 640.754 397.049Z" fill="#FFCE00"/>
<path d="M708.014 371.276C719.772 376.326 722.744 398.912 717.259 405.466C711.791 412.02 676.766 416.024 665.173 413.049C653.58 410.075 648.653 377.715 657.98 371.619C667.324 365.523 695.288 365.818 708.014 371.276Z" fill="#FFCE00"/>
<path d="M699.097 373.744C696.454 372.616 693.482 372.747 690.641 372.714C688.128 372.665 685.583 372.633 683.071 372.812C680.657 372.992 678.227 373.499 675.846 373.956C673.399 374.43 670.246 374.676 668.259 376.326C666.88 377.487 666.683 379.856 668.571 380.706C670.887 381.736 673.612 381.393 676.092 381.425C678.621 381.458 680.969 381.703 683.416 381.752C685.846 381.818 688.276 381.801 690.723 381.916C691.445 381.948 690.953 381.916 691.708 381.981C692.266 382.03 692.825 382.063 693.383 382.112C695.206 382.242 696.798 382.308 698.588 381.883C702.316 381 702.414 375.166 699.081 373.728L699.097 373.744Z" fill="#0A77ED"/>
<path d="M711.38 379.758C711.249 379.399 711.035 379.104 710.756 378.843C710.691 378.778 710.625 378.712 710.559 378.647C710.214 378.287 709.755 378.107 709.295 377.993C709.081 377.944 708.868 377.879 708.654 377.83C708.342 377.748 708.112 377.666 707.751 377.715C707.669 377.715 707.571 377.748 707.488 377.748C707.324 377.764 707.176 377.764 707.012 377.764C706.782 377.764 706.569 377.764 706.339 377.846C706.043 377.96 705.797 378.124 705.6 378.369C705.173 378.859 705.091 379.497 705.272 380.118C705.321 380.314 705.387 380.494 705.485 380.673C705.617 380.935 705.748 381.196 705.896 381.441C706.158 381.883 706.569 382.177 707.029 382.406C707.423 382.618 707.85 382.765 708.293 382.814C708.539 382.847 708.868 382.88 709.081 382.863C709.574 382.831 709.952 382.667 710.379 382.422C710.461 382.373 710.543 382.308 710.625 382.259C710.937 382.046 711.167 381.768 711.347 381.425C711.495 381.164 711.561 380.886 711.544 380.608C711.577 380.314 711.544 380.036 711.446 379.742L711.38 379.758Z" fill="#0A77ED"/>
<path d="M175.817 478.013C164.733 478.798 155.8 523.66 157.836 533.057C159.872 542.438 201.63 542.846 214.882 537.208C228.133 531.57 240.498 522.908 243.322 514.115C248.922 496.71 196.884 476.542 175.8 478.03L175.817 478.013Z" fill="#FFD939"/>
<path d="M236.13 499.112C230.646 504.767 222.14 509.931 213.223 513.723C201.926 518.528 169.872 518.936 159.429 513.135C157.77 521.878 157.113 529.706 157.836 533.057C159.872 542.438 201.63 542.846 214.882 537.208C228.133 531.57 240.498 522.908 243.322 514.115C244.915 509.147 241.828 503.966 236.114 499.128L236.13 499.112Z" fill="#FFE888"/>
<path d="M499.963 458.156C537.189 458.042 540.932 504.473 512.656 519.606C503.526 524.493 467.351 528.824 452.408 524.82C437.465 520.816 423.015 513.461 418.664 504.538C410.076 486.871 477.269 458.205 499.963 458.14V458.156Z" fill="#FFD939"/>
<path d="M510.98 496.138C501.85 501.024 465.675 505.355 450.733 501.351C440.962 498.736 431.389 494.683 424.722 489.699C419.155 494.928 416.479 500.093 418.646 504.571C422.998 513.494 437.448 520.849 452.391 524.853C467.334 528.857 503.509 524.526 512.639 519.639C529.963 510.373 535.267 489.388 528.239 474.516C525.808 483.227 520.028 491.3 510.964 496.154L510.98 496.138Z" fill="#FFE888"/>
<path d="M179.396 532.044C189.553 532.044 197.787 523.849 197.787 513.739C197.787 503.63 189.553 495.435 179.396 495.435C169.239 495.435 161.005 503.63 161.005 513.739C161.005 523.849 169.239 532.044 179.396 532.044Z" fill="#003A84"/>
<path d="M213.42 527.402C218.698 527.402 222.977 523.144 222.977 517.891C222.977 512.637 218.698 508.379 213.42 508.379C208.142 508.379 203.863 512.637 203.863 517.891C203.863 523.144 208.142 527.402 213.42 527.402Z" fill="#003A84"/>
<path d="M496.908 513.952C509.65 513.952 519.979 503.671 519.979 490.99C519.979 478.308 509.65 468.028 496.908 468.028C484.166 468.028 473.837 478.308 473.837 490.99C473.837 503.671 484.166 513.952 496.908 513.952Z" fill="#003A84"/>
<path d="M455.396 514.05C462.017 514.05 467.383 508.708 467.383 502.119C467.383 495.53 462.017 490.189 455.396 490.189C448.776 490.189 443.409 495.53 443.409 502.119C443.409 508.708 448.776 514.05 455.396 514.05Z" fill="#003A84"/>
<path opacity="0.1" d="M701.38 662.136C981.758 634.922 1205.48 576.448 1201.08 531.531C1196.68 486.614 965.82 472.262 685.442 499.476C405.064 526.69 181.34 585.164 185.742 630.081C190.143 674.998 421.002 689.35 701.38 662.136Z" fill="#FFCE00"/>
</g>
<defs>
<clipPath id="clip0_4218_8525">
<rect width="984" height="749" fill="white"/>
</clipPath>
</defs>
</svg>
