<svg width="725" height="749" viewBox="0 0 725 749" fill="none" xmlns="http://www.w3.org/2000/svg">
<g clip-path="url(#clip0_3584_8826)">
<path d="M174.236 427.211C174.055 427.211 173.874 427.26 173.677 427.277C173.48 427.293 173.3 427.277 173.119 427.293C172.938 427.309 172.758 427.342 172.577 427.358C172.396 427.375 172.199 427.358 172.019 427.375C171.838 427.391 171.641 427.424 171.46 427.44C171.28 427.456 171.083 427.44 170.902 427.456C170.722 427.473 170.541 427.505 170.344 427.522C170.147 427.538 169.983 427.522 169.786 427.538C169.588 427.554 169.424 427.587 169.227 427.603C169.03 427.62 168.866 427.603 168.669 427.62C168.472 427.636 168.291 427.669 168.111 427.685C167.93 427.701 167.733 427.685 167.552 427.702C167.372 427.718 167.191 427.75 167.01 427.767C166.83 427.783 166.633 427.767 166.452 427.783C166.271 427.8 166.091 427.832 165.894 427.849C165.697 427.865 165.533 427.849 165.336 427.865C165.138 427.881 164.974 427.914 164.794 427.93C164.613 427.947 164.416 427.93 164.235 427.947C164.055 427.963 163.874 427.996 163.677 428.012C163.48 428.028 163.316 428.012 163.119 428.028C162.922 428.045 162.757 428.077 162.56 428.094C162.363 428.11 162.183 428.094 162.002 428.11C161.821 428.126 161.641 428.159 161.46 428.175C161.28 428.192 161.083 428.175 160.902 428.192C160.721 428.208 160.524 428.241 160.344 428.257C160.163 428.274 159.966 428.257 159.785 428.273C159.605 428.29 159.424 428.323 159.227 428.339C159.03 428.355 158.849 428.339 158.669 428.355C158.488 428.372 158.307 428.404 158.127 428.421C157.946 428.437 157.749 428.421 157.568 428.437C157.388 428.453 157.207 428.486 157.01 428.502C156.813 428.519 156.632 428.502 156.452 428.519C156.271 428.535 156.091 428.568 155.894 428.584C155.697 428.6 155.532 428.584 155.335 428.6C155.138 428.617 154.974 428.649 154.777 428.666C154.58 428.682 154.416 428.666 154.219 428.682C154.022 428.698 153.857 428.731 153.677 428.747C153.496 428.764 153.299 428.747 153.118 428.764C152.938 428.78 152.757 428.813 152.577 428.829C152.396 428.846 152.215 428.829 152.018 428.845C151.821 428.862 151.657 428.895 151.46 428.911C151.263 428.927 151.099 428.911 150.902 428.927C150.705 428.944 150.54 428.976 150.343 428.993C150.146 429.009 149.982 428.993 149.785 429.009C149.588 429.025 149.424 429.058 149.227 429.074C149.03 429.091 148.865 429.074 148.668 429.091C148.471 429.107 148.307 429.14 148.11 429.156C147.913 429.172 147.749 429.156 147.552 429.172C147.355 429.189 147.191 429.221 147.01 429.238C146.829 429.254 146.632 429.238 146.452 429.254C146.271 429.27 146.09 429.303 145.893 429.319C145.696 429.336 145.532 429.319 145.335 429.336C145.138 429.352 144.974 429.385 144.793 429.401C144.613 429.417 144.432 429.401 144.235 429.418C144.038 429.434 143.874 429.467 143.677 429.483C143.479 429.499 143.315 429.483 143.118 429.499C142.921 429.516 142.757 429.548 142.56 429.565C142.363 429.581 142.182 429.565 142.002 429.581C141.821 429.597 141.64 429.63 141.46 429.646C141.279 429.663 141.082 429.646 140.901 429.663C140.721 429.679 140.54 429.712 140.343 429.728C140.146 429.744 139.982 429.728 139.785 429.744C139.588 429.761 139.424 429.793 139.243 429.81C139.062 429.826 138.865 429.81 138.685 429.826C138.504 429.842 138.323 429.875 138.126 429.891C137.929 429.908 137.765 429.891 137.568 429.908C137.371 429.924 137.207 429.957 137.01 429.973C136.813 429.99 136.632 429.973 136.451 429.99C136.271 430.006 136.09 430.039 135.91 430.055C135.729 430.071 135.532 430.055 135.351 430.071C135.171 430.088 134.974 430.12 134.793 430.137C134.612 430.153 134.432 430.137 134.235 430.153C134.038 430.169 133.873 430.202 133.676 430.218C133.479 430.235 133.315 430.218 133.118 430.235C132.921 430.251 132.757 430.284 132.56 430.3C132.363 430.316 132.182 430.3 132.001 430.316C131.821 430.333 131.624 430.365 131.443 430.382C131.262 430.398 131.065 430.382 130.885 430.398C130.704 430.414 130.523 430.447 130.343 430.463C130.162 430.48 129.965 430.463 129.785 430.48C129.604 430.496 129.423 430.529 129.243 430.545C129.062 430.562 128.865 430.545 128.684 430.562C100.375 432.555 80.1118 471.975 83.4288 518.586C86.7458 565.213 112.362 601.396 140.688 599.402C140.869 599.402 141.049 599.353 141.246 599.337C141.427 599.337 141.624 599.337 141.805 599.337C141.985 599.337 142.182 599.288 142.363 599.272C142.543 599.272 142.724 599.272 142.921 599.272C143.118 599.272 143.282 599.223 143.479 599.206C143.66 599.206 143.841 599.206 144.038 599.206C144.235 599.206 144.399 599.157 144.58 599.141C144.76 599.141 144.957 599.141 145.138 599.141C145.319 599.141 145.499 599.092 145.68 599.076C145.86 599.076 146.058 599.076 146.238 599.076C146.419 599.076 146.599 599.027 146.78 599.01C146.961 599.01 147.158 599.01 147.338 599.01C147.519 599.01 147.7 598.961 147.897 598.945C148.077 598.945 148.258 598.945 148.455 598.945C148.652 598.945 148.816 598.896 149.013 598.88C149.194 598.88 149.391 598.88 149.572 598.88C149.752 598.88 149.933 598.83 150.113 598.814C150.294 598.814 150.491 598.814 150.672 598.814C150.852 598.814 151.033 598.765 151.23 598.749C151.411 598.749 151.591 598.749 151.788 598.749C151.985 598.749 152.15 598.7 152.33 598.683C152.511 598.683 152.708 598.683 152.889 598.683C153.069 598.683 153.25 598.634 153.447 598.618C153.627 598.618 153.808 598.618 154.005 598.618C154.202 598.618 154.366 598.569 154.563 598.553C154.744 598.553 154.941 598.553 155.122 598.553C155.302 598.553 155.483 598.504 155.664 598.487C155.844 598.487 156.041 598.487 156.222 598.487C156.403 598.487 156.6 598.438 156.78 598.422C156.961 598.422 157.142 598.422 157.339 598.422C157.536 598.422 157.7 598.373 157.897 598.357C158.078 598.357 158.275 598.357 158.455 598.357C158.636 598.357 158.816 598.307 159.014 598.291C159.194 598.291 159.375 598.291 159.572 598.291C159.769 598.291 159.949 598.242 160.13 598.226C160.311 598.226 160.508 598.226 160.688 598.226C160.869 598.226 161.05 598.177 161.23 598.16C161.411 598.16 161.608 598.16 161.789 598.16C161.969 598.16 162.15 598.111 162.33 598.095C162.511 598.095 162.708 598.095 162.889 598.095C163.069 598.095 163.25 598.046 163.431 598.03C163.611 598.03 163.808 598.03 163.989 598.03C164.17 598.03 164.35 597.981 164.547 597.964C164.728 597.964 164.925 597.964 165.106 597.964C165.286 597.964 165.467 597.915 165.664 597.899C165.845 597.899 166.025 597.899 166.222 597.899C166.419 597.899 166.583 597.85 166.764 597.834C166.945 597.834 167.142 597.834 167.322 597.834C167.503 597.834 167.684 597.785 167.864 597.768C168.045 597.768 168.242 597.768 168.423 597.768C168.603 597.768 168.784 597.719 168.981 597.703C169.162 597.703 169.359 597.703 169.539 597.703C169.72 597.703 169.9 597.654 170.098 597.637C170.278 597.637 170.475 597.637 170.656 597.637C170.836 597.637 171.034 597.588 171.214 597.572C171.395 597.572 171.592 597.572 171.772 597.572C171.953 597.572 172.134 597.523 172.331 597.507C172.511 597.507 172.708 597.507 172.889 597.507C173.07 597.507 173.25 597.458 173.447 597.441C173.628 597.441 173.809 597.441 174.006 597.441C174.203 597.441 174.383 597.392 174.564 597.376C174.745 597.376 174.942 597.376 175.122 597.376C175.303 597.376 175.484 597.327 175.664 597.311C175.845 597.311 176.042 597.311 176.222 597.311C176.403 597.311 176.584 597.262 176.764 597.245C176.945 597.245 177.126 597.245 177.323 597.245C177.52 597.245 177.684 597.196 177.881 597.18C178.062 597.18 178.259 597.18 178.439 597.18C178.62 597.18 178.801 597.131 178.998 597.114C179.178 597.114 179.359 597.114 179.556 597.114C179.753 597.114 179.917 597.065 180.114 597.049C180.295 597.049 180.475 597.049 180.672 597.049C180.87 597.049 181.034 597 181.214 596.984C181.395 596.984 181.592 596.984 181.773 596.984C181.953 596.984 182.134 596.935 182.315 596.918C182.495 596.918 182.676 596.918 182.873 596.918C183.07 596.918 183.234 596.869 183.431 596.853C183.612 596.853 183.809 596.853 183.989 596.853C184.17 596.853 184.351 596.804 184.531 596.788C184.712 596.788 184.893 596.788 185.09 596.788C185.287 596.788 185.451 596.739 185.648 596.722C185.829 596.722 186.026 596.722 186.206 596.722C214.516 594.728 234.779 555.309 231.462 508.682C228.145 462.055 202.512 425.871 174.203 427.865L174.236 427.211Z" fill="#182C4F"/>
<path d="M635.577 394.754C635.396 394.754 635.215 394.803 635.018 394.819C634.821 394.835 634.641 394.819 634.46 394.835C634.28 394.852 634.099 394.884 633.902 394.901C633.705 394.917 633.524 394.901 633.344 394.917C633.163 394.933 632.982 394.966 632.785 394.982C632.588 394.999 632.424 394.982 632.227 394.999C632.03 395.015 631.866 395.048 631.669 395.064C631.472 395.081 631.307 395.064 631.11 395.081C630.913 395.097 630.749 395.13 630.552 395.146C630.355 395.162 630.174 395.146 629.994 395.162C629.813 395.179 629.632 395.211 629.435 395.228C629.238 395.244 629.074 395.228 628.877 395.244C628.68 395.26 628.516 395.293 628.319 395.309C628.122 395.326 627.941 395.309 627.76 395.326C627.58 395.342 627.399 395.375 627.202 395.391C627.005 395.407 626.841 395.391 626.644 395.407C626.447 395.424 626.283 395.456 626.086 395.473C625.889 395.489 625.708 395.473 625.527 395.489C625.347 395.505 625.166 395.538 624.969 395.554C624.772 395.571 624.591 395.554 624.411 395.571C624.23 395.587 624.049 395.62 623.869 395.636C623.688 395.653 623.491 395.636 623.31 395.653C623.13 395.669 622.949 395.702 622.752 395.718C622.555 395.734 622.374 395.718 622.194 395.734C622.013 395.751 621.833 395.783 621.636 395.8C621.438 395.816 621.274 395.8 621.077 395.816C620.88 395.832 620.716 395.865 620.519 395.881C620.322 395.898 620.158 395.881 619.961 395.898C619.764 395.914 619.583 395.947 619.402 395.963C619.222 395.979 619.025 395.963 618.844 395.979C618.663 395.996 618.483 396.028 618.286 396.045C618.089 396.061 617.924 396.045 617.727 396.061C617.53 396.077 617.366 396.11 617.169 396.126C616.972 396.143 616.791 396.126 616.611 396.143C616.43 396.159 616.25 396.192 616.052 396.208C615.855 396.225 615.691 396.208 615.494 396.225C615.297 396.241 615.133 396.274 614.936 396.29C614.739 396.306 614.575 396.29 614.378 396.306C614.181 396.323 614 396.355 613.819 396.372C613.639 396.388 613.458 396.372 613.261 396.388C613.064 396.404 612.9 396.437 612.703 396.453C612.506 396.47 612.341 396.453 612.144 396.47C611.947 396.486 611.767 396.519 611.586 396.535C611.405 396.551 611.225 396.535 611.028 396.551C610.831 396.568 610.666 396.6 610.469 396.617C610.272 396.633 610.108 396.617 609.911 396.633C609.714 396.649 609.55 396.682 609.353 396.698C609.156 396.715 608.975 396.698 608.795 396.715C608.614 396.731 608.417 396.764 608.236 396.78C608.056 396.797 607.875 396.78 607.678 396.797C607.481 396.813 607.317 396.846 607.12 396.862C606.923 396.878 606.742 396.862 606.561 396.878C606.381 396.895 606.184 396.927 606.003 396.944C605.822 396.96 605.642 396.944 605.445 396.96C605.248 396.976 605.083 397.009 604.886 397.025C604.689 397.042 604.525 397.025 604.328 397.042C604.131 397.058 603.95 397.091 603.77 397.107C603.589 397.123 603.392 397.107 603.211 397.123C603.031 397.14 602.85 397.172 602.67 397.189C602.489 397.205 602.292 397.189 602.111 397.205C601.931 397.221 601.75 397.254 601.569 397.27C601.389 397.287 601.192 397.27 601.011 397.287C600.83 397.303 600.633 397.336 600.453 397.352C600.272 397.369 600.092 397.352 599.894 397.369C599.697 397.385 599.533 397.418 599.336 397.434C599.139 397.45 598.975 397.434 598.778 397.45C598.581 397.467 598.4 397.499 598.22 397.516C598.039 397.532 597.858 397.516 597.661 397.532C597.464 397.548 597.3 397.581 597.119 397.597C596.939 397.614 596.742 397.597 596.561 397.614C596.38 397.63 596.2 397.663 596.019 397.679C595.839 397.695 595.641 397.679 595.461 397.695C595.28 397.712 595.1 397.744 594.919 397.761C594.738 397.777 594.558 397.761 594.361 397.777C594.164 397.793 593.983 397.826 593.802 397.843C593.622 397.859 593.441 397.843 593.244 397.859C593.047 397.875 592.883 397.908 592.702 397.924C592.522 397.941 592.341 397.924 592.144 397.941C591.947 397.957 591.783 397.99 591.586 398.006C591.389 398.022 591.224 398.006 591.027 398.022C590.83 398.039 590.65 398.071 590.485 398.088C590.321 398.104 590.108 398.088 589.927 398.104C561.618 400.098 541.354 439.518 544.671 486.128C547.988 532.755 573.621 568.939 601.931 566.945C602.111 566.945 602.308 566.896 602.489 566.88C602.67 566.88 602.85 566.88 603.047 566.88C603.244 566.88 603.409 566.831 603.589 566.814C603.77 566.814 603.967 566.814 604.147 566.814C604.328 566.814 604.509 566.765 604.706 566.749C604.886 566.749 605.067 566.749 605.264 566.749C605.461 566.749 605.625 566.7 605.822 566.683C606.003 566.683 606.2 566.683 606.381 566.683C606.561 566.683 606.742 566.634 606.923 566.618C607.103 566.618 607.3 566.618 607.481 566.618C607.661 566.618 607.859 566.569 608.039 566.553C608.22 566.553 608.4 566.553 608.597 566.553C608.794 566.553 608.959 566.504 609.156 566.487C609.336 566.487 609.517 566.487 609.714 566.487C609.911 566.487 610.075 566.438 610.272 566.422C610.453 566.422 610.65 566.422 610.831 566.422C611.011 566.422 611.192 566.373 611.373 566.357C611.553 566.357 611.75 566.357 611.931 566.357C612.111 566.357 612.292 566.308 612.473 566.291C612.653 566.291 612.85 566.291 613.031 566.291C613.212 566.291 613.392 566.242 613.589 566.226C613.77 566.226 613.951 566.226 614.148 566.226C614.345 566.226 614.509 566.177 614.706 566.16C614.887 566.16 615.084 566.16 615.264 566.16C615.445 566.16 615.642 566.111 615.823 566.095C616.003 566.095 616.184 566.095 616.381 566.095C616.578 566.095 616.742 566.046 616.923 566.03C617.103 566.03 617.284 566.03 617.481 566.03C617.678 566.03 617.842 565.981 618.023 565.964C618.204 565.964 618.401 565.964 618.581 565.964C618.762 565.964 618.943 565.915 619.14 565.899C619.32 565.899 619.501 565.899 619.698 565.899C619.895 565.899 620.059 565.85 620.24 565.834C620.42 565.834 620.617 565.834 620.798 565.834C620.979 565.834 621.159 565.785 621.34 565.768C621.521 565.768 621.718 565.768 621.898 565.768C622.079 565.768 622.26 565.719 622.44 565.703C622.621 565.703 622.801 565.703 622.998 565.703C623.196 565.703 623.376 565.654 623.557 565.637C623.737 565.637 623.934 565.637 624.115 565.637C624.296 565.637 624.476 565.588 624.657 565.572C624.838 565.572 625.018 565.572 625.215 565.572C625.412 565.572 625.577 565.523 625.757 565.507C625.938 565.507 626.135 565.507 626.315 565.507C626.496 565.507 626.677 565.458 626.857 565.441C627.054 565.441 627.235 565.441 627.416 565.441C627.596 565.441 627.777 565.392 627.958 565.376C628.138 565.376 628.319 565.376 628.516 565.376C628.713 565.376 628.877 565.327 629.074 565.311C629.255 565.311 629.452 565.311 629.632 565.311C629.813 565.311 629.994 565.262 630.174 565.245C630.355 565.245 630.552 565.245 630.733 565.245C630.913 565.245 631.11 565.196 631.291 565.18C631.472 565.18 631.669 565.18 631.849 565.18C632.03 565.18 632.211 565.131 632.391 565.115C632.572 565.115 632.769 565.115 632.949 565.115C633.13 565.115 633.311 565.065 633.491 565.049C633.672 565.049 633.869 565.049 634.05 565.049C634.23 565.049 634.427 565 634.608 564.984C634.789 564.984 634.986 564.984 635.166 564.984C635.347 564.984 635.527 564.935 635.708 564.918C635.889 564.918 636.069 564.918 636.266 564.918C636.463 564.918 636.644 564.869 636.825 564.853C637.005 564.853 637.186 564.853 637.383 564.853C637.58 564.853 637.744 564.804 637.941 564.788C638.122 564.788 638.319 564.788 638.5 564.788C638.68 564.788 638.861 564.739 639.042 564.722C639.222 564.722 639.419 564.722 639.6 564.722C639.78 564.722 639.961 564.673 640.158 564.657C640.339 564.657 640.519 564.657 640.716 564.657C640.913 564.657 641.078 564.608 641.258 564.592C641.439 564.592 641.62 564.592 641.817 564.592C642.014 564.592 642.178 564.543 642.375 564.526C642.556 564.526 642.753 564.526 642.933 564.526C643.114 564.526 643.295 564.477 643.475 564.461C643.672 564.461 643.853 564.461 644.033 564.461C644.214 564.461 644.395 564.412 644.575 564.395C644.756 564.395 644.953 564.395 645.134 564.395C645.314 564.395 645.495 564.346 645.692 564.33C645.873 564.33 646.053 564.33 646.25 564.33C646.447 564.33 646.612 564.281 646.809 564.265C646.989 564.265 647.17 564.265 647.367 564.265C675.676 562.271 695.939 522.851 692.639 476.224C689.322 429.597 663.689 393.414 635.38 395.407L635.577 394.754Z" fill="#182C4F"/>
<path d="M692.836 475.57C696.153 522.197 675.873 561.617 647.564 563.611C619.255 565.605 593.622 529.421 590.305 482.794C586.988 436.167 607.251 396.748 635.56 394.77C663.87 392.776 689.503 428.96 692.82 475.587L692.836 475.57Z" fill="#2A406D"/>
<path d="M231.495 508.028C234.812 554.655 214.549 594.075 186.239 596.068C157.93 598.062 132.297 561.879 128.98 515.252C125.663 468.625 145.943 429.205 174.252 427.228C202.562 425.25 228.194 461.417 231.511 508.044L231.495 508.028Z" fill="#2A406D"/>
<path d="M451.862 407.681C451.681 407.681 451.5 407.73 451.303 407.746C451.106 407.763 450.942 407.747 450.745 407.763C450.548 407.779 450.384 407.812 450.187 407.828C449.99 407.845 449.825 407.828 449.628 407.845C449.431 407.861 449.267 407.894 449.07 407.91C448.873 407.926 448.692 407.91 448.512 407.926C448.331 407.943 448.15 407.975 447.953 407.992C447.756 408.008 447.576 407.992 447.395 408.008C447.214 408.024 447.034 408.057 446.837 408.073C446.64 408.09 446.476 408.073 446.278 408.09C446.081 408.106 445.917 408.139 445.72 408.155C445.523 408.171 445.342 408.155 445.162 408.171C444.981 408.188 444.784 408.22 444.604 408.237C444.423 408.253 444.242 408.237 444.045 408.253C443.848 408.269 443.684 408.302 443.487 408.319C443.29 408.335 443.126 408.319 442.929 408.335C442.732 408.351 442.567 408.384 442.37 408.4C442.173 408.417 441.993 408.4 441.812 408.417C441.631 408.433 441.434 408.466 441.254 408.482C441.073 408.498 440.892 408.482 440.695 408.498C440.498 408.515 440.334 408.547 440.137 408.564C439.94 408.58 439.759 408.564 439.579 408.58C439.398 408.596 439.218 408.629 439.02 408.645C438.823 408.662 438.643 408.645 438.462 408.662C438.282 408.678 438.101 408.711 437.904 408.727C437.707 408.743 437.526 408.727 437.346 408.743C437.165 408.76 436.968 408.792 436.787 408.809C436.607 408.825 436.41 408.809 436.229 408.825C436.048 408.841 435.851 408.874 435.671 408.891C435.49 408.907 435.309 408.891 435.112 408.907C434.915 408.923 434.751 408.956 434.554 408.972C434.357 408.989 434.176 408.972 433.996 408.989C433.815 409.005 433.618 409.038 433.437 409.054C433.257 409.07 433.076 409.054 432.879 409.07C432.682 409.087 432.518 409.119 432.321 409.136C432.124 409.152 431.943 409.136 431.762 409.152C431.582 409.168 431.401 409.201 431.204 409.217C431.007 409.234 430.827 409.217 430.646 409.234C430.465 409.25 430.285 409.283 430.088 409.299C429.891 409.315 429.726 409.299 429.529 409.315C429.332 409.332 429.152 409.364 428.971 409.381C428.79 409.397 428.593 409.381 428.413 409.397C428.232 409.414 428.051 409.446 427.871 409.463C427.69 409.479 427.51 409.463 427.312 409.479C427.115 409.495 426.951 409.528 426.754 409.544C426.557 409.561 426.377 409.544 426.196 409.561C426.015 409.577 425.818 409.61 425.638 409.626C425.457 409.642 425.26 409.626 425.079 409.642C424.899 409.659 424.718 409.691 424.537 409.708C424.357 409.724 424.176 409.708 423.979 409.724C423.782 409.74 423.601 409.773 423.421 409.789C423.24 409.806 423.043 409.789 422.862 409.806C422.682 409.822 422.501 409.855 422.304 409.871C422.107 409.887 421.926 409.871 421.746 409.887C421.565 409.904 421.385 409.936 421.188 409.953C420.991 409.969 420.826 409.953 420.629 409.969C420.432 409.986 420.268 410.018 420.087 410.035C419.907 410.051 419.71 410.035 419.529 410.051C419.348 410.067 419.168 410.1 418.987 410.116C418.807 410.133 418.626 410.116 418.429 410.133C418.232 410.149 418.068 410.182 417.871 410.198C417.674 410.214 417.493 410.198 417.312 410.214C417.132 410.231 416.951 410.263 416.77 410.28C416.59 410.296 416.393 410.28 416.212 410.296C416.031 410.312 415.834 410.345 415.654 410.361C415.473 410.378 415.276 410.361 415.095 410.378C414.915 410.394 414.734 410.427 414.537 410.443C414.34 410.459 414.176 410.443 413.979 410.459C413.782 410.476 413.618 410.508 413.421 410.525C413.223 410.541 413.059 410.525 412.862 410.541C412.665 410.558 412.501 410.59 412.32 410.607C412.14 410.623 411.943 410.607 411.762 410.623C411.581 410.639 411.401 410.672 411.22 410.688C411.04 410.705 410.842 410.688 410.662 410.705C410.481 410.721 410.301 410.754 410.12 410.77C409.939 410.786 409.759 410.77 409.562 410.786C409.365 410.803 409.2 410.835 409.02 410.852C408.839 410.868 408.642 410.852 408.461 410.868C408.281 410.884 408.084 410.917 407.903 410.933C407.723 410.95 407.542 410.933 407.345 410.95C407.148 410.966 406.984 410.999 406.787 411.015C406.59 411.031 406.409 411.015 406.228 411.031C377.919 413.025 357.656 452.445 360.956 499.056C364.257 545.666 389.906 581.866 418.215 579.872C418.396 579.872 418.577 579.823 418.757 579.807C418.938 579.807 419.135 579.807 419.316 579.807C419.496 579.807 419.677 579.758 419.857 579.742C420.038 579.742 420.235 579.742 420.416 579.742C420.596 579.742 420.777 579.693 420.958 579.676C421.138 579.676 421.335 579.676 421.516 579.676C421.697 579.676 421.894 579.627 422.074 579.611C422.255 579.611 422.452 579.611 422.633 579.611C422.813 579.611 422.994 579.562 423.191 579.546C423.371 579.546 423.552 579.546 423.749 579.546C423.946 579.546 424.11 579.497 424.308 579.48C424.488 579.48 424.685 579.48 424.866 579.48C425.046 579.48 425.227 579.431 425.408 579.415C425.588 579.415 425.785 579.415 425.966 579.415C426.147 579.415 426.327 579.366 426.508 579.349C426.689 579.349 426.886 579.349 427.066 579.349C427.247 579.349 427.427 579.3 427.624 579.284C427.805 579.284 427.986 579.284 428.183 579.284C428.38 579.284 428.544 579.235 428.725 579.219C428.905 579.219 429.086 579.219 429.283 579.219C429.48 579.219 429.661 579.17 429.841 579.153C430.022 579.153 430.219 579.153 430.4 579.153C430.58 579.153 430.761 579.104 430.941 579.088C431.122 579.088 431.303 579.088 431.5 579.088C431.697 579.088 431.877 579.039 432.058 579.023C432.239 579.023 432.419 579.023 432.616 579.023C432.813 579.023 432.994 578.974 433.175 578.957C433.355 578.957 433.536 578.957 433.733 578.957C433.93 578.957 434.094 578.908 434.275 578.892C434.455 578.892 434.636 578.892 434.833 578.892C435.03 578.892 435.194 578.843 435.392 578.826C435.572 578.826 435.753 578.826 435.95 578.826C436.147 578.826 436.311 578.777 436.492 578.761C436.672 578.761 436.869 578.761 437.05 578.761C437.231 578.761 437.428 578.712 437.608 578.696C437.789 578.696 437.97 578.696 438.167 578.696C438.364 578.696 438.528 578.647 438.725 578.63C438.906 578.63 439.086 578.63 439.283 578.63C439.48 578.63 439.644 578.581 439.825 578.565C440.006 578.565 440.203 578.565 440.383 578.565C440.564 578.565 440.761 578.516 440.942 578.5C441.122 578.5 441.319 578.5 441.5 578.5C441.681 578.5 441.861 578.451 442.042 578.434C442.223 578.434 442.42 578.434 442.6 578.434C442.781 578.434 442.961 578.385 443.142 578.369C443.323 578.369 443.52 578.369 443.7 578.369C443.881 578.369 444.062 578.32 444.259 578.303C444.439 578.303 444.62 578.303 444.817 578.303C445.014 578.303 445.178 578.254 445.359 578.238C445.539 578.238 445.737 578.238 445.917 578.238C446.098 578.238 446.278 578.189 446.476 578.173C446.656 578.173 446.837 578.173 447.034 578.173C447.231 578.173 447.395 578.124 447.576 578.107C447.756 578.107 447.953 578.107 448.134 578.107C448.315 578.107 448.495 578.058 448.692 578.042C448.873 578.042 449.054 578.042 449.251 578.042C449.448 578.042 449.612 577.993 449.792 577.977C449.973 577.977 450.154 577.977 450.351 577.977C450.548 577.977 450.712 577.928 450.893 577.911C451.073 577.911 451.27 577.911 451.451 577.911C451.632 577.911 451.812 577.862 452.009 577.846C452.19 577.846 452.387 577.846 452.568 577.846C452.748 577.846 452.929 577.797 453.109 577.78C453.29 577.78 453.487 577.78 453.668 577.78C453.848 577.78 454.029 577.731 454.226 577.715C454.407 577.715 454.604 577.715 454.784 577.715C454.965 577.715 455.146 577.666 455.326 577.65C455.507 577.65 455.688 577.65 455.885 577.65C456.082 577.65 456.246 577.601 456.426 577.584C456.607 577.584 456.804 577.584 456.985 577.584C457.165 577.584 457.346 577.535 457.527 577.519C457.707 577.519 457.888 577.519 458.085 577.519C458.282 577.519 458.446 577.47 458.627 577.454C458.807 577.454 459.005 577.454 459.185 577.454C459.366 577.454 459.546 577.405 459.743 577.388C459.924 577.388 460.121 577.388 460.302 577.388C460.482 577.388 460.663 577.339 460.86 577.323C461.041 577.323 461.221 577.323 461.418 577.323C461.615 577.323 461.78 577.274 461.96 577.257C462.141 577.257 462.338 577.257 462.519 577.257C462.699 577.257 462.88 577.208 463.06 577.192C463.241 577.192 463.438 577.192 463.619 577.192C491.928 575.198 512.191 535.779 508.891 489.152C505.59 442.525 479.941 406.341 451.632 408.335L451.862 407.681Z" fill="#182C4F"/>
<path d="M30.9156 543.934C20.981 544.506 12.5572 536.792 12.278 526.904C11.2599 492.241 12.3273 418.206 27.8613 400.98C48.1409 378.443 150.721 339.922 159.03 331.865C167.339 323.792 220.247 221.386 293.418 182.881C364.01 145.733 521.059 117.476 810.606 145.08C824.53 146.403 831.444 162.583 822.741 173.484C762.673 248.695 588.351 466.843 584.558 469.36C579.993 472.4 523.817 509.711 521.732 509.172C519.646 508.633 150.754 533.229 146.813 535.55C143.775 537.331 66.3844 541.924 30.9156 543.95V543.934Z" fill="#003A84"/>
<path d="M375.292 494.741C373.288 495.558 364.914 421.229 376.047 399.395C394.061 364.094 471.123 322.599 470.581 324.691C470.039 326.766 508.595 185.888 596.775 156.552C684.954 127.216 810.474 142.203 843.677 147.351C876.864 152.499 953.828 244.413 974.748 288.539C995.651 332.666 1007.87 398.512 1006.37 425.838C1004.9 453.164 844.301 483.513 841.625 484.396C838.948 485.262 411.894 509.172 409.118 508.698C406.343 508.208 375.308 494.741 375.308 494.741H375.292Z" fill="#003166"/>
<path d="M861.707 498.173L519.745 522.23L515.098 489.429L859.868 465.176L865.616 488.383L861.707 498.173Z" fill="#C6C6C6"/>
<path d="M519.745 522.23C521.879 511.395 522.668 499.726 521.814 487.599C518.152 435.987 486.345 396.176 450.761 398.676C415.177 401.177 389.315 445.058 392.993 496.67C393.847 508.796 396.277 520.236 399.923 530.663L519.745 522.23Z" fill="#0F1E33"/>
<path d="M649.584 341.589C642.276 344.221 645.331 352.311 649.452 352.49C653.574 352.654 677.68 351.869 683.509 350.546C689.338 349.222 688.337 341.589 683.673 340.102C679.01 338.615 655.807 339.334 649.584 341.589Z" fill="#FFCE00"/>
<path d="M499.318 318.578C502.536 322.288 674.002 306.746 679.371 305.455C684.757 304.164 668.287 175.102 665.676 170.297C663.049 165.492 622.621 161.08 568.679 197.541C515.673 233.365 491.863 310.031 499.318 318.578Z" fill="#D1D8F9"/>
<path d="M520.172 251.539C508.087 272.164 500.878 292.511 498.694 305.471C510.55 280.728 544.048 233.921 638.697 168.107C631.062 169.219 622.03 171.359 611.915 175.053C590.305 188.471 553.654 214.129 520.156 251.555L520.172 251.539Z" fill="white"/>
<path d="M666.021 307.58L664.231 282.493C663.771 276.103 659.354 270.873 653.525 269.059C655.495 266.297 656.546 262.865 656.3 259.237L654.51 234.15C653.919 225.815 646.579 219.474 638.204 220.062L585.773 223.756C577.398 224.344 571.027 231.649 571.618 239.984L573.408 265.071C573.654 268.438 574.984 271.478 577.053 273.864C570.6 276.005 566.134 282.313 566.626 289.357L568.531 316.16L666.021 307.58Z" fill="#FFCE00"/>
<path d="M665.676 170.297C663.049 165.492 622.621 161.08 568.679 197.541C557.529 205.075 547.677 214.424 539.122 224.573C546.774 216.091 555.378 208.311 564.935 201.839C618.877 165.378 659.305 169.791 661.932 174.595C664.297 178.926 677.877 284.078 676.629 305.847C678.107 305.667 679.059 305.537 679.388 305.455C684.774 304.164 668.304 175.102 665.693 170.297H665.676Z" fill="#003A84"/>
<path d="M690.981 167.159C686.908 169.055 699.01 208.001 701.999 237.271C704.988 266.558 710.899 300.062 711.934 301.794C712.968 303.543 847.667 293.606 853.021 291.874C858.374 290.141 816.78 179.629 811.706 172.275C806.616 164.92 702.459 161.815 690.981 167.159Z" fill="#D1D8F9"/>
<path d="M509.104 488.498C512.421 535.125 492.158 574.545 463.832 576.538C435.523 578.532 409.89 542.349 406.573 495.722C403.256 449.095 423.536 409.675 451.845 407.697C480.155 405.704 505.787 441.887 509.104 488.514V488.498Z" fill="#2A406D"/>
<path d="M493.833 493.205C495.853 521.658 483.488 545.715 466.213 546.925C448.939 548.134 433.29 526.054 431.27 497.601C429.25 469.148 441.615 445.091 458.89 443.881C476.164 442.672 491.813 464.751 493.833 493.205Z" fill="#E2E1E0"/>
<path d="M482.01 492.142C481.255 473.315 472.42 458.377 462.207 458.786C461.189 458.819 460.22 459.015 459.251 459.342C450.614 462.3 444.439 476.633 445.113 493.597C445.359 499.742 446.476 505.478 448.249 510.398C448.249 510.398 448.249 510.409 448.249 510.43C451.32 519.06 456.312 525.155 461.928 526.594C462.913 526.839 463.898 526.953 464.916 526.921C470.433 526.708 475.179 522.099 478.25 514.974C480.943 508.829 482.355 500.804 482.01 492.11V492.142Z" fill="#AAAAAA"/>
<path d="M482.01 492.142C481.419 477.156 475.228 465.209 468.167 465.487C467.478 465.519 466.788 465.666 466.131 465.928C460.154 468.232 455.967 479.64 456.509 493.139C457.05 506.655 462.141 517.67 468.282 519.501C468.956 519.713 469.662 519.811 470.351 519.779C477.412 519.501 482.618 507.129 482.01 492.126V492.142Z" fill="#C6C6C6"/>
<path d="M462.01 481.617L468.364 470.422C468.364 470.422 472.946 473.07 475.803 479.673L465.77 482.549C465.77 482.549 464.473 481.65 461.993 481.617H462.01Z" fill="#E2E1E0"/>
<path d="M466.148 483.137L468.201 486.324L478.431 486.471C478.431 486.471 477.675 482.565 475.853 480.408L466.148 483.154V483.137Z" fill="#E2E1E0"/>
<path d="M467.198 492.714C467.001 487.664 464.916 483.644 462.535 483.742C462.305 483.742 462.075 483.807 461.845 483.889C459.842 484.674 458.43 488.498 458.61 493.041C458.791 497.585 460.499 501.295 462.568 501.916C462.798 501.981 463.027 502.014 463.257 502.014C465.638 501.916 467.379 497.748 467.182 492.698L467.198 492.714Z" fill="#AAAAAA"/>
<path d="M49.635 482.925C50.1441 490.034 44.758 496.196 37.615 496.702C30.472 497.209 24.2814 491.848 23.7723 484.739C23.2633 477.63 28.6493 471.469 35.7923 470.962C42.9353 470.455 49.126 475.816 49.635 482.909V482.925Z" fill="#FFCE00"/>
<path d="M32.4757 487.37C31.9667 480.261 37.3527 474.1 44.4957 473.593C44.5286 473.593 44.545 473.593 44.5778 473.593C42.164 471.763 39.0769 470.749 35.8092 470.978C28.6661 471.485 23.2801 477.646 23.7892 484.756C24.2982 491.865 30.4396 497.176 37.5498 496.719C34.6925 494.545 32.7549 491.227 32.4757 487.37Z" fill="#FFE888"/>
<path d="M349.708 461.826C350.217 468.935 344.831 475.097 337.688 475.603C330.545 476.11 324.355 470.749 323.846 463.64C323.337 456.531 328.723 450.369 335.866 449.863C343.009 449.356 349.199 454.717 349.708 461.81V461.826Z" fill="#FFCE00"/>
<path d="M329.856 466.451C329.347 459.342 334.733 453.181 341.876 452.674C342.976 452.592 344.06 452.674 345.094 452.837C342.614 450.762 339.347 449.618 335.866 449.863C328.723 450.369 323.337 456.531 323.846 463.64C324.273 469.654 328.772 474.41 334.47 475.423C331.859 473.25 330.118 470.079 329.856 466.435V466.451Z" fill="#FFE888"/>
<path d="M521.847 174.742C521.847 174.742 453.668 293.197 450.006 318.644C450.006 318.644 190.607 334.856 185.172 335.232C179.737 335.608 183.579 322.419 190.295 311.061C197.011 299.702 273.187 213.198 295.881 199.502C320.134 184.859 521.847 174.759 521.847 174.759V174.742Z" fill="#D1D8F9"/>
<path d="M366.26 509.842C366.408 513.013 363.961 515.709 360.726 515.938L330.151 518.096C321.218 518.717 41.5068 538.41 30.9975 539.146C20.4882 539.881 15.1843 502.308 30.4228 501.229L358.674 478.137C362.007 477.908 364.881 480.408 365.028 483.677L366.26 509.842Z" fill="#C6C6C6"/>
<path d="M31.6053 501.131C30.8664 511.133 34.8894 523.391 40.6531 522.982C50.1772 522.312 304.009 504.449 312.105 503.877L339.856 501.932C342.779 501.72 345.012 499.268 344.88 496.408L344.076 479.166L31.6217 501.148L31.6053 501.131Z" fill="#AAAAAA"/>
<path d="M731.359 164.479C730.374 165.378 729.389 166.26 728.42 167.159C717.566 177.292 706.991 187.882 697.434 199.225C696.875 199.878 696.35 200.532 695.808 201.186C696.81 205.958 697.828 210.943 698.78 215.96C700.997 213.574 703.197 211.171 705.431 208.769C710.702 203.065 715.989 197.378 721.457 191.821C726.909 186.281 732.492 180.871 738.223 175.609C739.701 174.252 741.179 172.912 742.673 171.588C742.722 171.539 743.001 171.278 743.133 171.18C743.395 170.935 743.658 170.706 743.937 170.461C744.775 169.725 745.612 169.006 746.45 168.271C747.796 167.11 749.159 165.983 750.522 164.839C744.036 164.626 737.582 164.512 731.408 164.479H731.359Z" fill="white"/>
<path d="M782.001 194.403C782.001 194.403 782.05 194.37 782.066 194.338C782.066 194.338 782.066 194.332 782.066 194.321C782.296 194.109 782.543 193.913 782.772 193.7C783.396 193.145 784.02 192.605 784.661 192.05C785.843 191.02 787.025 189.99 788.208 188.977C790.408 187.098 792.641 185.235 794.891 183.388C796.467 182.097 798.06 180.822 799.653 179.563C803.2 176.769 806.812 174.04 810.425 171.327C806.763 169.431 796.5 167.878 783.38 166.734C775.613 173.271 767.994 180.005 760.572 186.918C743.067 203.245 726.827 220.715 711.227 238.856C708.551 241.962 705.907 245.132 703.28 248.286C704.61 259.204 706.202 269.99 707.647 278.93C707.746 278.783 707.828 278.652 707.927 278.505C709.684 275.923 711.49 273.357 713.296 270.807C716.925 265.708 720.653 260.691 724.512 255.755C732.213 245.9 740.292 236.34 748.765 227.122C757.156 217.986 765.925 209.177 775.022 200.728C777.321 198.603 779.636 196.495 781.968 194.403H782.001Z" fill="white"/>
<path d="M811.706 172.275C806.616 164.92 702.459 161.815 690.981 167.159C690.537 167.372 690.291 168.042 690.209 169.071C714.315 165.541 801.148 168.712 805.778 175.413C810.458 182.195 846.075 276.397 847.52 292.658C850.525 292.331 852.479 292.054 853.021 291.874C858.374 290.141 816.78 179.629 811.706 172.275Z" fill="#003A84"/>
<path d="M189.918 311.077C185.697 318.203 182.61 326.064 182.249 330.836C190.427 326.39 197.75 318.889 204.647 313.251C213.76 305.814 222.923 298.411 232.037 290.975C250.658 275.776 269.673 261.132 288.672 246.423C307.309 231.976 325.865 217.447 344.749 203.294C352.368 197.574 360.037 191.919 367.721 186.281C354.076 187.752 341.3 189.321 330.315 191.004C312.416 204.454 294.518 218.003 277.161 232.123C258.491 247.322 240.099 262.897 221.757 278.472C214.976 284.242 208.292 290.109 201.642 296.009C195.55 303.314 191.297 308.74 189.934 311.061L189.918 311.077Z" fill="white"/>
<path d="M470.154 177.815C452.502 178.975 431.943 180.446 411.204 182.179C393.272 195.76 375.357 209.341 357.426 222.922C317.835 252.928 278.59 283.228 237.801 311.633C227.57 318.758 217.39 325.949 207.718 333.81C221.101 332.977 239.361 331.833 259.903 330.542C276.718 319.984 293.533 309.492 309.789 298.035C351.728 268.47 392.189 236.895 433.076 205.909C444.407 197.329 455.737 188.748 467.067 180.152C468.102 179.368 469.136 178.583 470.187 177.799L470.154 177.815Z" fill="white"/>
<path d="M194.68 315.506C201.396 304.147 277.572 217.643 300.281 203.948C321.743 191.004 481.977 181.59 518.727 179.596C520.484 176.508 521.485 174.775 521.485 174.775C521.485 174.775 319.789 184.875 295.519 199.519C272.826 213.214 196.634 299.718 189.934 311.077C183.218 322.435 179.359 335.641 184.811 335.248C185.057 335.232 185.812 335.183 187.028 335.101C187.438 330.329 190.509 322.55 194.68 315.506Z" fill="#003166"/>
<path d="M713.723 436.02C712.656 425.511 711.539 415.003 710.406 404.51C708.124 383.722 705.693 362.95 703.148 342.178C698.058 300.65 692.524 259.187 686.941 217.725C685.381 206.121 683.854 194.501 682.228 182.914C680.602 171.343 679.01 159.707 676.908 148.201C676.776 147.482 675.676 147.531 675.758 148.283C676.661 158.742 678.024 169.186 679.305 179.613C680.586 190.056 682.015 200.499 683.394 210.926C686.153 231.665 688.895 252.389 691.588 273.144C696.974 314.623 702.163 356.135 706.744 397.728C708.025 409.381 709.273 421.066 710.455 432.735C711.638 444.42 712.508 456.138 713.937 467.775C714.15 469.491 716.761 469.344 716.646 467.579C716.006 457.054 714.758 446.529 713.707 436.02H713.723Z" fill="#003A84"/>
<path d="M494.917 327.975C494.868 327.551 494.178 327.469 494.129 327.926C493.538 333.385 493.538 338.844 493.423 344.335C493.291 349.875 493.193 355.432 493.127 360.972C493.028 372.053 493.094 383.134 493.094 394.214C493.094 397.303 493.094 400.376 493.094 403.448C493.094 405.05 493.094 406.651 493.094 408.253C493.094 408.988 493.094 409.74 493.094 410.476C493.094 410.786 493.127 411.129 493.094 411.456C493.094 411.489 493.094 411.505 493.078 411.522C493.078 411.522 493.078 411.522 493.061 411.522C492.454 411.93 492.634 412.731 493.127 413.156C494.129 414.038 495.541 413.221 495.82 412.077C496.132 410.819 495.935 409.348 495.935 408.04C495.935 406.439 495.935 404.837 495.935 403.236C495.935 397.205 495.935 391.174 495.935 385.144C495.935 372.968 496.05 360.76 495.738 348.584C495.557 341.704 495.672 334.807 494.933 327.959L494.917 327.975Z" fill="#003A84"/>
<path d="M495.754 320.049C495.754 320.049 499.613 325.835 510.368 323.253C522.241 336.343 522.356 336.425 522.356 336.425C522.356 336.425 510.746 341.377 495.754 334.268C495.425 328.237 495.754 320.049 495.754 320.049Z" fill="#003A84"/>
<path d="M563.014 294.276C574.771 299.326 577.743 321.912 572.259 328.466C566.79 335.02 531.765 339.024 520.172 336.049C508.579 333.075 503.653 300.715 512.98 294.619C522.323 288.523 550.288 288.818 563.014 294.276Z" fill="#003A84"/>
<path d="M554.097 296.744C551.453 295.616 548.481 295.747 545.64 295.714C543.128 295.665 540.583 295.633 538.07 295.812C535.656 295.992 533.226 296.499 530.845 296.956C528.398 297.43 525.246 297.676 523.259 299.326C521.879 300.487 521.682 302.856 523.571 303.706C525.886 304.736 528.612 304.393 531.091 304.425C533.62 304.458 535.968 304.703 538.415 304.752C540.845 304.818 543.276 304.801 545.722 304.916C546.445 304.948 545.952 304.916 546.708 304.981C547.266 305.03 547.824 305.063 548.383 305.112C550.205 305.242 551.798 305.308 553.588 304.883C557.315 304 557.414 298.166 554.081 296.728L554.097 296.744Z" fill="#0A77ED"/>
<path d="M566.379 302.758C566.248 302.399 566.035 302.104 565.755 301.843C565.69 301.778 565.624 301.712 565.558 301.647C565.214 301.287 564.754 301.107 564.294 300.993C564.081 300.944 563.867 300.879 563.654 300.83C563.342 300.748 563.112 300.666 562.75 300.715C562.668 300.715 562.57 300.748 562.488 300.748C562.324 300.764 562.176 300.764 562.012 300.764C561.782 300.764 561.568 300.764 561.338 300.846C561.043 300.96 560.796 301.124 560.599 301.369C560.172 301.859 560.09 302.497 560.271 303.118C560.32 303.314 560.386 303.494 560.484 303.673C560.616 303.935 560.747 304.196 560.895 304.441C561.158 304.883 561.568 305.177 562.028 305.406C562.422 305.618 562.849 305.765 563.292 305.814C563.539 305.847 563.867 305.88 564.081 305.863C564.573 305.831 564.951 305.667 565.378 305.422C565.46 305.373 565.542 305.308 565.624 305.259C565.936 305.046 566.166 304.768 566.347 304.425C566.494 304.164 566.56 303.886 566.544 303.608C566.577 303.314 566.544 303.036 566.445 302.742L566.379 302.758Z" fill="#0A77ED"/>
<path d="M30.8171 401.013C19.7331 401.798 10.8002 446.66 12.8364 456.057C14.8725 465.438 56.6305 465.846 69.8821 460.208C83.1336 454.57 95.4984 445.908 98.3228 437.115C103.922 419.71 51.8849 399.542 30.8007 401.03L30.8171 401.013Z" fill="#FFD939"/>
<path d="M91.1306 422.112C85.646 427.767 77.1401 432.931 68.2236 436.723C56.9261 441.528 24.8728 441.936 14.4292 436.135C12.7707 444.878 12.1139 452.706 12.8364 456.057C14.8726 465.438 56.6306 465.846 69.8821 460.208C83.1337 454.57 95.4985 445.908 98.3229 437.115C99.9157 432.147 96.8286 426.966 91.1142 422.128L91.1306 422.112Z" fill="#FFE888"/>
<path d="M354.963 381.156C392.189 381.042 395.933 427.473 367.656 442.606C358.526 447.493 322.351 451.824 307.408 447.82C292.466 443.816 278.015 436.461 273.664 427.538C265.076 409.871 332.269 381.205 354.963 381.14V381.156Z" fill="#FFD939"/>
<path d="M365.981 419.138C356.851 424.024 320.676 428.355 305.733 424.351C295.963 421.736 286.39 417.683 279.723 412.699C274.156 417.928 271.48 423.093 273.647 427.571C277.999 436.494 292.449 443.849 307.392 447.853C322.335 451.857 358.51 447.526 367.64 442.639C384.963 433.373 390.267 412.388 383.239 397.516C380.809 406.227 375.029 414.3 365.965 419.154L365.981 419.138Z" fill="#FFE888"/>
<path d="M34.3971 455.044C44.5543 455.044 52.7883 446.849 52.7883 436.739C52.7883 426.63 44.5543 418.435 34.3971 418.435C24.2399 418.435 16.0059 426.63 16.0059 436.739C16.0059 446.849 24.2399 455.044 34.3971 455.044Z" fill="#FFCE00"/>
<path d="M68.4211 450.402C73.6993 450.402 77.978 446.144 77.978 440.891C77.978 435.637 73.6993 431.379 68.4211 431.379C63.143 431.379 58.8643 435.637 58.8643 440.891C58.8643 446.144 63.143 450.402 68.4211 450.402Z" fill="#FFCE00"/>
<path d="M351.909 436.952C364.651 436.952 374.98 426.671 374.98 413.99C374.98 401.308 364.651 391.028 351.909 391.028C339.167 391.028 328.838 401.308 328.838 413.99C328.838 426.671 339.167 436.952 351.909 436.952Z" fill="#FFCE00"/>
<path d="M310.397 437.05C317.017 437.05 322.384 431.708 322.384 425.119C322.384 418.53 317.017 413.189 310.397 413.189C303.777 413.189 298.41 418.53 298.41 425.119C298.41 431.708 303.777 437.05 310.397 437.05Z" fill="#FFCE00"/>
<path opacity="0.1" d="M556.381 585.136C836.759 557.922 1060.48 499.448 1056.08 454.531C1051.68 409.614 820.82 395.262 540.442 422.476C260.064 449.69 36.3409 508.164 40.7421 553.081C45.1433 597.998 276.003 612.35 556.381 585.136Z" fill="#003A84"/>
<path opacity="0.05" d="M463.523 420.464C463.523 420.464 517.624 453.417 523.142 525.999H492.218C492.218 525.999 480.078 446.868 444.739 420.464H463.523Z" fill="black"/>
<path d="M378.394 389.458C378.29 385.106 378.394 380.588 378.728 376.422C378.728 375.634 378.852 374.867 378.936 374.101C376.479 375.945 375 377.355 375 377.355L377.166 264.213L389.077 204.938C389.077 162.906 411.817 151.072 411.817 151.072C411.817 151.072 423.728 145.683 426.977 138.139C430.225 130.616 459.004 114.678 459.004 114.678C459.233 111.942 459.317 109.186 459.275 106.429C459.275 105.704 459.275 104.978 459.212 104.232C444.302 94.3874 438.992 75.0712 446.822 59.0503C445.219 59.0503 443.928 58.387 443.324 56.0243C441.408 48.5631 443.261 37.3091 447.614 31.3401C448.551 30.0965 449.592 28.9359 450.737 27.8789C452.091 26.5317 453.507 25.2675 454.985 24.0654C458.713 20.998 462.836 17.7648 467.438 18.0135C470.062 18.3451 472.561 19.2363 474.81 20.6249C486.325 26.6561 497.799 32.7287 509.253 38.8635C513.48 41.1433 517.832 43.5475 520.789 47.6304C523.746 51.7134 524.933 56.957 525.766 62.0969C526.453 65.5788 526.62 69.1644 526.245 72.6877C525.891 75.9002 524.413 78.9054 522.06 81.1231C521.581 81.7034 521.039 82.2008 520.456 82.6567C518.124 84.3562 515.125 84.7708 512.689 86.1387C510.856 91.4651 507.774 96.2735 503.693 100.17C503.693 100.833 503.776 101.476 503.838 102.201C503.984 104.066 504.213 106.118 504.484 108.191C504.484 108.191 512.48 107.983 524.392 124.129C536.303 140.274 562.292 142.45 562.292 142.45C562.292 142.45 572.037 138.139 582.866 186.637C593.694 235.135 596.943 267.405 591.529 272.835C589.238 274.804 586.656 276.421 583.865 277.602C574.682 282.203 564.811 285.291 554.628 286.721C554.503 287.115 554.274 287.467 553.983 287.758L553.212 297.146C552.567 316.981 551.796 356.753 555.836 365.582C561.25 377.437 554.753 384.982 554.753 384.982L553.441 384.899C553.192 385.313 552.921 385.707 552.629 386.08L547.402 385.728C547.777 407.883 548.798 438.599 551.505 445.355C555.836 456.133 551.505 515.387 551.505 515.387L559.085 622.062C559.085 622.062 563.229 677.752 559.355 684.198C561.479 695.783 565.29 717.856 564.499 723.348C563.416 730.892 538.511 741.67 538.511 741.67C538.511 741.67 509.274 748.177 495.217 745.981C487.866 744.841 484.951 739.887 484.909 735.556C475.372 737.089 462.94 738.54 455.152 737.338C441.075 735.183 443.24 719.017 450.82 720.094C458.4 721.172 467.063 706.001 473.498 698.457C476.767 694.643 479.495 687.845 481.348 682.021C479.974 681.814 478.725 681.151 477.788 680.135C474.539 674.747 469.125 625.171 469.125 625.171L455.048 538.973C455.048 538.973 447.468 496.941 440.971 487.242C436.056 479.926 429.913 425.272 427.206 398.951H426.894L426.602 398.018L422.521 384.94C420.355 388.754 414.878 390.64 408.506 391.448C409.193 394.204 409.755 396.464 410.068 397.749C411.692 404.256 388.015 414.992 382.309 409.604C379.914 407.345 378.665 399.179 378.374 390.246H378.186L378.353 389.375L378.394 389.458ZM520.643 683.306C521.018 685.4 521.372 687.596 521.747 689.814C522.58 687.203 523.226 684.861 523.663 683.141C522.58 683.182 521.581 683.223 520.643 683.306Z" fill="url(#paint0_linear_3584_8826)"/>
<path d="M484.327 660.86C484.327 660.86 480.141 679.534 473.852 686.809C467.564 694.084 459.255 708.592 451.966 707.555C444.678 706.519 442.575 722.084 456.152 724.157C469.729 726.229 497.863 719.991 497.863 719.991C497.863 719.991 521.852 709.566 522.872 702.353C523.893 695.141 516.625 657.731 516.625 657.731L484.348 660.86H484.327Z" fill="#53526B"/>
<path opacity="0.05" d="M484.327 660.86C484.327 660.86 480.141 679.534 473.852 686.809C467.564 694.084 459.255 708.592 451.966 707.555C444.678 706.519 442.575 722.084 456.152 724.157C469.729 726.229 497.863 719.991 497.863 719.991C497.863 719.991 521.852 709.566 522.872 702.353C523.893 695.141 516.625 657.731 516.625 657.731L484.348 660.86H484.327Z" fill="black"/>
<path d="M522.914 669.151C522.914 669.151 518.729 687.825 512.44 695.099C506.151 702.374 497.842 716.882 490.554 715.846C483.265 714.809 481.162 730.374 494.739 732.447C508.296 734.52 536.45 728.302 536.45 728.302C536.45 728.302 560.439 717.877 561.459 710.664C562.501 703.452 555.212 666.042 555.212 666.042L522.935 669.151H522.914Z" fill="#53526B"/>
<path d="M428.018 384.836C428.018 384.836 436.348 474.06 442.616 483.408C448.863 492.755 456.172 533.211 456.172 533.211L469.729 616.217C469.729 616.217 474.956 663.949 478.058 669.13C481.161 674.311 519.852 672.094 519.852 672.094L495.842 397.272L428.018 384.816V384.836Z" fill="#5F5D7E"/>
<path opacity="0.05" d="M428.018 384.836C428.018 384.836 436.348 474.06 442.616 483.408C448.863 492.755 456.172 533.211 456.172 533.211L469.729 616.217C469.729 616.217 474.956 663.949 478.058 669.13C481.161 674.311 519.852 672.094 519.852 672.094L495.842 397.272L428.018 384.816V384.836Z" fill="black"/>
<path d="M411.338 342.308L414.066 350.929L428.788 397.459L429.08 398.35H429.163C431.141 398.785 472.873 408.339 481.869 411.283C482.348 411.428 482.827 411.614 483.306 411.821C487.491 413.894 492.697 488.589 492.697 488.589C492.697 488.589 495.821 559.16 497.924 564.341C500.027 569.523 508.399 676.384 513.563 673.296C518.727 670.187 556.294 673.296 556.294 673.296C560.48 669.13 556.294 613.109 556.294 613.109L549.006 510.372C549.006 510.372 553.191 453.314 549.006 442.931C544.82 432.547 544.82 363.033 544.82 363.033L459.42 349.872L451.174 348.567L411.317 342.328H411.338V342.308Z" fill="#5F5D7E"/>
<path opacity="0.02" d="M414.067 350.909L428.789 397.438L429.143 398.349C431.122 398.785 472.853 408.339 481.849 411.282H482.744L459.421 349.852L458.755 348.09L451.175 348.567L414.046 350.929H414.067V350.909Z" fill="black"/>
<path opacity="0.1" d="M511.439 134.781C511.439 134.781 472.852 176.295 448.883 142.035L425.956 157.6L430.142 181.476L416.585 362.017C416.585 362.017 452.028 360.981 477.058 369.271C491.281 374.287 507.149 370.639 517.728 359.924L513.542 201.166L522.934 152.398L511.46 134.761H511.439V134.781Z" fill="black"/>
<path d="M511.439 131.673C511.439 131.673 472.852 173.186 448.883 138.927L425.956 154.492L430.142 178.368L416.585 358.971C416.585 358.971 452.028 357.935 477.058 366.225C491.281 371.24 507.149 367.593 517.728 356.878L513.542 198.119L522.934 149.352L511.481 131.652H511.439V131.673Z" fill="#53526B"/>
<path d="M431.163 346.452C431.163 346.452 431.163 373.437 424.916 384.857C418.668 396.277 382.185 390.059 382.185 390.059L389.473 351.654L431.184 346.452H431.163Z" fill="#D39999"/>
<path d="M386.12 408.712C391.618 413.914 414.399 403.51 412.837 397.293C411.734 392.899 407.881 377.189 405.695 368.277L404.175 362.018C404.175 362.018 390.826 357.852 386.12 362.018C384.413 363.53 383.205 369.479 382.643 376.671C381.664 389.168 382.643 405.417 386.12 408.712Z" fill="#FDC2CC"/>
<path d="M436.368 150.346L472.852 178.367C472.852 178.367 527.057 175.259 513.522 149.31C507.628 137.911 504.068 125.434 503.047 112.646C502.61 107.921 502.61 103.175 503.047 98.4494C503.047 98.4494 453.007 52.853 459.254 104.667C459.754 108.646 460.045 112.646 460.108 116.647C460.795 155.549 436.368 150.326 436.368 150.326V150.346Z" fill="#FDC2CC"/>
<path opacity="0.1" d="M459.317 104.688C459.816 108.668 460.108 112.668 460.17 116.668C465.793 120.377 472.373 122.346 479.12 122.326C488.45 122.326 495.321 113.289 501.527 107.279C500.84 98.657 503.089 98.4498 503.089 98.4498C503.089 98.4498 453.049 52.7912 459.317 104.667V104.688Z" fill="black"/>
<path d="M479.121 120.232C460.122 120.232 444.72 104.903 444.72 85.9936C444.72 67.0841 460.122 51.7549 479.121 51.7549C498.12 51.7549 513.522 67.0841 513.522 85.9936C513.522 104.903 498.12 120.232 479.121 120.232Z" fill="#FDC2CC"/>
<path opacity="0.1" d="M503.61 118.698C503.61 118.698 509.336 119.217 520.81 134.782C532.284 150.347 557.377 152.419 557.377 152.419C557.377 152.419 566.769 148.253 577.181 194.948C587.593 241.643 590.737 272.773 585.511 277.954C580.284 283.136 559.439 290.41 549.027 290.41C549.027 290.41 545.903 355.779 551.109 367.178C556.315 378.577 550.068 385.852 550.068 385.852L504.255 382.743C504.255 382.743 488.616 363.033 485.493 328.794C482.369 294.555 471.936 197 477.163 185.601C482.369 174.181 505.317 145.124 504.276 142.015C503.235 138.906 503.63 118.678 503.63 118.678L503.61 118.698Z" fill="black"/>
<path d="M503.693 118.387C503.693 118.387 511.398 118.18 522.872 133.745C534.346 149.31 559.356 151.383 559.356 151.383C559.356 151.383 568.748 147.217 579.16 193.912C589.572 240.607 592.716 271.736 587.469 276.876C582.221 282.016 561.397 289.332 550.985 289.332C550.985 289.332 547.861 354.701 553.067 366.1C558.273 377.499 552.026 384.774 552.026 384.774L506.213 381.665C506.213 381.665 490.574 361.955 487.451 327.716C484.327 293.478 473.894 195.922 479.121 184.523C484.327 173.103 507.275 144.046 506.234 140.937C505.193 137.828 503.714 118.367 503.714 118.367H503.693V118.387Z" fill="#FFCE00"/>
<path d="M531.202 252.026C531.202 252.026 479.037 192.482 486.367 233.353C491.594 262.41 511.377 277.975 520.769 281.084C530.16 284.193 531.202 252.026 531.202 252.026Z" fill="#FDC2CC"/>
<path opacity="0.1" d="M382.642 376.671C387.64 372.878 397.032 366.971 405.715 368.277L404.195 362.018C404.195 362.018 390.847 357.852 386.141 362.018C384.412 363.53 383.225 369.479 382.663 376.671H382.642Z" fill="black"/>
<path opacity="0.1" d="M459.837 124.916C459.837 124.916 433.245 142.036 430.121 149.311C426.998 156.585 415.524 161.767 415.524 161.767C415.524 161.767 393.637 173.187 393.637 213.643L382.163 270.701L434.307 343.323C434.307 343.323 440.554 270.68 443.699 253.042C446.843 235.405 450.987 202.223 450.987 202.223C450.987 202.223 466.626 182.513 464.543 177.332C462.44 172.15 459.837 124.896 459.837 124.896V124.916Z" fill="black"/>
<path d="M459.92 124.605C459.92 124.605 432.204 139.963 429.08 147.217C425.956 154.471 414.461 159.611 414.461 159.611C414.461 159.611 392.575 171.031 392.575 211.487L381.101 268.545L379.019 377.499C379.019 377.499 397.781 359.862 411.338 368.152C424.894 376.442 433.224 341.167 433.224 341.167C433.224 341.167 439.471 268.524 442.616 250.886C445.739 233.249 449.904 200.067 449.904 200.067C449.904 200.067 465.543 180.44 463.46 175.217C461.378 169.994 459.92 124.564 459.92 124.564V124.605Z" fill="#FFCE00"/>
<path opacity="0.1" d="M448.925 44.3559C450.695 42.1175 452.736 40.1071 455.006 38.3869C458.588 35.4231 462.565 32.3143 467.001 32.5837C469.52 32.9153 471.936 33.7858 474.102 35.1123C485.18 40.9154 496.238 46.8015 507.254 52.729C511.335 54.926 515.521 57.2472 518.374 61.1644C521.227 65.0815 522.372 70.1593 523.163 75.1127C523.83 78.4703 523.996 81.9107 523.642 85.3097C523.309 88.6466 521.685 91.714 519.102 93.8694C516.125 96.0249 512.064 96.0249 509.565 98.8436C508.128 100.481 507.503 102.761 506.483 104.73C505.463 106.699 503.693 108.647 501.673 108.294C499.653 107.942 498.445 105.828 498.153 103.673C498.029 101.496 498.153 99.2995 498.528 97.1648C498.924 93.2477 498.424 89.1233 496.154 86.201C494.593 84.2113 492.323 83.0299 490.823 80.9988C487.179 76.1076 488.845 67.9624 484.847 63.3613C482.494 60.9157 478.995 59.9209 475.684 60.7499C472.457 61.4338 469.5 63.1748 466.522 64.667C462.503 66.6774 458.296 68.294 453.965 69.4961C450.321 70.4909 446.114 72.8536 444.865 68.0453C442.97 60.9778 444.802 50.1384 448.925 44.3974V44.3559Z" fill="black"/>
<path d="M449.967 43.3198C451.737 41.0814 453.778 39.071 456.048 37.3508C459.629 34.387 463.607 31.2782 468.042 31.5476C470.562 31.8792 472.977 32.7497 475.143 34.0761C486.222 39.8793 495.426 34.387 508.295 51.6929C511.044 55.4028 516.562 56.2111 519.415 60.1283C522.268 64.0454 523.413 69.1232 524.205 74.0766C524.871 77.4342 525.038 80.8746 524.684 84.2736C524.35 87.6104 522.726 90.6778 520.144 92.8333C517.166 94.9888 513.105 94.9888 510.607 97.8075C509.17 99.4448 508.545 101.725 507.525 103.694C506.504 105.662 504.734 107.611 502.714 107.258C500.694 106.906 499.487 104.792 499.195 102.637C499.07 100.46 499.195 98.2634 499.57 96.1287C499.965 92.2115 499.466 88.0871 497.196 85.1648C495.634 83.1752 493.364 81.9938 491.865 79.9627C488.221 75.0714 489.887 66.9263 485.888 62.3252C483.535 59.8796 480.037 58.8847 476.726 59.7137C473.498 60.3977 470.541 62.1386 467.563 63.6309C463.544 65.6413 459.338 67.2579 455.006 68.46C451.362 69.4548 447.156 71.8175 445.906 67.0092C443.99 59.9417 445.781 49.1022 449.967 43.3612V43.3198Z" fill="#865A61"/>
<path d="M543.758 197.042C543.758 197.042 544.799 235.446 550.005 240.628C555.211 245.809 546.882 252.047 546.882 252.047L526.037 246.845C526.037 246.845 531.263 281.084 509.357 276.939C509.357 276.939 523.954 290.431 538.552 292.504C553.15 294.576 552.15 289.395 552.15 289.395L574.036 263.446L543.779 197.042H543.758Z" fill="#FFCE00"/>
<path opacity="0.1" d="M543.925 201.705C543.925 201.705 557.836 236.98 547.403 251.509L524.475 246.306C524.475 246.306 545.32 252.524 542.197 240.089C539.073 227.653 543.946 201.726 543.946 201.726L543.925 201.705Z" fill="black"/>
<path opacity="0.1" d="M551.567 288.856C551.567 288.856 521.331 290.928 512.98 284.69C523.954 293.063 536.928 298.452 550.609 300.317L551.546 288.835H551.567V288.856Z" fill="black"/>
<path opacity="0.1" d="M421.23 222.451C421.23 222.451 405.591 270.182 406.632 277.436C407.673 284.69 409.756 364.588 409.756 364.588L412.88 363.551L411.838 276.4L421.23 222.451Z" fill="black"/>
</g>
<defs>
<linearGradient id="paint0_linear_3584_8826" x1="484.535" y1="746.416" x2="484.535" y2="17.9927" gradientUnits="userSpaceOnUse">
<stop stop-color="#808080" stop-opacity="0.25"/>
<stop offset="0.54" stop-color="#808080" stop-opacity="0.12"/>
<stop offset="1" stop-color="#808080" stop-opacity="0.1"/>
</linearGradient>
<clipPath id="clip0_3584_8826">
<rect width="984" height="749" fill="white"/>
</clipPath>
</defs>
</svg>
