<svg width="614" height="509" viewBox="0 0 614 509" fill="none" xmlns="http://www.w3.org/2000/svg">
<g clip-path="url(#clip0_4693_3157)">
<path d="M362.86 0H184.441C156.692 0 134.197 22.4807 134.197 50.2121V457.651C134.197 485.383 156.692 507.864 184.441 507.864H362.86C390.609 507.864 413.105 485.383 413.105 457.651V50.2121C413.105 22.4807 390.609 0 362.86 0Z" fill="#3F3D56"/>
<path d="M408.399 50.2155V457.652C408.385 469.718 403.583 481.286 395.045 489.818C386.508 498.35 374.933 503.149 362.859 503.163H184.443C172.369 503.149 160.794 498.35 152.256 489.818C143.719 481.286 138.916 469.718 138.902 457.652V50.2155C138.916 38.1496 143.719 26.5817 152.256 18.0498C160.794 9.51784 172.369 4.71844 184.443 4.70447H207.774V12.7585C207.774 16.4047 209.224 19.9015 211.803 22.4797C214.383 25.0579 217.882 26.5065 221.531 26.5067H325.771C329.419 26.5065 332.918 25.0579 335.498 22.4797C338.078 19.9015 339.528 16.4047 339.528 12.7585V4.70447H362.859C374.933 4.71844 386.508 9.51784 395.045 18.0498C403.583 26.5817 408.385 38.1496 408.399 50.2155Z" fill="white"/>
<path d="M132.913 103.026C132.006 103.025 131.136 102.665 130.494 102.023C129.853 101.382 129.492 100.513 129.491 99.6063V92.7664C129.491 91.8594 129.852 90.9895 130.493 90.3481C131.135 89.7067 132.006 89.3464 132.913 89.3464C133.821 89.3464 134.691 89.7067 135.333 90.3481C135.975 90.9895 136.335 91.8594 136.335 92.7664V99.6063C136.334 100.513 135.973 101.382 135.332 102.023C134.69 102.665 133.82 103.025 132.913 103.026Z" fill="#3F3D56"/>
<path d="M132.913 138.099C132.006 138.098 131.136 137.737 130.494 137.096C129.853 136.455 129.492 135.586 129.491 134.679V115.851C129.491 114.944 129.852 114.074 130.493 113.433C131.135 112.791 132.006 112.431 132.913 112.431C133.821 112.431 134.691 112.791 135.333 113.433C135.975 114.074 136.335 114.944 136.335 115.851V134.679C136.334 135.586 135.973 136.455 135.332 137.096C134.69 137.737 133.82 138.098 132.913 138.099Z" fill="#3F3D56"/>
<path d="M132.913 166.295C132.006 166.294 131.136 165.934 130.494 165.293C129.853 164.651 129.492 163.782 129.491 162.875V144.047C129.491 143.14 129.852 142.27 130.493 141.629C131.135 140.988 132.006 140.627 132.913 140.627C133.821 140.627 134.691 140.988 135.333 141.629C135.975 142.27 136.335 143.14 136.335 144.047V162.875C136.334 163.782 135.973 164.651 135.332 165.293C134.69 165.934 133.82 166.294 132.913 166.295Z" fill="#3F3D56"/>
<path d="M413.533 150.906C412.625 150.904 411.755 150.544 411.114 149.903C410.472 149.262 410.111 148.392 410.11 147.486V101.544C410.11 100.637 410.471 99.7672 411.113 99.1258C411.754 98.4845 412.625 98.1241 413.533 98.1241C414.44 98.1241 415.311 98.4845 415.952 99.1258C416.594 99.7672 416.955 100.637 416.955 101.544V147.486C416.954 148.392 416.593 149.262 415.951 149.903C415.31 150.544 414.44 150.904 413.533 150.906Z" fill="#3F3D56"/>
<path d="M281.002 15.6855H254.48C253.913 15.6855 253.369 15.4603 252.968 15.0594C252.566 14.6586 252.341 14.1149 252.341 13.548C252.341 12.9811 252.566 12.4374 252.968 12.0366C253.369 11.6357 253.913 11.4105 254.48 11.4105H281.002C281.569 11.4105 282.113 11.6357 282.514 12.0366C282.915 12.4374 283.141 12.9811 283.141 13.548C283.141 14.1149 282.915 14.6586 282.514 15.0594C282.113 15.4603 281.569 15.6855 281.002 15.6855Z" fill="white"/>
<path d="M294.691 15.258C295.636 15.258 296.402 14.4924 296.402 13.548C296.402 12.6036 295.636 11.838 294.691 11.838C293.746 11.838 292.979 12.6036 292.979 13.548C292.979 14.4924 293.746 15.258 294.691 15.258Z" fill="white"/>
<path d="M197.58 24.8571H174.481C173.346 24.8571 172.258 24.4068 171.456 23.605C170.654 22.8033 170.203 21.716 170.203 20.5822C170.203 19.4484 170.654 18.3611 171.456 17.5594C172.258 16.7576 173.346 16.3073 174.481 16.3073H197.58C198.715 16.3073 199.803 16.7576 200.605 17.5594C201.407 18.3611 201.858 19.4484 201.858 20.5822C201.858 21.716 201.407 22.8033 200.605 23.605C199.803 24.4068 198.715 24.8571 197.58 24.8571Z" fill="#E6E6E6"/>
<path d="M285.201 204.082H262.101C260.966 204.082 259.878 203.631 259.076 202.83C258.274 202.028 257.823 200.941 257.823 199.807C257.823 198.673 258.274 197.586 259.076 196.784C259.878 195.982 260.966 195.532 262.101 195.532H285.201C286.335 195.532 287.423 195.982 288.226 196.784C289.028 197.586 289.478 198.673 289.478 199.807C289.478 200.941 289.028 202.028 288.226 202.83C287.423 203.631 286.335 204.082 285.201 204.082Z" fill="#E6E6E6"/>
<path d="M349.012 24.4296C351.138 24.4296 352.862 22.7071 352.862 20.5822C352.862 18.4573 351.138 16.7347 349.012 16.7347C346.886 16.7347 345.162 18.4573 345.162 20.5822C345.162 22.7071 346.886 24.4296 349.012 24.4296Z" fill="#E6E6E6"/>
<path d="M360.99 24.4296C363.116 24.4296 364.84 22.7071 364.84 20.5822C364.84 18.4573 363.116 16.7347 360.99 16.7347C358.864 16.7347 357.14 18.4573 357.14 20.5822C357.14 22.7071 358.864 24.4296 360.99 24.4296Z" fill="#E6E6E6"/>
<path d="M372.967 24.4296C375.094 24.4296 376.817 22.7071 376.817 20.5822C376.817 18.4573 375.094 16.7347 372.967 16.7347C370.841 16.7347 369.117 18.4573 369.117 20.5822C369.117 22.7071 370.841 24.4296 372.967 24.4296Z" fill="#E6E6E6"/>
<path d="M347.487 263.931H187.728C183.615 263.926 179.672 262.291 176.763 259.385C173.855 256.478 172.219 252.537 172.214 248.427V232.411C172.219 228.3 173.855 224.359 176.763 221.453C179.672 218.546 183.615 216.911 187.728 216.906H347.487C351.6 216.911 355.543 218.546 358.452 221.453C361.36 224.359 362.996 228.3 363.001 232.411V248.427C362.996 252.537 361.36 256.478 358.452 259.385C355.543 262.291 351.6 263.926 347.487 263.931ZM187.728 218.616C184.069 218.621 180.56 220.075 177.973 222.661C175.385 225.247 173.929 228.754 173.925 232.411V248.427C173.929 252.084 175.385 255.59 177.973 258.176C180.56 260.762 184.069 262.217 187.728 262.221H347.487C351.146 262.217 354.655 260.762 357.242 258.176C359.83 255.59 361.286 252.084 361.29 248.427V232.411C361.286 228.753 359.83 225.247 357.242 222.661C354.655 220.075 351.146 218.621 347.487 218.616H187.728Z" fill="#E6E6E6"/>
<path d="M285.201 322.925H262.101C260.966 322.925 259.878 322.475 259.076 321.673C258.274 320.871 257.823 319.784 257.823 318.65C257.823 317.516 258.274 316.429 259.076 315.627C259.878 314.826 260.966 314.375 262.101 314.375H285.201C286.335 314.375 287.423 314.826 288.226 315.627C289.028 316.429 289.478 317.516 289.478 318.65C289.478 319.784 289.028 320.871 288.226 321.673C287.423 322.475 286.335 322.925 285.201 322.925Z" fill="#E6E6E6"/>
<path d="M290.508 446.899H256.794C255.974 446.9 255.161 446.739 254.403 446.426C253.645 446.113 252.956 445.653 252.375 445.074C251.795 444.494 251.334 443.806 251.02 443.049C250.706 442.291 250.544 441.479 250.544 440.659C250.544 439.84 250.706 439.028 251.02 438.27C251.334 437.513 251.795 436.825 252.375 436.245C252.956 435.666 253.645 435.206 254.403 434.893C255.161 434.58 255.974 434.419 256.794 434.42H290.508C292.163 434.42 293.751 435.078 294.922 436.248C296.093 437.418 296.751 439.005 296.751 440.659C296.751 442.314 296.093 443.901 294.922 445.071C293.751 446.241 292.163 446.899 290.508 446.899Z" fill="#1F2559"/>
<path d="M347.487 382.774H187.728C183.615 382.77 179.672 381.135 176.763 378.228C173.855 375.322 172.219 371.381 172.214 367.27V351.254C172.219 347.144 173.855 343.203 176.763 340.296C179.672 337.39 183.615 335.755 187.728 335.75H347.487C351.6 335.755 355.543 337.39 358.452 340.296C361.36 343.203 362.996 347.144 363.001 351.254V367.27C362.996 371.381 361.36 375.322 358.452 378.228C355.543 381.135 351.6 382.77 347.487 382.774ZM187.728 337.46C184.069 337.464 180.56 338.919 177.973 341.505C175.385 344.091 173.929 347.597 173.925 351.254V367.27C173.929 370.927 175.385 374.434 177.973 377.02C180.56 379.606 184.069 381.06 187.728 381.064H347.487C351.146 381.06 354.655 379.606 357.242 377.02C359.83 374.434 361.286 370.927 361.29 367.27V351.254C361.286 347.597 359.83 344.091 357.242 341.505C354.655 338.919 351.146 337.464 347.487 337.46H187.728Z" fill="#E6E6E6"/>
<path d="M376.817 165.44H170.203V167.15H376.817V165.44Z" fill="#E6E6E6"/>
<path d="M371.444 233.297C371.645 234.726 372.396 236.02 373.537 236.905C374.679 237.789 376.12 238.193 377.555 238.032C377.846 237.994 378.134 237.933 378.415 237.848L389.909 253.394L399.854 250.34L381.805 230.746C381.363 229.609 380.556 228.65 379.511 228.019C378.466 227.388 377.241 227.12 376.028 227.258C375.338 227.343 374.672 227.563 374.068 227.905C373.463 228.247 372.932 228.705 372.504 229.253C372.077 229.8 371.762 230.426 371.576 231.095C371.391 231.765 371.339 232.464 371.424 233.153C371.43 233.201 371.437 233.249 371.444 233.297Z" fill="#FFB6B6"/>
<path d="M516.084 342.438C515.057 341.423 514.467 340.048 514.44 338.605C514.412 337.162 514.949 335.765 515.936 334.712C516.14 334.501 516.361 334.307 516.597 334.133L510.992 315.633L519.385 309.488L524.321 335.66C524.97 336.694 525.257 337.913 525.139 339.128C525.021 340.342 524.504 341.484 523.668 342.373C523.188 342.875 522.614 343.278 521.978 343.558C521.342 343.837 520.657 343.99 519.962 344.005C519.268 344.02 518.577 343.899 517.929 343.648C517.281 343.396 516.69 343.02 516.188 342.54C516.153 342.506 516.118 342.473 516.084 342.438Z" fill="#FFB6B6"/>
<path d="M468.517 497.97L460.046 497.97L456.017 465.318L468.519 465.318L468.517 497.97Z" fill="#FFB6B6"/>
<path d="M468.815 506.802L442.766 506.801V506.472C442.766 503.784 443.835 501.207 445.736 499.307C447.637 497.407 450.216 496.34 452.905 496.339L457.664 492.732L466.541 496.34L468.815 496.34L468.815 506.802Z" fill="#2F2E41"/>
<path d="M505.305 497.97L496.835 497.97L492.805 465.318L505.307 465.318L505.305 497.97Z" fill="#FFB6B6"/>
<path d="M505.604 506.802L479.555 506.801V506.472C479.555 503.784 480.623 501.207 482.525 499.307C484.426 497.407 487.005 496.34 489.694 496.339L494.452 492.732L503.33 496.34L505.604 496.34L505.604 506.802Z" fill="#2F2E41"/>
<path d="M443.422 322.462C443.422 322.462 433.78 335.895 440.74 359.103C447.7 382.311 443.793 403.059 445.746 407.22C447.7 411.38 451.633 415.332 448.383 418.486C445.133 421.64 443.422 424.205 445.989 425.06C448.556 425.915 457.111 485.765 457.111 485.765L471.655 486.62C471.655 486.62 476.924 458.818 471.295 436.382C471.295 436.382 472.531 420.094 469.954 415.31C467.378 410.525 467.883 414.841 468.058 408.836C468.155 404.493 468.788 400.178 469.944 395.991C470.8 392.571 471.295 358.102 471.295 358.102L490.203 400.679C490.771 402.255 490.984 403.937 490.828 405.604C490.477 407.96 490.474 411.481 490.904 412.713C491.333 413.946 491.811 414.205 491.572 416.64C491.333 419.075 491.333 483.663 491.333 483.663H507.588L515.288 419.075C513.903 417.542 512.75 415.813 511.866 413.945C510.155 410.525 510.088 410.337 510.977 407.866C511.866 405.396 511.866 400.582 511.866 399.141C511.866 397.701 512.755 332.297 501.616 322.677C490.477 313.057 443.422 322.462 443.422 322.462Z" fill="#2F2E41"/>
<path d="M493.34 219.79L477.102 215.585L469.521 205.137L451.52 207.348L447.688 221.599L434.872 229.034C434.872 229.034 441.955 303.906 440.27 308.017C438.585 312.129 432.544 311.789 437.704 317.089C442.863 322.389 443.547 320.254 442.349 326.024C441.152 331.793 432.424 337.9 442.349 337.839C452.274 337.778 512.162 336.923 510.451 330.083C508.74 323.244 508.767 324.98 506.187 320.692C503.607 316.404 501.87 318.8 502.739 312.472C503.607 306.144 502.751 301.869 502.751 298.449C502.751 295.029 499.885 263.951 499.885 263.951L493.34 219.79Z" fill="#3F3D56"/>
<path d="M442.675 227.597C442.675 227.597 426.608 225.775 423.186 233.47C419.764 241.165 411.139 257.187 411.139 257.187C411.139 257.187 404.415 250.157 403.764 246.971C403.212 244.266 402.908 248.785 398.392 243.893C396.367 241.701 398.078 241.701 395.512 240.846L390.379 239.136L381.823 246.831C381.823 246.831 381.656 256.128 386.101 256.236C390.546 256.344 384.39 254.526 390.379 260.511C393.471 263.601 390.635 263.089 395.788 266.234C400.942 269.379 400.36 269.366 401.934 271.083C403.508 272.799 411.956 274.049 411.956 274.049L449.789 253.127L442.675 227.597Z" fill="#3F3D56"/>
<path d="M484.897 223.025C484.897 223.025 491.787 212.937 503.562 226.043C515.338 239.148 524.143 298.977 523.59 301.125C523.038 303.272 519.932 302.04 523.624 305.649C527.316 309.257 529.882 306.692 527.315 309.257C524.749 311.822 519.392 314.236 523.782 315.167C528.171 316.097 511.096 321.22 511.096 321.22C511.096 321.22 508.608 320.311 508.503 314.32C508.444 310.955 510.155 309.245 507.588 308.39C505.022 307.535 508.178 301.826 507.908 300.839C507.638 299.852 491.383 256.248 491.383 256.248L484.897 223.025Z" fill="#3F3D56"/>
<path d="M457.818 203.348C468.712 203.348 477.544 194.523 477.544 183.636C477.544 172.749 468.712 163.924 457.818 163.924C446.925 163.924 438.093 172.749 438.093 183.636C438.093 194.523 446.925 203.348 457.818 203.348Z" fill="#FFB6B6"/>
<path d="M470.8 198.952C466.137 195.309 472.511 179.287 464.811 182.707C464.811 182.707 455.4 176.722 453.509 180.655C451.32 185.209 443.534 183.143 438.751 181.536C439.127 180.662 439.394 179.746 439.547 178.808C438.664 179.503 437.728 180.129 436.749 180.681C436.092 180.33 435.511 179.853 435.038 179.278C434.571 178.744 434.279 178.081 434.201 177.376C434.123 176.671 434.263 175.96 434.602 175.337C435.397 174.114 437.04 173.738 438.007 172.652C438.118 172.5 438.191 172.322 438.219 172.135C438.247 171.948 438.229 171.757 438.167 171.578C438.052 171.141 438.035 170.684 438.116 170.24C438.198 169.796 438.377 169.375 438.64 169.007C438.903 168.64 439.244 168.335 439.638 168.114C440.033 167.894 440.471 167.763 440.922 167.73C441.103 167.736 441.283 167.697 441.446 167.616C442.258 167.12 443.007 166.529 443.679 165.855C442.555 165.909 441.428 165.878 440.308 165.761C440.077 165.735 439.846 165.71 439.615 165.676C440.043 164.672 440.683 163.773 441.49 163.04C442.298 162.306 443.255 161.756 444.295 161.426C446.491 160.763 448.777 160.443 451.071 160.477C452.397 160.434 453.723 160.392 455.041 160.349C457.835 160.15 460.643 160.248 463.416 160.64C466.379 161.18 469.187 162.367 471.637 164.117C474.088 165.867 476.121 168.136 477.593 170.763C480.493 176.021 483.633 192.967 470.8 198.952Z" fill="#2F2E41"/>
<path d="M420.465 291.773L318.783 327.7C316.269 328.585 313.507 328.437 311.101 327.289C308.696 326.141 306.845 324.087 305.953 321.576L288.486 272.204C287.6 269.692 287.748 266.931 288.897 264.527C290.045 262.123 292.101 260.273 294.613 259.382L396.295 223.455C398.809 222.57 401.572 222.718 403.977 223.866C406.382 225.014 408.233 227.068 409.125 229.579L426.592 278.951C427.478 281.464 427.33 284.224 426.181 286.628C425.033 289.032 422.977 290.882 420.465 291.773Z" fill="#003A84"/>
<path d="M312.438 270.846C305.698 275.278 297.06 271.942 294.039 267.084L294.521 266.81C300.259 263.236 308.78 265.227 312.438 270.846Z" fill="white"/>
<path d="M396.899 283.42C396.198 283.711 395.443 283.855 394.683 283.841C393.923 283.827 393.175 283.657 392.484 283.34C389.59 281.904 388.232 277.643 387.141 274.22C386.824 273.224 386.524 272.283 386.219 271.515L386.214 271.503C385.683 269.978 385.776 268.305 386.472 266.847C387.168 265.39 388.411 264.265 389.932 263.719L403.609 258.886C404.31 258.595 405.063 258.452 405.822 258.466C406.581 258.479 407.329 258.649 408.02 258.965C410.912 260.4 412.271 264.659 413.363 268.081C413.682 269.079 413.983 270.022 414.289 270.792C414.823 272.318 414.732 273.994 414.036 275.454C413.341 276.915 412.096 278.041 410.573 278.589L396.899 283.42Z" fill="white"/>
<path d="M313.091 297.016C312.847 297.113 312.581 297.141 312.322 297.098C312.064 297.055 311.821 296.943 311.622 296.773C311.388 296.569 311.211 296.308 311.107 296.016C311.004 295.723 310.977 295.409 311.031 295.104C311.08 294.841 311.201 294.597 311.381 294.398C311.561 294.2 311.792 294.056 312.049 293.981L317.254 292.141C317.501 292.039 317.771 292.007 318.036 292.048C318.3 292.09 318.547 292.204 318.751 292.377C318.984 292.581 319.161 292.842 319.265 293.134C319.368 293.426 319.395 293.74 319.341 294.046C319.291 294.308 319.169 294.552 318.99 294.749C318.81 294.947 318.579 295.092 318.323 295.167L313.118 297.007L313.091 297.016Z" fill="white"/>
<path d="M310.326 308.82C309.869 308.905 309.397 308.864 308.962 308.701C308.526 308.538 308.143 308.26 307.854 307.897C307.517 307.462 307.298 306.949 307.217 306.405C307.137 305.861 307.197 305.306 307.394 304.793C307.569 304.353 307.863 303.969 308.243 303.686C308.623 303.402 309.074 303.229 309.547 303.186L328.936 296.683C329.4 296.589 329.882 296.625 330.327 296.787C330.772 296.949 331.164 297.231 331.459 297.601C331.796 298.036 332.015 298.55 332.096 299.093C332.176 299.637 332.115 300.192 331.918 300.705C331.741 301.144 331.447 301.526 331.067 301.809C330.688 302.092 330.237 302.265 329.766 302.31L310.376 308.812L310.326 308.82Z" fill="white"/>
<path d="M412.928 240.326L292.634 282.83L292.837 283.404L413.131 240.9L412.928 240.326Z" fill="white"/>
<path d="M393.801 273.336C395.691 273.336 397.223 271.805 397.223 269.916C397.223 268.027 395.691 266.496 393.801 266.496C391.911 266.496 390.378 268.027 390.378 269.916C390.378 271.805 391.911 273.336 393.801 273.336Z" fill="#FFCE00"/>
<path d="M404.923 274.191C406.34 274.191 407.489 273.042 407.489 271.626C407.489 270.209 406.34 269.061 404.923 269.061C403.505 269.061 402.356 270.209 402.356 271.626C402.356 273.042 403.505 274.191 404.923 274.191Z" fill="#FFCE00"/>
<path d="M4.50617e-06 507.983C-0.000394238 508.116 0.025674 508.249 0.0767003 508.372C0.127727 508.496 0.202712 508.608 0.297336 508.703C0.39196 508.797 0.504354 508.872 0.628061 508.923C0.751769 508.974 0.884344 509 1.01816 509H612.982C613.252 509 613.511 508.893 613.702 508.702C613.893 508.511 614 508.252 614 507.983C614 507.713 613.893 507.454 613.702 507.263C613.511 507.072 613.252 506.965 612.982 506.965H1.01811C0.884297 506.965 0.751735 506.991 0.628035 507.042C0.504336 507.093 0.391941 507.168 0.297323 507.262C0.202705 507.357 0.127725 507.469 0.0767003 507.593C0.0256756 507.716 -0.000389663 507.849 4.50617e-06 507.983Z" fill="#CCCCCC"/>
<path d="M212.735 485.936C212.243 485.958 211.756 485.829 211.34 485.566C210.924 485.303 210.599 484.918 210.409 484.464C210.219 484.01 210.173 483.508 210.278 483.027C210.383 482.546 210.633 482.109 210.995 481.775L211.159 481.121C211.138 481.069 211.116 481.017 211.094 480.964C210.598 479.795 209.768 478.797 208.707 478.097C207.646 477.398 206.401 477.027 205.13 477.032C203.859 477.036 202.618 477.416 201.562 478.124C200.506 478.832 199.683 479.835 199.196 481.009C197.25 485.692 194.773 490.384 194.163 495.336C193.894 497.525 194.007 499.744 194.497 501.895C189.927 491.931 187.554 481.102 187.538 470.141C187.537 467.391 187.69 464.643 187.996 461.909C188.249 459.668 188.6 457.444 189.049 455.235C191.499 443.25 196.758 432.016 204.396 422.457C208.093 420.441 211.082 417.342 212.962 413.576C213.643 412.222 214.124 410.777 214.39 409.285C213.973 409.34 212.818 402.994 213.133 402.604C212.551 401.723 211.511 401.285 210.877 400.425C207.72 396.148 203.371 396.895 201.101 402.707C196.251 405.153 196.204 409.209 199.18 413.111C201.073 415.593 201.334 418.952 202.995 421.61C202.824 421.828 202.646 422.04 202.475 422.259C199.351 426.273 196.628 430.584 194.346 435.129C194.901 430.037 194.238 424.886 192.412 420.1C190.562 415.639 187.094 411.882 184.04 408.026C180.372 403.394 172.849 405.416 172.203 411.287C172.197 411.344 172.191 411.401 172.185 411.458C172.638 411.714 173.082 411.985 173.517 412.272C174.063 412.637 174.486 413.157 174.73 413.766C174.975 414.375 175.03 415.043 174.888 415.684C174.746 416.324 174.413 416.907 173.934 417.355C173.455 417.804 172.852 418.097 172.203 418.197L172.137 418.208C172.298 419.841 172.584 421.461 172.991 423.051C169.073 438.193 177.532 443.708 189.61 443.956C189.876 444.092 190.136 444.229 190.403 444.359C188.109 450.854 186.671 457.619 186.123 464.485C185.813 468.535 185.832 472.604 186.178 476.652L186.158 476.508C185.282 472.008 182.88 467.946 179.356 465.011C174.121 460.714 166.726 459.131 161.079 455.677C160.479 455.292 159.781 455.087 159.068 455.085C158.355 455.083 157.656 455.285 157.054 455.668C156.452 456.05 155.972 456.596 155.67 457.242C155.369 457.888 155.258 458.606 155.352 459.313C155.359 459.363 155.367 459.413 155.375 459.464C156.217 459.806 157.036 460.201 157.829 460.645C158.283 460.901 158.727 461.173 159.161 461.46C159.707 461.824 160.13 462.345 160.374 462.954C160.619 463.562 160.674 464.231 160.532 464.871C160.39 465.512 160.058 466.094 159.579 466.543C159.1 466.991 158.496 467.285 157.848 467.385L157.781 467.395C157.733 467.402 157.692 467.409 157.644 467.416C159.083 470.848 161.101 474.007 163.612 476.754C166.062 489.973 176.584 491.227 187.839 487.377H187.846C189.081 492.74 190.87 497.96 193.185 502.953H212.258C212.326 502.742 212.387 502.523 212.449 502.311C210.684 502.422 208.911 502.317 207.172 501.997C208.587 500.262 210.002 498.513 211.417 496.778C211.448 496.745 211.478 496.711 211.506 496.675C212.223 495.787 212.948 494.906 213.666 494.018L213.666 494.017C213.704 491.294 213.391 488.578 212.735 485.936Z" fill="#F2F2F2"/>
<g clip-path="url(#clip1_4693_3157)">
<path d="M336.078 114.199H333.155L332.598 115.55H331.106L333.913 109.241H335.351L338.165 115.55H336.637L336.08 114.199H336.078ZM335.619 113.091L334.622 110.677L333.624 113.091H335.622H335.619Z" fill="#003A84"/>
<path d="M345.492 109.243V115.552H344.296L341.157 111.722V115.552H339.719V109.243H340.925L344.054 113.073V109.243H345.492ZM342.853 108.662C342.729 108.6 342.593 108.512 342.443 108.407C342.348 108.334 342.268 108.28 342.206 108.244C342.144 108.208 342.082 108.19 342.02 108.19C341.894 108.19 341.794 108.234 341.714 108.321C341.636 108.409 341.593 108.533 341.587 108.696H340.876C340.889 108.293 340.989 107.973 341.178 107.735C341.366 107.498 341.616 107.379 341.928 107.379C342.082 107.379 342.224 107.41 342.345 107.474C342.469 107.536 342.608 107.627 342.763 107.74C342.858 107.813 342.938 107.867 343 107.903C343.062 107.939 343.124 107.957 343.185 107.957C343.304 107.957 343.404 107.913 343.487 107.826C343.567 107.738 343.611 107.619 343.618 107.469H344.33C344.317 107.859 344.216 108.172 344.028 108.407C343.84 108.642 343.59 108.758 343.278 108.758C343.116 108.758 342.974 108.727 342.85 108.662H342.853Z" fill="#003A84"/>
<path d="M349.168 115.235C348.642 114.953 348.233 114.563 347.936 114.067C347.64 113.571 347.49 113.014 347.49 112.396C347.49 111.779 347.64 111.221 347.936 110.726C348.233 110.23 348.642 109.842 349.168 109.558C349.691 109.277 350.282 109.135 350.936 109.135C351.591 109.135 352.179 109.277 352.699 109.558C353.22 109.84 353.632 110.23 353.931 110.726C354.23 111.221 354.38 111.779 354.38 112.396C354.38 113.014 354.23 113.571 353.931 114.067C353.632 114.563 353.22 114.953 352.699 115.235C352.179 115.516 351.591 115.658 350.936 115.658C350.282 115.658 349.694 115.516 349.168 115.235ZM351.944 114.158C352.243 113.987 352.48 113.747 352.65 113.442C352.82 113.135 352.905 112.786 352.905 112.396C352.905 112.007 352.82 111.658 352.65 111.351C352.48 111.043 352.243 110.806 351.944 110.635C351.645 110.465 351.307 110.38 350.936 110.38C350.565 110.38 350.227 110.465 349.928 110.635C349.629 110.806 349.392 111.046 349.222 111.351C349.052 111.658 348.967 112.007 348.967 112.396C348.967 112.786 349.052 113.135 349.222 113.442C349.392 113.75 349.629 113.987 349.928 114.158C350.227 114.328 350.565 114.413 350.936 114.413C351.307 114.413 351.642 114.328 351.944 114.158Z" fill="#003A84"/>
<path d="M357.001 115.456C356.537 115.322 356.164 115.147 355.883 114.93L356.378 113.83C356.648 114.028 356.968 114.186 357.339 114.307C357.71 114.426 358.084 114.488 358.455 114.488C358.87 114.488 359.174 114.426 359.373 114.302C359.571 114.178 359.669 114.016 359.669 113.812C359.669 113.662 359.61 113.538 359.494 113.437C359.378 113.339 359.226 113.259 359.045 113.199C358.862 113.14 358.615 113.073 358.303 113.001C357.824 112.887 357.429 112.773 357.125 112.657C356.821 112.541 356.558 112.36 356.339 112.107C356.12 111.854 356.012 111.518 356.012 111.097C356.012 110.731 356.11 110.4 356.308 110.101C356.507 109.804 356.803 109.569 357.202 109.393C357.602 109.22 358.089 109.132 358.664 109.132C359.066 109.132 359.458 109.181 359.842 109.277C360.226 109.372 360.561 109.512 360.849 109.693L360.401 110.8C359.819 110.47 359.239 110.305 358.656 110.305C358.249 110.305 357.947 110.372 357.751 110.503C357.556 110.635 357.46 110.811 357.46 111.025C357.46 111.239 357.574 111.402 357.798 111.508C358.022 111.614 358.365 111.717 358.829 111.818C359.308 111.932 359.7 112.045 360.007 112.161C360.313 112.275 360.574 112.456 360.793 112.701C361.012 112.946 361.12 113.282 361.12 113.7C361.12 114.062 361.02 114.39 360.819 114.687C360.618 114.984 360.316 115.221 359.914 115.395C359.512 115.568 359.022 115.655 358.447 115.655C357.95 115.655 357.468 115.588 357.004 115.451L357.001 115.456Z" fill="#003A84"/>
<path d="M353.713 85.5938C351.154 85.5938 348.829 86.6138 347.12 88.2691L348.865 92.2408C349.847 90.5804 351.651 89.4596 353.713 89.4596C356.822 89.4596 359.353 91.9929 359.353 95.1099C359.353 98.2268 356.824 100.76 353.713 100.76C351.649 100.76 349.847 99.6394 348.865 97.9789L347.12 101.951C348.829 103.606 351.154 104.626 353.713 104.626C358.951 104.626 363.211 100.357 363.211 95.1099C363.211 89.8625 358.951 85.5938 353.713 85.5938Z" fill="#003A84"/>
<path d="M337.798 85.5267H334.109V82.7971H342.447C344.664 81.3897 346.022 78.8512 346.022 78.8512H330.179V89.4623H337.798C339.888 89.4623 341.71 90.6063 342.687 92.3003L344.468 88.2434C342.741 86.5622 340.388 85.5241 337.795 85.5241L337.798 85.5267Z" fill="#003A84"/>
<path d="M337.798 100.783C334.681 100.783 332.148 98.2448 332.148 95.1227H328.217C328.217 100.414 332.514 104.721 337.798 104.721C340.393 104.721 342.751 103.681 344.478 101.994L342.695 97.9349C341.718 99.6341 339.89 100.786 337.798 100.786V100.783Z" fill="#003A84"/>
<path d="M348.08 94.9937L347.062 92.6721L345.874 89.9709L345.815 89.834L345.792 89.7772L345.776 89.8134L345.658 90.0794L344.562 92.5765L343.449 95.1099L344.562 97.6432L345.658 100.143L345.781 100.422L345.792 100.443L345.815 100.386L345.838 100.337L347.08 97.5038L348.08 95.2261L348.132 95.1099L348.08 94.9937Z" fill="#003A84"/>
<path d="M212.992 93.0154L208.948 102.663L212.992 112.314L217.034 102.663L212.992 93.0154Z" fill="#FFCE00"/>
<path d="M207.118 83.3005C206.958 82.3243 206.654 81.046 206.043 79.6464C205.51 78.4197 204.894 77.4488 204.363 76.7283C200.742 85.3741 197.118 94.02 193.497 102.663C197.118 111.309 200.742 119.955 204.363 128.598C204.894 127.878 205.51 126.907 206.043 125.68C206.652 124.278 206.958 123.002 207.118 122.026L199.005 102.663L207.118 83.3005Z" fill="#003A84"/>
<path d="M211.384 91.3318C211.232 90.446 210.961 89.3278 210.459 88.0986C209.915 86.7738 209.27 85.7383 208.727 84.9868C206.257 90.8798 203.788 96.7729 201.319 102.666C203.788 108.559 206.257 114.452 208.727 120.345C209.27 119.594 209.917 118.558 210.459 117.233C210.964 116.007 211.232 114.886 211.384 114L206.636 102.666L211.384 91.3318Z" fill="#003A84"/>
<path d="M265.814 107.33L265.744 107.345L265.714 107.41C265.136 108.618 264.311 109.54 263.265 110.158C262.216 110.775 260.984 111.087 259.608 111.087C258.131 111.087 256.801 110.739 255.654 110.046C254.507 109.357 253.602 108.363 252.961 107.092C252.319 105.817 251.991 104.319 251.991 102.638C251.991 100.956 252.316 99.4277 252.961 98.1649C253.6 96.9047 254.507 95.9182 255.654 95.2287C256.801 94.5392 258.131 94.188 259.608 94.188C260.987 94.188 262.216 94.4953 263.268 95.0996C264.314 95.7013 265.136 96.6206 265.716 97.8266L265.773 97.9092H265.853C267.528 98.201 270.142 98.201 271.817 97.9092H272.028L271.964 97.7181C271.09 95.0711 269.536 92.9665 267.34 91.4661C265.147 89.9683 262.559 89.2091 259.644 89.2091C257.154 89.2091 254.876 89.785 252.868 90.9212C250.86 92.0575 249.257 93.6663 248.097 95.7013C246.937 97.7362 246.352 100.071 246.352 102.638C246.352 105.204 246.94 107.534 248.1 109.556C249.259 111.58 250.865 113.181 252.87 114.318C254.876 115.454 257.154 116.03 259.646 116.03C262.585 116.03 265.18 115.276 267.361 113.791C268.538 112.988 269.541 111.996 270.34 110.839C271.002 109.881 271.541 108.791 271.938 107.598L272.015 107.366L271.858 107.332C270.087 106.948 267.66 106.948 265.819 107.332L265.814 107.33Z" fill="#003A84"/>
<path d="M236.308 90.3504L236.172 90.0431H230.486L219.091 115.495H222.351C223.87 115.366 225.431 114.999 225.854 114.07L226.318 113.05C226.447 112.768 226.563 112.51 226.669 112.278L226.767 112.061C226.787 112.014 226.808 111.968 226.828 111.924L227.236 111.028C227.236 111.028 227.241 111.02 227.241 111.015L227.28 110.927C227.29 110.906 227.295 110.893 227.295 110.893H239.36L240.12 112.598C240.313 113.024 240.538 113.517 240.788 114.072C241.21 115.002 242.772 115.369 244.29 115.498H247.566L236.311 90.3556L236.308 90.3504ZM229.597 105.561L233.326 96.9923L237.056 105.561H229.597Z" fill="#003A84"/>
<path d="M312.363 90.3504L312.227 90.0431H306.541L295.146 115.495H298.407C299.925 115.366 301.487 114.999 301.909 114.07L302.373 113.05C302.502 112.768 302.618 112.51 302.724 112.278L302.822 112.061C302.842 112.014 302.863 111.968 302.884 111.924L303.291 111.028C303.291 111.028 303.296 111.02 303.296 111.015L303.335 110.927C303.345 110.906 303.35 110.893 303.35 110.893H315.415L316.175 112.6C316.369 113.026 316.593 113.52 316.843 114.072C317.266 115.002 318.827 115.369 320.346 115.498H323.621L312.366 90.3556L312.363 90.3504ZM305.652 105.561L309.381 96.9923L313.111 105.561H305.652Z" fill="#003A84"/>
<path d="M285.023 99.531C281.445 99.1049 280.051 98.3895 280.051 96.9796C280.051 95.301 281.785 94.2577 284.577 94.2577C287.108 94.2577 289.175 95.4998 289.909 96.7239L290.146 97.119C290.216 97.0854 293.476 95.4534 294.049 93.5837C292.27 90.7172 288.969 89.2065 284.432 89.2065C279.481 89.2453 274.486 91.6211 274.486 96.8401C274.486 102.743 279.308 104.13 284.523 104.75C288.005 105.124 289.695 106.132 289.695 107.823C289.695 110.736 285.803 110.963 284.613 110.963C281.515 110.963 279.131 109.638 278.239 107.418L278.025 106.886L277.85 106.976C277.074 107.389 273.989 109.153 274.032 111.012C275.932 114.442 279.381 116.118 284.543 116.118C287.381 116.118 289.966 115.467 291.822 114.284C294.095 112.838 295.294 110.602 295.294 107.82C295.294 101.646 290.358 100.187 285.023 99.5284V99.531Z" fill="#003A84"/>
</g>
</g>
<defs>
<clipPath id="clip0_4693_3157">
<rect width="614" height="509" fill="white"/>
</clipPath>
<clipPath id="clip1_4693_3157">
<rect width="169.715" height="51.8726" fill="white" transform="translate(193.497 76.7283)"/>
</clipPath>
</defs>
</svg>
