<?xml version="1.0" encoding="UTF-8"?>
<svg id="Capa_2" data-name="Capa 2" xmlns="http://www.w3.org/2000/svg" viewBox="0 0 449.7 449.69">
  <defs>
    <style>
      .cls-1 {
        fill: #1a4590;
      }

      .cls-2 {
        fill: #fff;
        fill-rule: evenodd;
      }
    </style>
  </defs>
  <g id="Layer_1" data-name="Layer 1">
    <g>
      <circle class="cls-1" cx="224.85" cy="224.85" r="224.85" transform="translate(-93.13 224.85) rotate(-45)"/>
      <path class="cls-2" d="m227.33,184.88c-11.08-58.35,59.09-93.06,100.44-50.96,0,0,18.46-5.17,34.71-15.51,0,0-5.91,19.94-25.85,32.5,0,0,22.16-2.95,31.76-8.86,0,0-9.6,19.94-27.33,27.33,9.6,133.68-134.42,214.92-251.11,148.45,0,0,57.61,2.95,81.98-25.11,0,0-35.45,2.95-53.18-39.88,0,0,13.29,5.17,26.59-1.48,0,0-41.36-6.65-45.05-56.13,0,0,13.29,10.34,28.07,6.65,0,0-45.79-27.33-19.94-76.81,0,0,48.75,62.04,118.91,59.82h0Z"/>
    </g>
  </g>
</svg>