<svg width="507" height="360" viewBox="0 0 507 360" fill="none" xmlns="http://www.w3.org/2000/svg">
<g clip-path="url(#clip0_4693_2457)">
<path opacity="0.1" d="M168.556 359.798C193.247 359.798 213.263 356.575 213.263 352.6C213.263 348.625 193.247 345.402 168.556 345.402C143.866 345.402 123.85 348.625 123.85 352.6C123.85 356.575 143.866 359.798 168.556 359.798Z" fill="#FFCE00"/>
<path opacity="0.1" d="M411.573 360C442.383 360 467.359 356.777 467.359 352.802C467.359 348.827 442.383 345.604 411.573 345.604C380.763 345.604 355.786 348.827 355.786 352.802C355.786 356.777 380.763 360 411.573 360Z" fill="#FFCE00"/>
<path opacity="0.1" d="M6.34989 155.546H52.9142V219.167H9.75882C9.64412 219.82 9.53401 220.478 9.41472 221.136H52.9142V272.444C52.8362 272.422 52.7674 272.394 52.694 272.366C51.4644 271.879 50.2439 271.364 49.0235 270.812L48.2435 270.458C47.0201 269.878 45.7966 269.265 44.5731 268.618C44.1464 268.393 43.7197 268.158 43.2976 267.919C36.5054 264.105 30.3349 259.272 25.0004 253.588C24.8444 253.436 24.6976 253.275 24.5416 253.128C23.7983 252.318 23.0688 251.5 22.3622 250.663L21.5823 249.743C20.7472 248.717 19.9397 247.664 19.1552 246.597C19.0405 246.44 18.9304 246.284 18.8111 246.137C15.6203 241.702 12.9709 236.9 10.9196 231.833C10.8554 231.682 10.8003 231.516 10.7407 231.373C10.1106 229.748 9.55236 228.108 9.06602 226.452C8.85497 225.758 8.6531 225.072 8.47875 224.35C8.41452 224.139 8.35946 223.932 8.30899 223.725C5.70297 213.528 5.39557 202.936 5.39557 192.418C5.39557 191.19 5.39557 189.957 5.39557 188.739C5.39557 184.484 5.44604 180.202 5.51945 175.925C5.51945 174.817 5.56533 173.713 5.58827 172.6C5.6525 169.776 5.74426 166.952 5.86355 164.128C5.89108 163.342 5.92778 162.56 5.96908 161.778C5.96908 161.327 5.99202 160.876 6.0379 160.426C6.14801 158.788 6.23977 157.165 6.34989 155.546Z" fill="#FFCE00"/>
<path opacity="0.1" d="M52.9142 84.7086H27.3724C31.5244 78.1941 36.0609 71.9341 40.9577 65.9621C44.752 61.2893 48.7574 56.7361 52.9142 52.3484V84.7086Z" fill="#FFCE00"/>
<path opacity="0.1" d="M52.9142 86.6771V153.577H6.49671C6.49671 153.384 6.52882 153.187 6.54259 152.993C6.58388 152.464 6.62517 151.936 6.67105 151.411C6.72152 150.795 6.77658 150.174 6.83622 149.572C6.89587 148.969 6.9601 148.233 7.02892 147.566C7.09774 146.899 7.16198 146.223 7.23997 145.556C7.31797 144.889 7.38679 144.223 7.46938 143.56C7.55196 142.898 7.62537 142.227 7.71255 141.564C7.78137 141.012 7.85477 140.465 7.92818 139.913C8.03371 139.136 8.14382 138.354 8.26311 137.581C8.26311 137.466 8.29523 137.347 8.31358 137.236C9.15099 131.58 10.292 125.973 11.7317 120.44C13.2387 114.636 15.1631 108.948 17.4897 103.423C19.9625 97.6424 22.8578 92.053 26.152 86.7001L52.9142 86.6771Z" fill="#FFCE00"/>
<path opacity="0.1" d="M64.0311 155.541V219.167H163.487V155.541H64.0311ZM64.0311 221.131V275.77C64.6 275.889 65.1643 276.004 65.7241 276.101C66.4857 276.248 67.2427 276.381 68.0181 276.496C68.1649 276.519 68.3163 276.542 68.4769 276.556C68.7797 276.607 69.0917 276.648 69.3945 276.69C70.1608 276.795 70.9224 276.883 71.6886 276.952C72.051 276.988 72.4181 277.021 72.7851 277.048L73.6706 277.117C74.1524 277.154 74.6295 277.182 75.1021 277.195C75.3957 277.195 75.6894 277.223 75.9922 277.232C76.2216 277.232 76.451 277.232 76.6896 277.232C76.9282 277.232 77.2677 277.232 77.5567 277.232C77.9513 277.232 78.3459 277.232 78.7359 277.232H79.2635C79.6581 277.232 80.0526 277.232 80.4426 277.195H80.4701C80.7408 277.195 81.0161 277.195 81.2914 277.159C81.3678 277.163 81.4444 277.163 81.5208 277.159C81.7502 277.159 81.9796 277.159 82.1998 277.126H82.3604L83.8974 277.007C84.4021 276.961 84.9114 276.901 85.4253 276.846L86.4713 276.722C90.7271 276.124 94.9356 275.226 99.0656 274.036C108.343 271.442 117.418 267.813 126.69 265.155C138.679 261.728 151.925 260.045 163.51 264.235V221.131H64.0311ZM163.487 84.7086V0.00459182C152.598 -0.113665 141.739 1.16299 131.173 3.80356C105.989 10.1459 83.3927 23.9022 64.0311 41.4712V84.704H69.0229V86.6679H64.0311V153.577H163.487V86.6724H89.5178V84.7086H163.487ZM291.232 56.0968C285.002 55.876 278.808 53.8983 273.206 50.8445C262.493 45.0034 253.936 35.9844 244.374 28.3726C224.508 12.5191 199.87 2.9527 174.594 0.579495V84.7086H316.572L316.925 84.336L291.232 56.0968ZM304.166 53.7972L317.88 68.8826V49.8418C313.287 50.4121 309.263 51.7689 304.184 53.7788L304.166 53.7972ZM317.88 289.337V221.131H288.658C288.58 220.841 288.502 220.547 288.411 220.252C288.498 220.547 288.571 220.841 288.654 221.131H174.613V270.458C175.696 271.262 176.765 272.109 177.824 272.969C178.967 273.889 180.095 274.859 181.229 275.811L182.371 276.759C182.917 277.218 183.468 277.678 184.023 278.111C185.124 279.006 186.236 279.889 187.358 280.76C187.914 281.22 188.482 281.634 189.047 282.066C198.006 288.933 207.457 295.129 217.323 300.606C219.535 301.832 221.766 303.029 224.017 304.198C225.517 304.966 227.027 305.729 228.541 306.47C230.817 307.583 233.111 308.656 235.423 309.689C256.742 319.282 279.285 325.865 302.409 329.25C307.544 330.01 312.7 330.608 317.875 331.043V289.333H318.334L317.88 289.337ZM174.613 86.6724V153.577H317.898V86.6724H174.613ZM174.613 155.541V219.167H317.898V155.541H174.613ZM329.02 49.759V70.9983L346.523 51.7459C340.724 50.8077 334.889 50.1377 329.02 49.736V49.759ZM329.02 155.564V219.167H468.382V155.541L329.02 155.564ZM467.873 294.387L468.364 221.131H329.02V331.775C337.996 332.153 346.987 332.045 355.952 331.453H356.108C360.39 331.183 364.652 330.79 368.895 330.275H368.991C391.624 327.635 413.755 321.715 434.692 312.702M495.255 166.018C494.731 164.781 494.186 163.553 493.63 162.339C492.593 160.039 491.497 157.804 490.368 155.569H479.494V219.167H506.986C506.972 201.156 502.426 182.76 495.268 165.995L495.255 166.018ZM479.494 221.154V284.163C487.239 276.722 493.782 268.209 498.494 258.477C504.16 246.758 506.752 234.069 506.963 221.145L479.494 221.154ZM479.494 137.025V153.582H489.35C486.368 147.882 483.083 142.348 479.508 137.002L479.494 137.025ZM384.98 62.2414C384.255 61.9654 383.53 61.6848 382.801 61.4135C375.107 58.5653 367.245 56.1968 359.26 54.3215L332.474 83.7887L331.961 84.336L332.305 84.7132H427.636C414.359 75.5517 400.045 68.0007 384.994 62.2184L384.98 62.2414ZM430.43 86.6954H330.974L329.02 88.4891V153.577H346.151H346.179H468.401V122.05C457.344 108.646 444.583 96.7519 430.443 86.6724L430.43 86.6954Z" fill="#FFCE00"/>
<path opacity="0.1" d="M52.9142 120.422V153.577H6.49671C6.49671 153.384 6.52882 153.187 6.54259 152.993C6.58388 152.464 6.62517 151.936 6.67105 151.411C6.72152 150.795 6.77658 150.174 6.83622 149.572C6.89587 148.969 6.9601 148.233 7.02892 147.566C7.09774 146.899 7.16198 146.223 7.23997 145.556C7.31797 144.89 7.38679 144.223 7.46938 143.56C7.55196 142.898 7.62537 142.227 7.71255 141.564C7.78137 141.012 7.85477 140.465 7.92818 139.913C8.03371 139.136 8.14382 138.354 8.26311 137.581C8.26311 137.466 8.29523 137.347 8.31358 137.236C9.15099 131.58 10.292 125.973 11.7317 120.44L52.9142 120.422Z" fill="#FFCE00"/>
<path opacity="0.1" d="M6.34989 155.546H52.9142V219.167H9.75882C9.64412 219.82 9.53401 220.478 9.41472 221.136H52.9142V272.444C52.8362 272.422 52.7674 272.394 52.694 272.366C51.4644 271.879 50.2439 271.364 49.0235 270.812L48.2435 270.458C47.0201 269.878 45.7966 269.265 44.5731 268.618C44.1464 268.393 43.7197 268.158 43.2976 267.919C36.5054 264.105 30.3349 259.272 25.0004 253.588C24.8444 253.436 24.6976 253.275 24.5416 253.128C23.7983 252.318 23.0688 251.5 22.3622 250.663L21.5823 249.743C20.7472 248.717 19.9397 247.664 19.1552 246.597C19.0405 246.44 18.9304 246.284 18.8111 246.137C15.6203 241.702 12.9709 236.9 10.9196 231.833C10.8554 231.682 10.8003 231.516 10.7407 231.373C10.1106 229.748 9.55236 228.108 9.06602 226.452C8.85497 225.758 8.6531 225.072 8.47875 224.35C8.41452 224.139 8.35946 223.932 8.30899 223.725C5.70297 213.528 5.39557 202.936 5.39557 192.418C5.39557 191.19 5.39557 189.957 5.39557 188.739C5.39557 184.484 5.44604 180.202 5.51945 175.925C5.51945 174.817 5.56533 173.713 5.58827 172.6C5.6525 169.776 5.74426 166.952 5.86355 164.128C5.89108 163.342 5.92778 162.56 5.96908 161.778C5.96908 161.327 5.99202 160.876 6.0379 160.426C6.14801 158.788 6.23977 157.165 6.34989 155.546Z" fill="#FFCE00"/>
<path opacity="0.1" d="M99.0426 96.2527V153.577H64.0311V96.2527H69.0229V76.8439H89.5132V96.2527H99.0426Z" fill="#FFCE00"/>
<path opacity="0.1" d="M99.0426 155.541H64.0357V219.162H99.0426V155.541Z" fill="#FFCE00"/>
<path opacity="0.1" d="M64.0311 221.135H99.0426V274.027C94.9127 275.216 90.7042 276.112 86.4484 276.708L85.4023 276.837C84.8885 276.897 84.3792 276.947 83.8745 276.998C83.3698 277.048 82.8468 277.085 82.3375 277.117H82.1769C81.9567 277.117 81.7181 277.145 81.5025 277.149H81.2685C80.9932 277.149 80.7179 277.177 80.4426 277.186C80.0526 277.209 79.6626 277.214 79.2635 277.218C79.0937 277.218 78.9331 277.218 78.7634 277.218C78.3688 277.218 77.9788 277.218 77.5842 277.218H76.7171C76.4831 277.218 76.2583 277.218 76.0151 277.218L75.1296 277.186C74.6708 277.186 74.1753 277.136 73.6981 277.104L72.8172 277.039L71.7207 276.938C70.9499 276.869 70.1837 276.782 69.4267 276.676L68.509 276.547L68.0502 276.483C67.284 276.363 66.527 276.234 65.7562 276.087C65.1919 275.99 64.6321 275.871 64.0632 275.756L64.0311 221.135Z" fill="#FFCE00"/>
<path opacity="0.1" d="M317.898 89.4826H289.03V153.573H317.898V89.4826Z" fill="#FFCE00"/>
<path opacity="0.1" d="M317.903 155.541V219.167H174.613V191.723H250.935V207.913H289.03V155.541H317.903Z" fill="#FFCE00"/>
<path opacity="0.1" d="M318.357 289.351H317.898V331.089C312.729 330.651 307.575 330.054 302.436 329.3C279.302 325.905 256.749 319.308 235.423 309.698C229.266 306.92 223.234 303.888 217.328 300.601C207.462 295.122 198.009 288.925 189.047 282.061C186.796 280.332 184.573 278.563 182.38 276.754C180.862 275.498 179.352 274.211 177.824 272.96C176.765 272.1 175.696 271.253 174.613 270.444V221.136H288.649C288.571 220.841 288.493 220.547 288.411 220.257C288.498 220.547 288.58 220.841 288.658 221.136H317.898V289.324C318.054 289.328 318.206 289.342 318.357 289.351Z" fill="#FFCE00"/>
<path opacity="0.1" d="M393.188 84.7086H374.377V78.8492H382.81V61.3951C383.541 61.6618 384.269 61.9363 384.994 62.2183V78.8492H393.188V84.7086Z" fill="#FFCE00"/>
<path opacity="0.1" d="M438.509 153.577H346.161C346.161 153.577 346.161 153.577 346.193 153.6L346.151 153.577H329.02V89.4872H333.874V136.859H356.057V108.804H374.382V86.6771H393.193V108.822H411.518V136.878H438.509V153.577Z" fill="#FFCE00"/>
<path opacity="0.1" d="M329.02 155.541V219.167H438.509V155.541H329.02ZM468.231 294.061L468.382 243.699H438.509V221.163H329.02V331.775C337.996 332.153 346.987 332.045 355.952 331.453H356.108C360.39 331.183 364.652 330.79 368.895 330.275H368.991C391.624 327.635 413.755 321.715 434.692 312.702" fill="#FFCE00"/>
<path opacity="0.1" d="M481.44 221.135H506.982C506.757 234.055 504.169 246.744 498.507 258.463C493.796 268.199 487.248 276.713 479.513 284.15V243.676H481.44V221.135Z" fill="#FFCE00"/>
<path opacity="0.1" d="M506.995 219.167H481.44V165.995H495.268C502.426 182.76 506.972 201.156 506.995 219.167Z" fill="#FFCE00"/>
<path opacity="0.1" d="M317.903 107.3H302.436V127.394H317.903V107.3Z" fill="#FFCE00"/>
<path opacity="0.1" d="M317.903 148.951H302.436V153.577H317.903V148.951Z" fill="#FFCE00"/>
<path opacity="0.1" d="M317.903 155.541H302.436V169.04H317.903V155.541Z" fill="#FFCE00"/>
<path opacity="0.1" d="M317.903 190.601H302.436V210.695H317.903V190.601Z" fill="#FFCE00"/>
<path opacity="0.1" d="M317.903 232.252H302.436V252.346H317.903V232.252Z" fill="#FFCE00"/>
<path opacity="0.1" d="M317.898 289.324C318.054 289.324 318.206 289.324 318.357 289.351H317.898V294.019H302.436V273.902H317.898V289.324Z" fill="#FFCE00"/>
<path opacity="0.1" d="M317.898 315.544V331.066C312.729 330.628 307.575 330.031 302.436 329.277V315.544H317.898Z" fill="#FFCE00"/>
<path opacity="0.1" d="M240.897 217.691H174.613V219.167H240.897V217.691Z" fill="#FFCE00"/>
<path opacity="0.1" d="M240.897 221.131H174.613V226.788H240.897V221.131Z" fill="#FFCE00"/>
<path opacity="0.1" d="M240.897 245.332H174.613V254.429H240.897V245.332Z" fill="#FFCE00"/>
<path opacity="0.1" d="M240.892 272.973V282.071H189.047C186.796 280.347 184.572 278.578 182.376 276.763C180.857 275.508 179.352 274.22 177.82 272.973H240.892Z" fill="#FFCE00"/>
<path opacity="0.1" d="M240.892 300.61V309.698H235.418C229.267 306.917 223.237 303.883 217.328 300.596L240.892 300.61Z" fill="#FFCE00"/>
<path opacity="0.1" d="M369.005 161.709H355.956V174.789H369.005V161.709Z" fill="#FFCE00"/>
<path opacity="0.1" d="M86.4805 100.764H73.432V113.845H86.4805V100.764Z" fill="#FFCE00"/>
<path opacity="0.1" d="M86.4805 131.147H73.432V144.227H86.4805V131.147Z" fill="#FFCE00"/>
<path opacity="0.1" d="M86.4805 161.529H73.432V174.61H86.4805V161.529Z" fill="#FFCE00"/>
<path opacity="0.1" d="M86.4805 191.907H73.432V204.988H86.4805V191.907Z" fill="#FFCE00"/>
<path opacity="0.1" d="M86.4805 222.29H73.432V235.37H86.4805V222.29Z" fill="#FFCE00"/>
<path opacity="0.1" d="M86.4805 252.672H73.432V265.753H86.4805V252.672Z" fill="#FFCE00"/>
<path opacity="0.1" d="M418.817 161.709H405.769V174.789H418.817V161.709Z" fill="#FFCE00"/>
<path opacity="0.1" d="M369.005 193.972H355.956V207.053H369.005V193.972Z" fill="#FFCE00"/>
<path opacity="0.1" d="M418.817 193.972H405.769V207.053H418.817V193.972Z" fill="#FFCE00"/>
<path opacity="0.1" d="M369.005 226.231H355.956V239.312H369.005V226.231Z" fill="#FFCE00"/>
<path opacity="0.1" d="M418.817 226.231H405.769V239.312H418.817V226.231Z" fill="#FFCE00"/>
<path opacity="0.1" d="M369.005 258.495H355.956V271.575H369.005V258.495Z" fill="#FFCE00"/>
<path opacity="0.1" d="M418.817 258.495H405.769V271.575H418.817V258.495Z" fill="#FFCE00"/>
<path opacity="0.1" d="M369.005 290.759H355.956V303.839H369.005V290.759Z" fill="#FFCE00"/>
<path opacity="0.1" d="M418.817 290.759H405.769V303.839H418.817V290.759Z" fill="#FFCE00"/>
<path opacity="0.1" d="M355.956 331.453V323.018H369V330.252L355.956 331.453Z" fill="#FFCE00"/>
<path opacity="0.1" d="M8.25852 137.227V144.71H52.9142V137.227H8.25852ZM12.709 144.241H9.06602V137.687H12.7365L12.709 144.241ZM17.1548 144.241H13.4843V137.687H17.1548V144.241ZM21.5915 144.241H17.921V137.687H21.5915V144.241ZM26.0373 144.241H22.3714V137.687H26.0419L26.0373 144.241ZM30.4785 144.241H26.8081V137.687H30.4785V144.241ZM34.9244 144.241H31.2539V137.687H34.9244V144.241ZM39.3702 144.241H35.6998V137.687H39.3702V144.241ZM43.8115 144.241H40.141V137.687H43.8115V144.241ZM48.2527 144.241H44.5823V137.687H48.2527V144.241ZM52.694 144.241H49.0235V137.687H52.694V144.241Z" fill="#FFCE00"/>
<path opacity="0.1" d="M8.25852 159V166.483H52.9142V159H8.25852ZM12.709 166.009H9.06602V159.474H12.7365L12.709 166.009ZM17.1548 166.009H13.4843V159.474H17.1548V166.009ZM21.5915 166.009H17.921V159.474H21.5915V166.009ZM26.0373 166.009H22.3714V159.474H26.0419L26.0373 166.009ZM30.4785 166.009H26.8081V159.474H30.4785V166.009ZM34.9244 166.009H31.2539V159.474H34.9244V166.009ZM39.3702 166.009H35.6998V159.474H39.3702V166.009ZM43.8115 166.009H40.141V159.474H43.8115V166.009ZM48.2527 166.009H44.5823V159.474H48.2527V166.009ZM52.694 166.009H49.0235V159.474H52.694V166.009Z" fill="#FFCE00"/>
<path opacity="0.1" d="M8.25852 180.782V188.279H52.9142V180.782H8.25852ZM12.709 187.791H9.06602V181.251H12.7365L12.709 187.791ZM17.1548 187.791H13.4843V181.251H17.1548V187.791ZM21.5915 187.791H17.921V181.251H21.5915V187.791ZM26.0373 187.791H22.3714V181.251H26.0419L26.0373 187.791ZM30.4785 187.791H26.8081V181.251H30.4785V187.791ZM34.9244 187.791H31.2539V181.251H34.9244V187.791ZM39.3702 187.791H35.6998V181.251H39.3702V187.791ZM43.8115 187.791H40.141V181.251H43.8115V187.791ZM48.2527 187.791H44.5823V181.251H48.2527V187.791ZM52.694 187.791H49.0235V181.251H52.694V187.791Z" fill="#FFCE00"/>
<path opacity="0.1" d="M8.25852 202.564V210.038H52.9142V202.564H8.25852ZM12.709 209.573H9.06602V203.028H12.7365L12.709 209.573ZM17.1548 209.573H13.4843V203.028H17.1548V209.573ZM21.5915 209.573H17.921V203.028H21.5915V209.573ZM26.0373 209.573H22.3714V203.028H26.0419L26.0373 209.573ZM30.4785 209.573H26.8081V203.028H30.4785V209.573ZM34.9244 209.573H31.2539V203.028H34.9244V209.573ZM39.3702 209.573H35.6998V203.028H39.3702V209.573ZM43.8115 209.573H40.141V203.028H43.8115V209.573ZM48.2527 209.573H44.5823V203.028H48.2527V209.573ZM52.694 209.573H49.0235V203.028H52.694V209.573Z" fill="#FFCE00"/>
<path opacity="0.1" d="M8.45123 224.341C8.63016 225.045 8.83203 225.749 9.04308 226.443V224.81H12.7135V231.35H10.7498C10.8095 231.502 10.8691 231.668 10.9288 231.81H52.9142V224.341H8.45123ZM17.1686 231.35H13.4981V224.81H17.1686V231.35ZM21.6052 231.35H17.9348V224.81H21.6052V231.35ZM26.0511 231.35H22.3714V224.81H26.0419L26.0511 231.35ZM30.4923 231.35H26.8218V224.81H30.4923V231.35ZM34.9381 231.35H31.2677V224.81H34.9381V231.35ZM39.384 231.35H35.7135V224.81H39.384V231.35ZM43.8252 231.35H40.1548V224.81H43.8252V231.35ZM48.2665 231.35H44.596V224.81H48.2665V231.35ZM52.7077 231.35H49.0373V224.81H52.7077V231.35Z" fill="#FFCE00"/>
<path opacity="0.1" d="M18.8203 246.123C18.935 246.27 19.0451 246.436 19.1644 246.583H21.5915V249.724C21.853 250.037 22.1099 250.35 22.376 250.644V246.565H26.0465V253.128H24.5599C24.7067 253.279 24.849 253.44 25.0187 253.588H52.928V246.123H18.8203ZM30.4785 253.128H26.8081V246.592H30.4785V253.128ZM34.9244 253.128H31.2539V246.592H34.9244V253.128ZM39.3702 253.128H35.6998V246.592H39.3702V253.128ZM43.8115 253.128H40.141V246.592H43.8115V253.128ZM48.2527 253.128H44.5823V246.592H48.2527V253.128ZM52.694 253.128H49.0235V246.592H52.694V253.128Z" fill="#FFCE00"/>
<path opacity="0.1" d="M43.316 267.9C43.7335 268.14 44.1602 268.36 44.5914 268.6V268.37H48.2619V270.439L49.0419 270.803V268.37H52.7123V272.348C52.7827 272.383 52.8565 272.411 52.9326 272.431V267.9H43.316Z" fill="#FFCE00"/>
<path opacity="0.1" d="M288.411 220.252C288.498 220.547 288.571 220.841 288.654 221.131C288.58 220.841 288.502 220.547 288.411 220.252ZM69.0413 84.6948V86.6586H89.5362V84.6948H69.0413ZM288.411 220.252C288.498 220.547 288.571 220.841 288.654 221.131C288.58 220.841 288.502 220.547 288.411 220.252ZM288.411 220.252C288.498 220.547 288.571 220.841 288.654 221.131C288.58 220.841 288.502 220.547 288.411 220.252Z" fill="#FFCE00"/>
<path d="M211.785 174.619C211.785 174.619 209.978 174.366 209.978 171.726C209.978 169.086 208.684 164.156 208.684 164.156C208.684 164.133 207.564 155.569 206.018 154.208C204.472 152.846 202.485 144.853 202.485 144.853C202.485 144.853 202.146 140.516 201.453 139.582C200.76 138.648 199.824 136.363 198.443 133.102C197.062 129.841 191.304 127.583 191.304 127.583C191.304 127.583 180.894 121.53 177.944 119.557C177.676 119.395 177.425 119.205 177.196 118.991C176.682 118.315 174.443 118.301 174.443 118.301C174.209 116.82 173.984 115.119 173.911 113.578C173.911 113.412 173.911 113.247 173.888 113.081C177.177 111.132 179.655 108.059 180.866 104.425C180.921 104.251 180.967 104.067 181.018 103.892C181.215 103.827 181.396 103.721 181.55 103.582C181.704 103.442 181.828 103.272 181.912 103.082C182.178 102.489 182.183 101.795 182.513 101.243C182.899 100.59 183.633 100.24 184.211 99.7481C185.67 98.5063 186.046 96.4136 185.977 94.5095C185.931 92.9688 185.684 91.4143 185.78 89.8827L185.808 89.4964C185.835 89.2664 185.867 89.0365 185.909 88.8157C186.133 87.6751 186.624 86.5989 186.9 85.4675C187.175 84.336 187.202 83.0621 186.56 82.087C185.619 80.6567 183.66 80.3715 181.94 80.2243C179.99 80.0588 178.246 80.2749 176.999 78.6514C176.414 77.8028 175.757 77.0072 175.035 76.2736C174.778 76.0344 172.282 74.5075 172.282 74.4063C169.846 73.2753 167.085 73.063 164.505 73.8084C163.211 74.1855 161.991 74.8018 160.679 75.11C157.848 75.7815 154.59 75.0548 152.186 76.6783C150.847 77.5982 150.044 79.0607 149.291 80.4865C148.679 81.6608 148.059 82.8336 147.428 84.0049C146.414 85.932 145.382 87.8912 144.955 90.0253C144.866 90.4897 144.811 90.9601 144.79 91.4326V91.4557C144.79 91.6258 144.79 91.796 144.79 91.9662V92.1823C144.79 92.3433 144.79 92.4997 144.818 92.6422C144.845 92.7848 144.841 92.8308 144.855 92.9274C144.868 93.024 144.891 93.2401 144.919 93.3873C144.946 93.5345 145.001 93.7921 145.056 93.9944C145.079 94.0818 145.111 94.1646 145.139 94.2474C145.185 94.4037 145.24 94.5555 145.3 94.7073C145.332 94.7855 145.364 94.8683 145.4 94.9465C145.469 95.1074 145.552 95.2638 145.634 95.4064C145.671 95.4708 145.699 95.5306 145.735 95.5904C145.863 95.8042 146.004 96.0101 146.158 96.2066C147.139 97.4346 148.585 98.2165 149.654 99.3663C149.654 99.4123 149.654 99.4583 149.654 99.4997C149.654 99.6285 149.654 99.7526 149.654 99.8814C149.71 102.446 150.391 104.957 151.637 107.198C152.883 109.438 154.656 111.339 156.802 112.736C156.802 112.911 156.825 113.09 156.834 113.265C156.923 114.63 156.907 116.001 156.783 117.363C156.597 117.143 156.363 116.967 156.099 116.849C155.835 116.731 155.549 116.674 155.26 116.682C155.063 116.673 154.866 116.69 154.673 116.733L154.632 116.701V116.742C153.622 116.991 152.379 118.044 151.191 121.038C151.191 121.038 147.575 125.122 144.822 124.952C142.07 124.782 135.1 129.202 135.1 129.202C135.1 129.202 128.301 133.626 126.842 138.133C126.026 140.689 125.049 143.19 123.915 145.621L115.509 162.983L113.958 176.758C113.958 176.758 114.816 182.884 114.647 183.817C114.477 184.751 118.175 193.172 118.175 193.172C118.175 193.172 130.393 214.692 135.385 215.796L135.743 215.543C135.956 215.655 136.183 215.74 136.417 215.796L137.445 215.069C137.506 215.879 137.48 216.693 137.367 217.497C136.679 219.622 137.624 233.489 138.826 236.207C140.028 238.925 139.601 274.565 139.601 274.565L139.431 277.711C139.431 277.711 139.431 277.812 139.473 277.987L139.431 278.732L139.555 278.796C139.684 279.794 139.642 280.806 139.431 281.79C139 283.17 138.826 287.07 138.826 287.07C138.826 287.07 135.389 309.091 137.018 313.516C138.647 317.94 140.032 322.788 140.032 322.788C140.032 322.788 141.753 328.307 140.115 329.25C138.477 330.192 133.82 331.775 134.779 334.074C135.651 336.199 138.959 341.893 139.45 342.725L139.408 343.162L138.734 350.489C138.843 351.456 139.105 352.4 139.509 353.285C140.248 354.881 141.684 356.537 144.414 356.357C144.873 356.325 145.405 356.27 145.919 356.201C150.915 355.53 157.068 353.294 157.068 353.294C156.749 353.091 156.456 352.848 156.196 352.572C155.951 352.334 155.756 352.048 155.624 351.731C155.493 351.415 155.426 351.075 155.43 350.733C155.503 349.399 153.012 343.043 152.393 341.479C152.296 341.254 152.246 341.125 152.246 341.125C152.246 341.125 157.926 335.173 156.981 329.898C156.981 329.898 150.695 326.219 152.764 324.2C154.834 322.181 158.532 316.381 158.532 316.381C158.532 316.381 158.701 294.696 158.532 291.458C158.354 289.21 158.461 286.95 158.848 284.729C158.917 284.393 159 284.067 159.087 283.745C161.948 284.173 164.837 284.393 167.731 284.402C168.786 284.402 169.859 284.402 170.942 284.338C170.942 284.645 170.956 284.976 170.984 285.331C171.222 290.703 171.667 300.123 172.03 303.623C172.544 308.64 175.384 322.162 175.384 322.162C175.384 322.162 169.965 325.648 176.329 334.24C176.329 334.24 176.329 337.353 175.907 337.804C175.456 339.278 175.093 340.776 174.819 342.293C174.553 343.912 174.443 345.549 174.874 346.4C175.907 348.433 182.1 348.267 182.1 348.267L182.252 348.24C183.421 348.119 184.603 348.231 185.728 348.572C186.854 348.912 187.901 349.473 188.808 350.222C191.162 352.117 200.095 351.284 204.931 350.682C206.826 350.443 208.092 350.222 208.092 350.222C208.153 350.007 208.175 349.783 208.156 349.56C208.106 348.369 207.174 345.756 200.861 343.424C200.861 343.424 194.924 339.423 195.007 335.937H194.883H194.195C194.695 335.909 195.016 335.937 195.016 335.937C195.016 335.937 192.69 327.428 193.639 326.738C194.589 326.048 191.745 316.62 191.745 316.62C191.745 316.62 190.116 300.799 190.029 299.69C190.032 298.739 190.176 297.794 190.455 296.885L190.029 288.211C190.029 288.211 189.946 285.327 190.029 284.389C190.015 283.574 189.949 282.762 189.831 281.956C189.79 281.634 189.749 281.298 189.703 280.967C191.928 280.401 193.373 279.877 193.373 279.877L193.116 249.683C195.007 246.003 195.355 237.932 195.346 232.206C195.346 228.526 195.181 225.804 195.181 225.804L197.764 221.577C197.764 221.577 198.361 216.518 197.415 215.409C196.998 214.908 197.186 214.388 197.53 213.961C197.709 213.819 197.897 213.69 198.094 213.574C198.094 213.574 198.067 213.533 198.035 213.473C198.215 213.322 198.407 213.185 198.608 213.064C198.608 213.064 197.691 211.638 198.512 211.036C199.283 211.56 199.971 211.955 200.494 212.277C200.457 212.613 200.421 212.806 200.421 212.806L200.641 212.346C201.146 212.632 201.453 212.806 201.453 212.806C201.453 212.806 205.5 204.725 205.412 203.534C205.325 202.343 208.165 197.325 208.165 197.325C208.165 197.325 208.509 194.69 210.06 193.586C211.611 192.482 211.262 184.484 211.262 184.484C211.262 184.484 211.694 180.317 212.726 178.616C213.758 176.914 211.785 174.619 211.785 174.619ZM134.357 171.073L134.435 173C133.976 172.259 133.646 171.726 133.646 171.726L134.357 171.073Z" fill="url(#paint0_linear_4693_2457)"/>
<path d="M201.673 209.315L200.682 213.547C200.682 213.547 192.745 209.486 191.313 204.325C189.882 199.165 193.708 197.206 193.708 197.206L201.104 200.347L201.673 209.315Z" fill="white"/>
<path opacity="0.1" d="M201.673 209.315L200.682 213.547C200.682 213.547 192.745 209.486 191.313 204.325C189.882 199.165 193.708 197.206 193.708 197.206L201.104 200.347L201.673 209.315Z" fill="black"/>
<path d="M157.128 353.322C157.128 353.322 149.787 356.026 144.74 356.367C142.06 356.546 140.652 354.899 139.927 353.313C139.531 352.431 139.275 351.492 139.17 350.53L139.826 343.24L140.175 339.359L150.897 336.567L152.416 341.221L152.558 341.575C153.168 343.13 155.614 349.454 155.54 350.774C155.537 351.112 155.602 351.447 155.732 351.759C155.861 352.071 156.052 352.354 156.293 352.591C156.539 352.869 156.819 353.115 157.128 353.322Z" fill="white"/>
<path d="M207.271 349.615C207.289 349.836 207.267 350.059 207.206 350.273C207.206 350.273 191.506 352.899 188.294 350.273C187.389 349.505 186.333 348.936 185.196 348.602C184.058 348.268 182.863 348.176 181.688 348.332C181.688 348.332 175.613 348.497 174.599 346.492C174.177 345.65 174.287 344.018 174.549 342.408C174.815 340.9 175.171 339.408 175.613 337.942L175.856 337.749L177.301 336.585L194.222 336.084H194.351C194.268 339.552 200.095 343.53 200.095 343.53C206.284 345.83 207.197 348.428 207.271 349.615Z" fill="white"/>
<path opacity="0.1" d="M207.271 349.615C207.287 349.837 207.263 350.059 207.202 350.273C207.202 350.273 191.506 352.899 188.294 350.273C187.389 349.506 186.335 348.937 185.198 348.603C184.061 348.269 182.867 348.177 181.692 348.332C181.692 348.332 175.613 348.497 174.604 346.492C174.181 345.646 174.287 344.018 174.548 342.408C176.888 342.643 180.582 343.227 182.032 344.62C184.225 346.74 187.941 348.856 190.221 349.022C192.006 349.137 202.683 349.477 207.271 349.615Z" fill="black"/>
<path opacity="0.1" d="M157.128 353.322C157.128 353.322 149.787 356.026 144.74 356.367C142.06 356.546 140.652 354.899 139.932 353.308C141.799 353.938 144.391 354.601 145.754 353.993C147.369 353.276 153.095 352.811 156.306 352.614C156.551 352.882 156.827 353.12 157.128 353.322Z" fill="black"/>
<path d="M168.02 135.387C161.963 133.028 154.173 125.232 156.118 121.59C156.55 120.671 156.807 119.679 156.875 118.665C157 117.288 157.019 115.905 156.93 114.525C156.794 112.267 156.523 110.018 156.118 107.792C156.118 107.792 175.026 108.22 173.925 111.012C173.603 111.83 173.553 113.251 173.64 114.843C173.727 116.434 173.957 118.232 174.195 119.755C174.526 121.843 174.856 123.434 174.856 123.434C174.856 123.434 173.7 125.058 173.021 125.145C172.342 125.232 176.709 138.75 168.02 135.387Z" fill="#CF6F80"/>
<path opacity="0.1" d="M152.544 341.575L152.402 341.732C146.749 334.879 139.913 343.42 139.913 343.42L139.812 343.24L140.161 339.359L150.883 336.567L152.402 341.221L152.544 341.575Z" fill="black"/>
<path opacity="0.1" d="M194.355 336.567C194.355 336.567 190.226 336.48 188.024 338.43C185.821 340.38 175.177 338.853 175.636 338.43C175.772 338.22 175.854 337.98 175.874 337.731L177.32 336.567L194.24 336.066C194.305 336.374 194.355 336.567 194.355 336.567Z" fill="black"/>
<path d="M159.578 282.751C159.27 283.514 159.037 284.304 158.88 285.111C158.498 287.321 158.391 289.571 158.564 291.807C158.733 295.027 158.564 316.602 158.564 316.602C158.564 316.602 154.935 322.355 152.911 324.384C150.888 326.412 157.04 330.054 157.04 330.054C157.958 335.298 152.397 341.221 152.397 341.221C146.745 334.368 139.909 342.914 139.909 342.914C139.909 342.914 136.192 336.475 135.265 334.175C134.339 331.876 138.895 330.284 140.496 329.351C142.097 328.417 140.418 322.912 140.418 322.912C140.418 322.912 139.064 318.087 137.459 313.686C135.853 309.284 139.23 287.374 139.23 287.374C139.23 287.374 139.404 283.483 139.821 282.126C140.032 281.147 140.074 280.139 139.945 279.146C139.918 278.81 139.886 278.529 139.863 278.341C139.84 278.152 139.821 278.065 139.821 278.065L139.886 277.954L142.18 273.668C142.18 273.668 160.679 280.052 159.578 282.751Z" fill="#FFCE00"/>
<path d="M194.355 336.061C194.355 336.061 190.226 335.974 188.024 337.901C185.821 339.828 175.177 338.324 175.636 337.901C176.095 337.478 176.058 334.345 176.058 334.345C169.814 325.8 175.14 322.332 175.14 322.332C175.14 322.332 172.351 308.88 171.846 303.889C171.493 300.403 171.057 291.035 170.823 285.686C170.722 283.386 170.662 281.804 170.662 281.804L175.764 280.774L176.42 280.64L188.726 278.166C188.726 278.166 189.065 280.466 189.295 282.347C189.409 283.15 189.473 283.959 189.487 284.77C189.405 285.69 189.487 288.569 189.487 288.569L189.905 297.202C189.632 298.108 189.491 299.048 189.487 299.994C189.57 301.093 191.171 316.832 191.171 316.832C191.171 316.832 193.956 326.223 193.006 326.899C192.057 327.575 194.355 336.061 194.355 336.061Z" fill="#FFCE00"/>
<path opacity="0.1" d="M173.925 111.012C173.603 111.83 173.553 113.251 173.64 114.843C171.108 116.372 168.196 117.153 165.24 117.098C162.284 117.042 159.404 116.152 156.93 114.53C156.794 112.27 156.523 110.02 156.118 107.792C156.118 107.792 175.026 108.211 173.925 111.012Z" fill="black"/>
<path d="M181.233 100.847C181.237 102.505 180.977 104.152 180.463 105.727C179.313 109.256 176.956 112.265 173.808 114.22C170.66 116.176 166.923 116.953 163.259 116.414C159.594 115.875 156.238 114.055 153.783 111.276C151.328 108.496 149.932 104.936 149.842 101.224C149.842 101.096 149.842 100.976 149.842 100.847C149.806 98.7581 150.186 96.6828 150.959 94.7423C151.732 92.8018 152.882 91.0349 154.344 89.5449C155.805 88.0549 157.547 86.8714 159.47 86.0636C161.392 85.2557 163.455 84.8397 165.54 84.8397C167.624 84.8397 169.688 85.2557 171.61 86.0636C173.532 86.8714 175.275 88.0549 176.736 89.5449C178.197 91.0349 179.348 92.8018 180.121 94.7423C180.894 96.6828 181.274 98.7581 181.238 100.847H181.233Z" fill="#CF6F80"/>
<path opacity="0.1" d="M168.02 135.387C161.963 133.028 154.173 125.232 156.118 121.59C156.55 120.671 156.807 119.678 156.875 118.665L165.166 125.495L170.295 129.712L174.195 119.759C174.526 121.847 174.856 123.439 174.856 123.439C174.856 123.439 173.7 125.062 173.021 125.15C172.342 125.237 176.709 138.749 168.02 135.387Z" fill="black"/>
<path d="M189.46 165.572L182.536 282.163L173.507 282.756L150.126 215.152L153.962 134.891L154.769 117.933L165.166 126.493L170.3 130.71L174.314 120.468L181.779 126.989L189.46 165.572Z" fill="#FFCE00"/>
<path opacity="0.1" d="M159.578 282.751C159.27 283.514 159.037 284.304 158.88 285.111C152.31 284.094 145.929 282.096 139.95 279.182L139.826 279.118L139.867 278.378L139.89 277.991L142.184 273.705C142.184 273.705 160.679 280.052 159.578 282.751Z" fill="black"/>
<path opacity="0.1" d="M175.87 285.129C174.19 285.415 172.496 285.609 170.795 285.709C170.695 283.409 170.635 281.827 170.635 281.827L175.737 280.797L175.87 285.129Z" fill="black"/>
<path opacity="0.1" d="M189.267 282.37C186.005 283.221 180.967 284.177 176.457 283.579L176.393 280.663L188.698 278.189C188.698 278.189 189.038 280.466 189.267 282.37Z" fill="black"/>
<path opacity="0.1" d="M176.375 284.113C157.563 287.332 140.335 278.102 140.335 278.102L140.5 274.974C140.5 274.974 140.927 239.519 139.743 236.8C138.56 234.082 137.637 220.298 138.307 218.183C138.977 216.067 135.862 184.342 135.862 184.342L135.357 171.464L116.886 163.962L125.144 146.706C126.26 144.287 127.219 141.798 128.016 139.255C129.452 134.776 136.119 130.374 136.119 130.374C136.119 130.374 142.955 125.977 145.657 126.143C148.36 126.309 151.902 122.252 151.902 122.252C154.517 115.569 156.884 118.596 156.884 118.596C156.884 118.913 156.884 118.596 156.756 119.585C155.838 126.92 171.594 150.1 171.819 150.51L173.319 187.147L174.838 233.512L176.375 284.113Z" fill="black"/>
<path d="M175.87 284.113C157.059 287.332 139.826 278.102 139.826 278.102L139.996 274.974C139.996 274.974 140.422 239.519 139.234 236.8C138.046 234.082 137.128 220.298 137.803 218.183C138.477 216.067 135.357 184.342 135.357 184.342L134.848 171.464L116.367 163.935L124.626 146.679C125.739 144.258 126.698 141.77 127.498 139.228C128.929 134.748 135.6 130.347 135.6 130.347C135.6 130.347 142.437 125.95 145.134 126.115C147.832 126.281 151.379 122.224 151.379 122.224C153.999 115.542 156.884 118.568 156.884 118.568C156.884 118.885 156.609 119.028 156.756 119.557C158.775 126.672 171.089 150.073 171.314 150.482L172.833 187.12L174.351 233.484L175.87 284.113Z" fill="white"/>
<path opacity="0.1" d="M170.8 151.526C168.777 150.68 158.059 138.414 158.059 138.414V135.622C157.669 134.702 155.352 135.263 153.471 135.907L154.278 118.95L155.196 119.713C157.206 126.824 170.566 151.117 170.8 151.526Z" fill="black"/>
<path d="M171.309 150.51C169.281 149.663 158.564 137.397 158.564 137.397V134.606C158.174 133.686 155.857 134.247 153.976 134.891L154.788 117.933L155.705 118.697C157.719 125.807 171.084 150.105 171.309 150.51Z" fill="white"/>
<path opacity="0.1" d="M140.335 211.684C140.588 211.684 153.416 210.332 153.416 210.332C153.416 210.332 161.183 225.643 160.674 229.368C160.165 233.093 159.243 236.391 156.118 235.807C152.994 235.223 139.303 236.267 139.303 236.267L140.335 211.684Z" fill="black"/>
<path d="M139.826 210.668C140.078 210.668 152.907 209.315 152.907 209.315C152.907 209.315 160.67 224.631 160.165 228.352C159.66 232.072 158.729 235.375 155.609 234.791C152.489 234.207 138.794 235.251 138.794 235.251L139.826 210.668Z" fill="white"/>
<path d="M149.493 203.479C149.493 203.479 161.266 209.821 161.518 211.758C161.771 213.694 155.526 210.911 154.177 210.576C153.29 210.361 152.386 210.22 151.475 210.153L142.478 210.396L149.493 203.479Z" fill="#CF6F80"/>
<path opacity="0.1" d="M167.515 152.317C168.199 152.317 168.754 151.761 168.754 151.075C168.754 150.39 168.199 149.834 167.515 149.834C166.831 149.834 166.276 150.39 166.276 151.075C166.276 151.761 166.831 152.317 167.515 152.317Z" fill="black"/>
<path d="M167.515 151.811C168.199 151.811 168.754 151.255 168.754 150.57C168.754 149.884 168.199 149.328 167.515 149.328C166.831 149.328 166.276 149.884 166.276 150.57C166.276 151.255 166.831 151.811 167.515 151.811Z" fill="#3F3D56"/>
<path opacity="0.1" d="M169.795 206.073C170.479 206.073 171.034 205.517 171.034 204.831C171.034 204.145 170.479 203.589 169.795 203.589C169.111 203.589 168.556 204.145 168.556 204.831C168.556 205.517 169.111 206.073 169.795 206.073Z" fill="black"/>
<path d="M169.795 205.563C170.479 205.563 171.034 205.007 171.034 204.321C171.034 203.635 170.479 203.079 169.795 203.079C169.111 203.079 168.556 203.635 168.556 204.321C168.556 205.007 169.111 205.563 169.795 205.563Z" fill="#3F3D56"/>
<path opacity="0.1" d="M168.749 179.195C169.433 179.195 169.988 178.639 169.988 177.953C169.988 177.268 169.433 176.712 168.749 176.712C168.065 176.712 167.51 177.268 167.51 177.953C167.51 178.639 168.065 179.195 168.749 179.195Z" fill="black"/>
<path d="M168.749 178.689C169.433 178.689 169.988 178.133 169.988 177.447C169.988 176.762 169.433 176.206 168.749 176.206C168.065 176.206 167.51 176.762 167.51 177.447C167.51 178.133 168.065 178.689 168.749 178.689Z" fill="#3F3D56"/>
<path d="M197.305 209.895C197.305 209.895 198.15 211.164 197.305 211.758C196.461 212.351 197.388 213.786 197.388 213.786C197.388 213.786 195.282 215.023 196.209 216.136C197.136 217.249 196.548 222.276 196.548 222.276L194.016 226.48C194.016 226.48 194.167 229.189 194.176 232.85C194.176 238.562 193.841 246.592 191.988 250.253L192.245 280.291C192.245 280.291 183.376 283.538 175.952 282.549L174.851 234.349C174.851 234.349 176.457 207.016 177.049 201.773C177.395 199.051 177.536 196.306 177.471 193.563C177.471 193.563 177.219 185.358 176.37 181.55C176.37 181.55 175.452 165.053 175.361 160.486C175.319 158.301 175.434 151.926 175.562 145.865C175.705 139.237 175.865 132.987 175.865 132.987L174.191 119.704C174.191 119.704 175.865 119.534 176.37 120.21C176.596 120.422 176.842 120.611 177.104 120.776C179.995 122.735 190.208 128.76 190.208 128.76C190.208 128.76 195.86 131.014 197.214 134.242C198.567 137.471 199.508 139.761 200.164 140.681C200.82 141.601 201.178 145.924 201.178 145.924C201.178 145.924 203.123 153.881 204.642 155.229C206.16 156.576 207.271 165.149 207.271 165.149L193.851 175.727C193.851 175.727 192.671 193.324 192.419 194.005C192.167 194.685 197.305 209.895 197.305 209.895Z" fill="white"/>
<path d="M197.815 209.895C197.815 209.895 198.654 211.164 197.815 211.758C196.975 212.351 197.893 213.786 197.893 213.786C197.893 213.786 195.8 215.037 196.718 216.15C197.636 217.263 197.058 222.29 197.058 222.29L194.525 226.494C194.525 226.494 194.676 229.203 194.69 232.864C194.69 238.576 194.355 246.606 192.502 250.267L192.754 280.305C192.754 280.305 183.871 283.552 176.457 282.563L175.361 234.363C175.361 234.363 176.966 207.03 177.558 201.787C177.905 199.065 178.045 196.32 177.976 193.577C177.976 193.577 177.723 185.372 176.879 181.564C176.879 181.564 175.962 165.066 175.865 160.499C175.824 158.315 175.943 151.94 176.067 145.878C176.209 139.251 176.37 133.001 176.37 133.001L174.159 119.539C174.159 119.539 176.37 119.539 176.879 120.224C177.103 120.438 177.349 120.628 177.613 120.79C180.504 122.749 190.721 128.774 190.721 128.774C190.721 128.774 196.369 131.027 197.723 134.256C199.076 137.485 200.017 139.775 200.678 140.695C201.338 141.615 201.687 145.938 201.687 145.938C201.687 145.938 203.632 153.895 205.151 155.242C206.67 156.59 207.766 165.145 207.766 165.145L194.346 175.723C194.346 175.723 193.167 193.319 192.91 194C192.653 194.681 197.815 209.895 197.815 209.895Z" fill="white"/>
<path opacity="0.1" d="M181.743 136.905L182.954 140.447L176.576 146.886C176.719 140.263 176.879 134.008 176.879 134.008L174.668 120.546C174.668 120.546 176.879 120.546 177.389 121.231C177.612 121.445 177.858 121.633 178.123 121.792L183.546 137.476L181.743 136.905Z" fill="black"/>
<path d="M181.233 135.889L182.449 139.43L176.072 145.869C176.214 139.242 176.375 132.991 176.375 132.991L174.159 119.529C174.159 119.529 176.375 119.529 176.879 120.215C177.104 120.428 177.35 120.617 177.613 120.78L183.041 136.459L181.233 135.889Z" fill="white"/>
<path opacity="0.1" d="M181.233 100.847C181.237 102.505 180.977 104.152 180.463 105.727C180.376 105.741 180.287 105.737 180.202 105.715C180.117 105.694 180.037 105.656 179.967 105.603C179.848 101.464 177.815 97.5772 175.315 94.2704C174.613 93.2719 173.762 92.3877 172.791 91.6488C171.81 90.9102 170.59 90.5643 169.369 90.6784C167.992 90.8669 166.776 91.8052 165.386 91.9248C163.551 92.0765 161.908 90.8025 160.087 90.7381C159.346 90.7452 158.616 90.9105 157.944 91.223C157.273 91.5354 156.675 91.9879 156.192 92.5502C155.235 93.685 154.524 95.0069 154.104 96.432C153.383 98.5929 152.99 100.85 152.939 103.128C152.916 104.416 152.792 106.031 151.599 106.5C151.689 105.553 151.581 104.597 151.284 103.694C150.986 102.791 150.504 101.959 149.869 101.252L149.842 101.224C149.842 101.096 149.842 100.976 149.842 100.847C149.806 98.7581 150.186 96.6828 150.959 94.7423C151.732 92.8018 152.882 91.0349 154.344 89.5449C155.805 88.0549 157.547 86.8714 159.47 86.0636C161.392 85.2557 163.455 84.8397 165.54 84.8397C167.624 84.8397 169.688 85.2557 171.61 86.0636C173.532 86.8714 175.275 88.0549 176.736 89.5449C178.197 91.0349 179.348 92.8018 180.121 94.7423C180.894 96.6828 181.274 98.7581 181.238 100.847H181.233Z" fill="black"/>
<path d="M172.039 75.8597C169.655 74.7355 166.943 74.5228 164.413 75.2618C163.143 75.6389 161.945 76.2506 160.656 76.5588C157.903 77.2256 154.691 76.5036 152.328 78.1179C151.016 79.0377 150.227 80.4911 149.493 81.9031L147.658 85.4077C146.658 87.3256 145.648 89.2756 145.231 91.3867C144.813 93.4977 145.066 95.8617 146.401 97.5588C147.373 98.796 148.809 99.5733 149.865 100.737C150.497 101.445 150.976 102.276 151.273 103.178C151.57 104.08 151.678 105.034 151.59 105.98C152.787 105.52 152.902 103.901 152.93 102.613C152.981 100.335 153.374 98.0778 154.095 95.9169C154.514 94.4914 155.225 93.1693 156.182 92.0352C156.666 91.4733 157.264 91.0211 157.935 90.7087C158.607 90.3963 159.337 90.2307 160.078 90.2231C161.913 90.2875 163.56 91.5568 165.377 91.4051C166.753 91.2901 167.974 90.3472 169.359 90.1633C170.581 90.0474 171.802 90.3935 172.782 91.1337C173.752 91.8715 174.602 92.7559 175.301 93.7553C177.806 97.0621 179.839 100.939 179.958 105.088C180.476 105.47 181.224 104.973 181.481 104.384C181.738 103.795 181.747 103.106 182.073 102.544C182.449 101.896 183.169 101.551 183.734 101.063C185.165 99.8263 185.523 97.7428 185.468 95.8525C185.413 93.9622 185.046 92.0444 185.404 90.1863C185.62 89.0457 186.106 87.9786 186.372 86.8518C186.638 85.725 186.67 84.4602 186.042 83.4898C185.124 82.064 183.192 81.7835 181.509 81.6501C179.595 81.4845 177.884 81.6961 176.664 80.0818C176.091 79.2394 175.446 78.4484 174.737 77.7178C174.493 77.4786 172.039 75.9609 172.039 75.8597Z" fill="#512E4E"/>
<path opacity="0.1" d="M122.171 172.848L117.377 163.963L115.858 177.673C115.858 177.673 116.702 183.762 116.532 184.696C116.363 185.629 119.992 194 119.992 194C119.992 194 131.98 215.405 136.876 216.509L153.416 204.661L149.03 199.078C149.03 199.078 147.511 198.484 147.13 199.078C147.13 199.078 138.986 185.032 138.142 184.015C137.298 182.999 137.463 180.97 137.463 180.97C137.463 180.97 136.197 179.618 136.619 178.349C137.041 177.08 134.173 172.678 134.173 172.678L136.789 170.227L122.171 172.848Z" fill="black"/>
<path d="M117.629 162.951L116.363 163.963L114.844 177.673C114.844 177.673 115.688 183.762 115.518 184.696C115.349 185.629 118.982 194 118.982 194C118.982 194 130.966 215.405 135.862 216.509L152.406 204.661L148.016 199.078C148.016 199.078 146.497 198.484 146.116 199.078C146.116 199.078 137.972 185.032 137.128 184.015C136.284 182.999 136.454 180.97 136.454 180.97C136.454 180.97 135.187 179.618 135.61 178.349C136.032 177.08 133.16 172.678 133.16 172.678L135.775 170.227L117.629 162.951Z" fill="white"/>
<path opacity="0.1" d="M196.209 216.66C197.126 217.778 196.548 222.796 196.548 222.796L194.016 227C194.016 227 194.167 229.713 194.176 233.369L189.919 234.703C189.534 234.824 189.126 234.85 188.729 234.78C188.332 234.711 187.957 234.547 187.636 234.302C187.315 234.058 187.057 233.74 186.883 233.376C186.71 233.011 186.626 232.61 186.638 232.206L187.372 208.469L197.305 212.277C196.461 212.866 197.388 214.31 197.388 214.31C197.388 214.31 195.282 215.543 196.209 216.66Z" fill="black"/>
<path d="M196.718 216.15C197.636 217.268 197.058 222.29 197.058 222.29L194.525 226.494C194.525 226.494 194.676 229.203 194.69 232.864L190.354 234.22C189.978 234.338 189.578 234.363 189.19 234.295C188.801 234.226 188.434 234.065 188.12 233.826C187.806 233.587 187.553 233.275 187.383 232.918C187.213 232.561 187.131 232.169 187.143 231.774L187.881 207.963L197.819 211.771C196.97 212.36 197.897 213.8 197.897 213.8C197.897 213.8 195.8 215.037 196.718 216.15Z" fill="white"/>
<path d="M200.008 204.836C200.008 204.836 199.333 209.155 197.645 209.407C195.956 209.66 195.199 216.394 193.516 216.155C191.832 215.915 192.947 209.895 193.006 208.727C193.066 207.559 191.171 202.72 192.589 201.621C194.006 200.522 198.494 201.621 198.494 201.621L200.008 204.836Z" fill="#CF6F80"/>
<path opacity="0.1" d="M203.6 171.579L206.784 165.14C206.784 165.14 208.051 170.047 208.051 172.669C208.051 175.29 209.822 175.548 209.822 175.548C209.822 175.548 211.762 177.848 210.739 179.522C209.716 181.196 209.303 185.363 209.303 185.363C209.303 185.363 209.638 193.315 208.119 194.414C206.601 195.513 206.284 198.139 206.284 198.139C206.284 198.139 203.495 203.13 203.582 204.316C203.669 205.503 199.7 213.538 199.7 213.538C199.7 213.538 201.641 203.553 190.331 199.239C190.331 199.239 190.244 195.849 191.089 194.92C191.933 193.991 193.249 193.568 192.424 188.872C191.598 184.176 192.185 178.565 192.185 177.438C192.185 176.311 194.718 169.284 194.718 169.284L203.6 171.579Z" fill="black"/>
<path d="M204.977 164.22L207.757 165.14C207.757 165.14 209.028 170.047 209.028 172.669C209.028 175.29 210.799 175.548 210.799 175.548C210.799 175.548 212.74 177.848 211.716 179.522C210.693 181.196 210.285 185.363 210.285 185.363C210.285 185.363 210.62 193.315 209.101 194.414C207.583 195.513 207.243 198.139 207.243 198.139C207.243 198.139 204.458 203.129 204.545 204.316C204.632 205.503 200.659 213.538 200.659 213.538C200.659 213.538 202.605 203.553 191.29 199.239C191.29 199.239 191.208 195.849 192.052 194.92C192.896 193.991 194.213 193.568 193.387 188.872C192.561 184.176 193.149 178.565 193.149 177.438C193.149 176.311 195.681 169.284 195.681 169.284L204.977 164.22Z" fill="white"/>
<path opacity="0.1" d="M143.565 331.112C143.565 331.112 147.997 328.321 150.906 330.349C153.815 332.377 143.565 331.112 143.565 331.112Z" fill="black"/>
<path opacity="0.1" d="M178.003 322.479C178.003 322.479 181.926 321.974 185.22 325.529C188.515 329.084 178.003 322.479 178.003 322.479Z" fill="black"/>
<g opacity="0.1">
<path d="M183.743 100.056C183.179 100.544 182.454 100.893 182.078 101.542C181.756 102.098 181.747 102.784 181.49 103.381C181.233 103.979 180.485 104.467 179.967 104.09C179.848 99.9505 177.811 96.0641 175.31 92.7527C174.611 91.7533 173.761 90.8689 172.791 90.1311C171.809 89.391 170.587 89.045 169.364 89.1607C167.988 89.3492 166.776 90.2875 165.386 90.4025C163.551 90.5588 161.904 89.2848 160.082 89.2205C159.342 89.2278 158.612 89.3938 157.941 89.7071C157.27 90.0204 156.674 90.4739 156.192 91.0372C155.234 92.1696 154.523 93.4902 154.104 94.9143C153.383 97.0753 152.99 99.3327 152.939 101.611C152.911 102.894 152.792 104.494 151.608 104.973C151.636 105.313 151.636 105.654 151.608 105.994C152.801 105.534 152.92 103.915 152.948 102.627C152.999 100.349 153.392 98.0916 154.113 95.9307C154.532 94.5053 155.243 93.1831 156.201 92.049C156.684 91.4872 157.28 91.0351 157.951 90.7226C158.622 90.4102 159.352 90.2446 160.092 90.2369C161.927 90.3013 163.578 91.5707 165.395 91.4189C166.772 91.3039 167.992 90.3611 169.373 90.1771C170.596 90.0614 171.818 90.4075 172.8 91.1475C173.77 91.8853 174.62 92.7697 175.319 93.7691C177.82 97.0759 179.857 100.953 179.976 105.102C180.495 105.483 181.242 104.987 181.499 104.398C181.756 103.809 181.766 103.119 182.087 102.558C182.463 101.91 183.188 101.565 183.752 101.077C185.184 99.8401 185.542 97.7566 185.486 95.8663C185.486 95.8066 185.486 95.7468 185.486 95.6916C185.399 97.3289 184.963 98.9984 183.743 100.056Z" fill="black"/>
<path d="M149.874 99.7297C148.819 98.5661 147.378 97.7888 146.41 96.5562C145.595 95.465 145.129 94.1516 145.075 92.7894C144.93 94.4916 145.405 96.1887 146.41 97.568C147.378 98.8052 148.819 99.5825 149.874 100.746C150.887 101.884 151.495 103.327 151.604 104.849C151.674 103.923 151.557 102.992 151.26 102.112C150.962 101.233 150.491 100.422 149.874 99.7297Z" fill="black"/>
<path d="M186.381 85.8446C186.11 86.9714 185.629 88.043 185.408 89.179C185.278 89.9381 185.23 90.7092 185.266 91.4787C185.282 91.0404 185.329 90.6038 185.408 90.1725C185.629 89.0319 186.11 87.9649 186.381 86.838C186.539 86.2165 186.59 85.5727 186.533 84.934C186.504 85.2408 186.453 85.5451 186.381 85.8446Z" fill="black"/>
</g>
<path opacity="0.1" d="M60.8974 349.813C85.588 349.813 105.604 346.59 105.604 342.615C105.604 338.64 85.588 335.417 60.8974 335.417C36.2069 335.417 16.1913 338.64 16.1913 342.615C16.1913 346.59 36.2069 349.813 60.8974 349.813Z" fill="#FFCE00"/>
<path d="M62.3381 204.73H59.4614V269.657H62.3381V204.73Z" fill="#535461"/>
<path d="M80.4151 269.46L80.2362 272.385L79.9792 276.524L79.8737 278.244L79.6214 282.383L79.5112 284.104L79.2543 288.243L76.3546 335.187C76.2286 337.207 75.3395 339.103 73.8684 340.489C72.3972 341.875 70.4545 342.646 68.4356 342.647H53.3592C51.3409 342.646 49.3987 341.874 47.9283 340.488C46.4578 339.102 45.5697 337.207 45.4448 335.187L42.5589 288.211L42.302 284.071L42.1965 282.351L41.9395 278.212L41.834 276.492L41.5771 272.353L41.3936 269.427C41.3617 268.864 41.4449 268.301 41.6381 267.771C41.8313 267.242 42.1304 266.757 42.517 266.348C42.9037 265.938 43.3698 265.612 43.8866 265.389C44.4035 265.167 44.9603 265.053 45.5228 265.054H76.3592C76.9196 265.058 77.4731 265.178 77.9855 265.406C78.4979 265.633 78.9583 265.964 79.3383 266.377C79.7184 266.79 80.01 267.276 80.1952 267.806C80.3804 268.337 80.4552 268.899 80.4151 269.46Z" fill="#3F3D56"/>
<path d="M80.2361 272.385L79.9792 276.51H41.8157L41.5587 272.385H80.2361Z" fill="#9D9CB5"/>
<path d="M79.8737 278.23L79.6213 282.36H42.1781L41.9212 278.23H79.8737Z" fill="#9D9CB5"/>
<path d="M79.5112 284.085L79.2589 288.211H42.5406L42.2836 284.085H79.5112Z" fill="#9D9CB5"/>
<path d="M37.1679 229.065C53.919 241.216 60.9112 260.22 60.9112 260.22C60.9112 260.22 40.7237 259.525 23.9681 247.374C7.21245 235.223 0.233994 216.224 0.233994 216.224C0.233994 216.224 20.4123 216.913 37.1679 229.065Z" fill="#FFCE00"/>
<path d="M0.22023 216.224C0.22023 216.224 21.1785 227.883 27.9001 237.536C34.6216 247.19 60.9112 260.22 60.9112 260.22" stroke="#535461" stroke-width="2" stroke-miterlimit="10"/>
<path d="M47.982 204.587C57.0985 211.197 60.9112 221.54 60.9112 221.54C60.9112 221.54 49.9228 221.163 40.8017 214.554C31.6806 207.945 27.8771 197.597 27.8771 197.597C27.8771 197.597 38.8609 197.974 47.982 204.587Z" fill="#FFCE00"/>
<path d="M27.8771 197.597C27.8771 197.597 39.283 203.944 42.9397 209.196C46.5964 214.448 60.9112 221.54 60.9112 221.54" stroke="#535461" stroke-width="2" stroke-miterlimit="10"/>
<path d="M74.1478 221.016C63.6732 232.555 61.4572 247.636 61.4572 247.636C61.4572 247.636 76.2262 244.003 86.6916 232.459C97.157 220.915 99.3822 205.838 99.3822 205.838C99.3822 205.838 84.6223 209.476 74.1478 221.016Z" fill="#FFCE00"/>
<path d="M99.3913 205.843C99.3913 205.843 85.7464 217.672 82.2778 225.822C78.8093 233.972 61.4572 247.636 61.4572 247.636" stroke="#535461" stroke-width="2" stroke-miterlimit="10"/>
<path d="M458.656 216.955C458.656 216.955 451.081 179.177 453.98 174.476C453.98 174.476 454.086 170.107 453.911 164.537C453.911 164.326 453.911 164.114 453.911 163.898C454.422 164.239 454.953 164.546 455.504 164.818C458.175 166.194 461.242 166.591 464.175 165.94L461.881 163.378C461.33 162.767 460.757 162.104 460.638 161.295C460.518 160.485 460.849 159.763 461.133 159.041C463.312 153.522 463.427 146.582 459.229 142.369C455.682 138.828 454.82 134.256 450.971 131.023C448.158 128.654 446.612 125.182 445.153 121.824C443.919 118.987 442.675 116.126 441.969 113.118C441.418 110.768 441.198 108.335 440.441 106.04C439.684 103.745 438.266 101.514 436.05 100.489C435.261 100.125 434.385 99.9182 433.664 99.4353C432.719 98.796 432.15 97.7566 431.467 96.846C427.993 92.2467 416.363 94.9557 410.857 96.823C409.36 97.2932 407.974 98.063 406.783 99.0858L406.833 99.003C406.875 98.934 406.925 98.865 406.971 98.796C406.368 99.2845 405.848 99.8668 405.429 100.521C404.626 101.795 404.291 103.28 403.622 104.66C402.814 106.293 398.322 110.851 400.254 112.686C400.389 112.809 400.544 112.908 400.713 112.98C401.438 113.283 402.236 113.363 403.007 113.21L402.924 113.408C402.265 115.027 401.926 116.759 401.929 118.508C401.929 126.065 408.145 132.191 415.821 132.191C417.264 132.192 418.699 131.971 420.074 131.533C420.107 131.708 420.134 131.883 420.166 132.058C420.166 132.127 420.189 132.196 420.198 132.265L419.955 132.605C419.943 132.584 419.929 132.564 419.914 132.545L412.711 142.636C411.609 143.413 405.269 148.012 404.911 151.462C404.535 155.238 404.158 159.658 404.158 159.658L404.108 160.605C403.793 160.869 403.425 161.061 403.029 161.168C402.633 161.275 402.218 161.295 401.814 161.226C399.566 160.858 399.566 169.505 399.566 169.505C399.566 169.505 398.07 170.884 397.042 169.689C396.015 168.493 393.298 172.545 393.298 172.545L376.277 173.281L375.887 173.304L374.969 170.457C374.87 170.156 374.657 169.907 374.377 169.763C374.096 169.62 373.769 169.593 373.469 169.689C373.398 169.712 373.329 169.741 373.262 169.776L373.198 169.813L373.079 169.896L373.019 169.951C372.986 169.981 372.956 170.013 372.927 170.047L372.872 170.112L372.845 170.139C372.739 170.286 372.669 170.456 372.64 170.635C372.611 170.814 372.625 170.997 372.68 171.169L373.469 173.612C370.184 174.274 366.825 176.141 369.564 181.283L355.681 178.712L360.173 182.493L383.361 187.29C383.053 187.842 383.255 188.642 384.214 189.769C388.343 194.63 395.868 195.95 398.896 196.29C399.696 198.084 400.694 199.781 401.874 201.35L401.612 206.193C401.612 206.193 393.945 243.106 392.541 244.978C393.25 244.173 393.899 243.317 394.482 242.416C392.257 250 389.146 260.381 388.33 261.935C387.017 264.419 385.802 274.468 387.297 275.112C387.756 275.31 389.068 275.213 390.94 275.071V275.903L390.858 307.449C390.858 307.449 391.234 326.798 390.202 328.642C389.169 330.487 388.894 334.355 388.894 334.355C388.894 334.355 384.765 341.985 381.493 345.053C381.471 345.076 381.447 345.098 381.42 345.117L381.319 344.399C381.319 344.399 377.387 349.376 368.688 349.095C368.688 349.095 363.453 352.508 371.216 352.692C378.979 352.876 388.894 352.416 388.894 352.416C388.894 352.416 395.817 341.838 401.617 343.217V351.234H403.392V343.089C404.216 342.545 404.92 341.84 405.464 341.015C406.007 340.191 406.378 339.264 406.553 338.292C406.705 337.289 406.594 336.265 406.23 335.318C405.867 334.372 405.263 333.538 404.48 332.897C404.128 332.578 403.845 332.189 403.65 331.755C403.455 331.322 403.352 330.852 403.346 330.376L403.282 330.432C403.282 330.271 403.241 330.105 403.222 329.935C402.713 325.796 402.075 317.255 404.328 310.935C407.416 302.27 408.352 290.202 406.104 283.018C405.378 280.722 404.783 278.386 404.319 276.023C404.264 275.724 404.213 275.439 404.168 275.172C405.704 275.38 407.226 275.688 408.724 276.092C413.931 277.531 425.323 277.798 435.05 277.72C435.073 277.987 435.1 278.267 435.132 278.548C435.306 280.498 435.669 282.426 436.215 284.306C437.436 287.985 437.995 304.207 437.995 304.207C437.995 304.207 439.569 317.545 438.711 322.972C438.252 325.989 437.794 329.02 437.532 332.064V332.124C437.532 332.124 434.954 339.483 433.068 343.48C433.022 343.581 432.972 343.682 432.926 343.779C432.423 343.824 431.928 343.934 431.453 344.105C431.453 344.105 428.925 349.164 426.406 350.001C423.887 350.838 424.722 353.593 430.425 352.581C436.128 351.57 444.74 350.742 444.74 350.742L445.112 345.581L446.864 343.383L446.405 348.53L448.273 348.162L448.025 341.902L450.892 338.305C450.892 338.305 454.356 335.215 449.209 329.135V329.268C449.154 329.181 449.103 329.089 449.043 329.001V328.974C448.19 327.649 447.511 325.179 448.754 320.796C451.003 312.876 452.31 305.688 452.31 305.688C452.31 305.688 457.33 286.431 451.296 277.32H451.562C450.944 276.038 450.507 274.675 450.264 273.272C450.233 273.107 450.206 272.937 450.181 272.762C454.646 272.504 459.027 271.695 462.601 269.947C462.587 269.929 460.436 224.231 458.656 216.955ZM401.979 185.082V185.174L401.061 185.22L401.979 185.082ZM398.832 185.519C398.681 185.553 398.54 185.62 398.419 185.717C398.024 186.276 397.777 186.926 397.698 187.607L396.267 187.285C396.267 187.285 395.262 187.069 393.817 186.825L393.133 186.135C395.014 185.979 396.969 185.749 398.832 185.519Z" fill="url(#paint1_linear_4693_2457)"/>
<path d="M446.194 341.966L445.648 348.484L447.479 348.116L447.204 341.047L446.194 341.966Z" fill="#1D2366"/>
<path d="M404.429 311.023C402.222 317.324 402.846 325.828 403.342 329.958C403.525 331.485 403.695 332.414 403.695 332.414C403.695 332.414 400.396 339.947 400.121 340.233C399.846 340.518 390.413 346.29 390.413 346.29L383.819 350.148C383.819 350.148 377.13 347.21 380.337 346.198C380.992 345.934 381.583 345.531 382.067 345.016C385.278 341.957 389.311 334.355 389.311 334.355C389.311 334.355 389.587 330.496 390.596 328.661C391.605 326.826 391.238 307.541 391.238 307.541L391.316 276.105V272.008L403.865 272.1C403.944 273.491 404.125 274.874 404.406 276.239C404.857 278.594 405.44 280.922 406.154 283.211C408.366 290.381 407.448 302.39 404.429 311.023Z" fill="#FFB0B1"/>
<path opacity="0.1" d="M403.695 332.414C403.695 332.414 400.396 339.947 400.121 340.233C399.846 340.518 390.413 346.29 390.413 346.29L383.819 350.148C383.819 350.148 377.13 347.21 380.337 346.198C380.992 345.934 381.583 345.531 382.067 345.016L382.351 347.026L384.549 346.934L403.36 329.967C403.525 331.485 403.695 332.414 403.695 332.414Z" fill="black"/>
<path d="M403.466 330.395L384.549 347.476L382.351 347.568L381.892 344.349C381.892 344.349 378.048 349.307 369.505 349.031C369.505 349.031 364.375 352.43 371.978 352.614C379.58 352.798 389.288 352.338 389.288 352.338C389.288 352.338 396.07 341.759 401.745 343.139V351.128H403.489V343.066C404.299 342.519 404.991 341.813 405.522 340.991C406.054 340.169 406.414 339.248 406.581 338.282C406.732 337.288 406.625 336.272 406.271 335.331C405.916 334.39 405.326 333.557 404.558 332.911C404.214 332.588 403.94 332.198 403.752 331.766C403.565 331.333 403.467 330.867 403.466 330.395Z" fill="#1D2366"/>
<path d="M447.938 320.847C446.717 325.216 447.383 327.677 448.218 328.997V329.024C449.289 330.654 450.033 332.477 450.411 334.392L450.484 334.805L441.877 347.384L437.206 349.224C437.206 349.224 429.696 346.653 431.067 345.917C431.412 345.738 431.948 344.781 432.563 343.461C434.398 339.483 436.931 332.143 436.931 332.143V332.083C437.197 329.052 437.619 326.03 438.087 323.022C438.927 317.609 437.385 304.322 437.385 304.322C437.385 304.322 436.835 288.165 435.642 284.49C435.103 282.622 434.745 280.706 434.573 278.768C434.325 276.469 434.27 274.574 434.27 274.574C434.27 274.574 439.216 267.675 448.282 275.126C449.007 275.72 449.645 276.414 450.177 277.186C456.439 286.118 451.397 305.794 451.397 305.794C451.397 305.794 450.135 312.95 447.938 320.847Z" fill="#FFB0B1"/>
<path opacity="0.1" d="M450.498 334.805L441.891 347.384L437.22 349.224C437.22 349.224 429.709 346.653 431.081 345.917C431.425 345.738 431.962 344.781 432.577 343.461C435.756 343.434 437.404 346.469 437.404 346.469L441.432 345.825C441.432 345.825 446.745 335.357 447.938 334.718C449.131 334.079 448.121 329.939 448.121 329.939V328.886C448.153 328.923 448.181 328.964 448.218 329.001V329.029C449.289 330.659 450.033 332.481 450.411 334.396L450.498 334.805Z" fill="black"/>
<path d="M437.679 346.74C437.679 346.74 435.385 342.518 430.989 344.077C430.989 344.077 428.516 349.137 426.044 349.955C423.571 350.774 424.396 353.533 429.985 352.526C435.573 351.519 443.997 350.687 443.997 350.687L444.364 345.54L450.044 338.287C450.044 338.287 453.43 335.21 448.392 329.153V330.206C448.392 330.206 449.401 334.345 448.208 334.985C447.016 335.624 441.721 346.097 441.721 346.097L437.679 346.74Z" fill="#1D2366"/>
<path opacity="0.1" d="M403.879 272.09C403.958 273.482 404.139 274.865 404.42 276.23C399.254 275.471 394.459 275.848 391.316 276.096V271.998L403.879 272.09Z" fill="black"/>
<path opacity="0.1" d="M450.686 278.332C450.686 278.332 443.345 278.69 434.591 278.764C434.343 276.464 434.288 274.569 434.288 274.569C434.288 274.569 439.234 267.67 448.3 275.121C449.025 275.715 449.663 276.409 450.195 277.182C450.337 277.574 450.501 277.958 450.686 278.332Z" fill="black"/>
<path d="M450.686 277.504C450.686 277.504 418.533 279.063 408.733 276.308C398.933 273.553 389.22 275.94 387.756 275.301C386.292 274.661 387.481 264.649 388.765 262.17C390.05 259.691 397.097 234.62 397.097 234.62L403.879 199.179L411.022 197.206L411.527 197.063L423.974 193.623L433.095 191.098C433.095 191.098 451.232 262.078 449.677 267.312C449.112 269.316 449.021 271.424 449.411 273.47C449.648 274.867 450.077 276.225 450.686 277.504Z" fill="#1D2366"/>
<path d="M380.241 174.941C380.241 174.941 373.818 181.84 378.681 185.685C383.544 189.53 386.742 186.053 386.742 186.053L380.241 174.941Z" fill="#C7DAF5"/>
<path opacity="0.1" d="M380.241 174.941C380.241 174.941 373.818 181.84 378.681 185.685C383.544 189.53 386.742 186.053 386.742 186.053L380.241 174.941Z" fill="black"/>
<path d="M432.136 129.583C432.136 129.583 431.384 130.301 430.251 131.359C428.636 132.872 426.245 135.084 424.126 136.937C421.189 139.499 418.767 141.38 419.634 139.775C420.501 138.17 420.336 135.374 419.905 132.757C419.873 132.582 419.845 132.407 419.813 132.237C419.456 130.315 418.982 128.417 418.395 126.552C418.395 126.552 423.139 120.408 425.764 117.984C426.741 117.064 427.425 116.687 427.466 117.326C427.512 118.186 428.154 120.086 428.952 122.1C428.975 122.165 428.998 122.224 429.026 122.289C429.558 123.669 430.159 125.085 430.687 126.309C431.494 128.185 432.136 129.583 432.136 129.583Z" fill="#FFB0B1"/>
<path opacity="0.1" d="M429.026 122.289C428.58 124.693 427.498 126.932 425.894 128.774C424.289 130.615 422.221 131.991 419.905 132.757C419.54 130.657 419.036 128.585 418.395 126.552C418.395 126.552 427.328 114.985 427.466 117.326C427.498 118.214 428.195 120.182 429.026 122.289Z" fill="black"/>
<path opacity="0.1" d="M419.015 135.847L420.171 134.215C420.171 134.215 420.937 138.897 423.754 136.832C426.571 134.767 426.709 152.372 426.709 152.372L423.685 197.689L401.837 196.378L402.456 174.481L404.929 163.443L411.045 147.396L414.683 142.093L419.015 135.847Z" fill="black"/>
<path d="M426.709 152.653L423.956 193.627L423.667 197.969L411.486 197.238L411.027 197.21L401.851 196.658L402.47 174.757L404.943 163.719L411.059 147.672L414.697 142.369L419.028 136.1L420.185 134.472C420.185 134.472 420.951 139.154 423.768 137.089L423.827 137.048C426.58 135.3 426.709 152.653 426.709 152.653Z" fill="#1D2366"/>
<path d="M405.25 159.883C405.25 159.883 404.154 162.183 401.952 161.81C399.749 161.438 399.754 170.089 399.754 170.089C399.754 170.089 398.29 171.468 397.281 170.273C396.272 169.077 393.61 173.12 393.61 173.12L376.937 173.855C376.937 173.855 384.356 177.254 382.902 187.538C382.902 187.538 408.09 185.974 408.916 183.587C409.742 181.2 405.25 159.883 405.25 159.883Z" fill="white"/>
<path opacity="0.03" d="M405.25 159.883C405.25 159.883 404.154 162.183 401.952 161.81C399.749 161.438 399.754 170.089 399.754 170.089C399.754 170.089 398.29 171.468 397.281 170.273C396.272 169.077 393.61 173.12 393.61 173.12L376.937 173.855C376.937 173.855 384.356 177.254 382.902 187.538C382.902 187.538 408.09 185.974 408.916 183.587C409.742 181.2 405.25 159.883 405.25 159.883Z" fill="black"/>
<path d="M356.796 179.26L361.191 183.022L397.373 190.643L392.886 186.053L356.796 179.26Z" fill="white"/>
<path d="M419.083 137.296C418.482 138.216 416.762 142.926 415.326 147.037C414.128 150.464 413.128 153.476 413.128 153.476C413.128 153.476 410.793 168.718 409.6 171.473C408.407 174.228 409.054 184.972 409.054 184.972L404.608 211.505C404.608 211.505 402.594 225.187 399.483 233.36C396.414 241.404 392.996 245.176 392.89 245.295C394.267 243.428 401.768 206.662 401.768 206.662L404.246 160.292C404.246 160.292 404.608 155.886 404.975 152.119C405.342 148.353 412.775 143.211 412.775 143.211L419.941 132.996C420.662 133.962 420.18 135.645 419.083 137.296Z" fill="white"/>
<path d="M400.396 196.888C400.396 196.888 389.844 196.428 384.733 190.275C379.621 184.121 396.547 187.819 396.547 187.819L400.947 188.831L400.396 196.888Z" fill="#FFB0B1"/>
<path opacity="0.1" d="M449.677 267.316C449.112 269.321 449.021 271.429 449.411 273.475C437.899 274.293 425.585 271.175 425.585 271.175C423.291 273.291 417.248 276.409 417.248 276.409L413.954 235.476C411.848 229.957 411.022 201.041 411.022 201.041C411.022 201.041 411.21 199.528 411.481 197.261C411.481 197.206 411.481 197.146 411.504 197.091C412.325 190.758 413.954 178.869 414.752 177.263C415.853 175.056 411.366 169.183 411.366 169.183L413.408 151.729L413.656 149.622C417.959 147.695 421.258 141.541 421.258 141.541L423.791 137.094C426.544 135.323 426.686 152.676 426.686 152.676L423.933 193.65L433.054 191.126C433.054 191.126 451.232 262.082 449.677 267.316Z" fill="black"/>
<path d="M461.491 270.145C448.943 276.391 426.135 270.605 426.135 270.605C423.841 272.72 417.799 275.839 417.799 275.839L414.5 234.906C412.399 229.387 411.573 200.471 411.573 200.471C411.573 200.471 414.225 178.896 415.326 176.693C415.647 176.049 415.491 175.093 415.11 174.062C413.238 169.159 412.549 163.881 413.101 158.66L413.981 151.158L414.225 149.056C418.533 147.125 421.832 140.971 421.832 140.971L424.126 136.942L428.347 129.519L430.347 126.005L430.687 126.313L433.279 128.668C433.279 128.668 434.38 129.588 436.032 130.968C439.624 134.003 445.832 139.347 449.034 142.617C451.851 145.497 452.741 156.696 452.998 165.126C453.168 170.677 453.067 175.028 453.067 175.028C450.227 179.715 457.655 217.341 457.655 217.341C459.385 224.613 461.491 270.145 461.491 270.145Z" fill="white"/>
<path opacity="0.03" d="M437.404 140.879C437.404 140.879 428.792 157.312 429.792 163.558C430.792 169.803 433.637 176.873 432.265 178.524C431.794 179.149 431.184 179.657 430.485 180.007C429.785 180.357 429.014 180.541 428.232 180.543C426.856 180.635 423.185 183.206 423.185 183.482C423.185 183.758 419.795 183.758 416.762 185.045C413.729 186.333 409.251 187.064 409.251 187.064C409.251 187.064 400.534 186.788 399.722 187.616C398.91 188.444 398.075 193.398 399.814 197.348C401.552 201.299 403.484 204.247 404.943 204.785C406.402 205.323 415.661 202.214 423.171 201.478C430.682 200.742 438.835 194.777 438.835 194.777C438.835 194.777 447.814 191.558 449.388 186.145C450.961 180.731 447.465 150.979 447.465 150.979C447.465 150.979 444.822 137.112 437.404 140.879Z" fill="black"/>
<path opacity="0.03" d="M436.302 139.499C436.302 139.499 427.691 155.937 428.7 162.178C429.709 168.419 432.545 175.493 431.168 177.148C430.699 177.775 430.09 178.283 429.391 178.633C428.692 178.984 427.922 179.167 427.14 179.168C425.764 179.26 422.093 181.83 422.093 182.106C422.093 182.382 418.703 182.382 415.67 183.666C412.637 184.949 408.159 185.685 408.159 185.685C408.159 185.685 399.442 185.409 398.634 186.237C397.827 187.064 396.983 192.022 398.726 195.969C400.47 199.915 402.397 202.867 403.856 203.405C405.315 203.944 414.573 200.834 422.084 200.103C429.595 199.372 437.748 193.398 437.748 193.398C437.748 193.398 446.722 190.178 448.277 184.769C449.833 179.361 446.355 149.599 446.355 149.599C446.355 149.599 443.721 135.737 436.302 139.499Z" fill="black"/>
<path d="M437.133 140.051C437.133 140.051 428.521 156.489 429.53 162.73C430.54 168.971 433.375 176.045 432.003 177.696C431.534 178.323 430.925 178.833 430.225 179.184C429.525 179.536 428.753 179.719 427.971 179.719C426.594 179.811 422.924 182.382 422.924 182.654C422.924 182.925 419.538 182.93 416.5 184.217C413.463 185.505 408.99 186.237 408.99 186.237C408.99 186.237 400.272 185.961 399.46 186.788C398.648 187.616 397.813 192.574 399.552 196.52C401.291 200.467 403.222 203.419 404.681 203.957C406.14 204.495 415.399 201.386 422.91 200.651C430.421 199.915 438.574 193.949 438.574 193.949C438.574 193.949 447.552 190.73 449.126 185.317C450.7 179.903 447.227 150.151 447.227 150.151C447.227 150.151 444.547 136.307 437.133 140.051Z" fill="white"/>
<path opacity="0.1" d="M436.945 184.139C436.945 184.139 430.063 182.76 432.458 185.059C434.853 187.359 434.839 189.373 437.771 189.281C440.702 189.189 436.945 184.139 436.945 184.139Z" fill="black"/>
<path opacity="0.1" d="M448.575 233.618C448.575 233.618 445.465 235.729 451.416 240.595C457.366 245.461 448.575 233.618 448.575 233.618Z" fill="black"/>
<path opacity="0.1" d="M442.639 250.971C442.639 251.247 441.537 261.089 445.658 263.55C449.778 266.01 442.639 250.971 442.639 250.971Z" fill="black"/>
<path d="M377.222 173.832C373.9 173.947 366.724 174.964 370.445 181.922C373.735 188.081 379.264 183.964 382.374 180.842C381.615 177.93 379.771 175.421 377.222 173.832Z" fill="#FFB0B1"/>
<path opacity="0.1" d="M436.032 131.248C432.508 133.663 429.553 135.7 428.975 136.123C427.397 137.296 424.387 144.181 422.446 147.695C420.9 150.524 415.876 151.25 413.981 151.43L414.225 149.328C418.533 147.396 421.832 141.242 421.832 141.242L430.347 126.276L433.279 128.949C433.279 128.949 434.38 129.868 436.032 131.248Z" fill="black"/>
<path d="M436.032 130.972C432.508 133.387 429.553 135.424 428.975 135.852C427.397 137.02 424.387 143.905 422.446 147.419C420.9 150.248 415.876 150.974 413.981 151.154L414.225 149.052C418.533 147.12 421.832 140.966 421.832 140.966L430.347 126L433.279 128.663C433.279 128.663 434.38 129.574 436.032 130.972Z" fill="#DCE7FF"/>
<path d="M429.251 119.253C429.252 122.014 428.417 124.711 426.856 126.985C425.011 129.674 422.266 131.611 419.119 132.444C415.972 133.278 412.631 132.953 409.702 131.529C406.773 130.104 404.451 127.675 403.156 124.681C401.862 121.687 401.681 118.327 402.646 115.21C403.612 112.094 405.659 109.428 408.418 107.695C411.177 105.963 414.464 105.279 417.682 105.769C420.901 106.258 423.838 107.887 425.96 110.361C428.083 112.835 429.25 115.99 429.251 119.253Z" fill="#FFB0B1"/>
<path opacity="0.1" d="M452.998 165.131C451.135 163.982 449.618 162.348 448.608 160.403C447.841 158.885 447.332 157.133 446.025 156.056C444.845 155.091 443.272 154.856 441.804 154.424C436.977 152.993 432.93 148.578 432.779 143.537C432.705 141.164 433.444 138.796 433.109 136.445C432.919 135.115 432.391 133.856 431.577 132.789C431.172 132.278 430.729 131.8 430.251 131.359C429.608 130.751 428.934 130.163 428.347 129.519C427.977 129.12 427.654 128.68 427.383 128.208C427.165 127.822 426.988 127.413 426.856 126.989C425.938 124.175 426.773 120.836 425.764 117.989L425.709 117.832C425.328 116.82 424.552 115.809 423.474 115.73C422.396 115.652 421.474 116.549 420.446 116.949C418.294 117.786 415.973 116.36 414.179 114.907C412.385 113.454 410.361 111.793 408.081 112.115C406.572 112.332 405.379 113.362 403.989 113.895C403.675 114.017 403.351 114.111 403.021 114.176C404.197 111.235 406.359 108.796 409.134 107.279C411.909 105.762 415.125 105.261 418.229 105.862C421.332 106.464 424.13 108.13 426.141 110.574C428.153 113.019 429.252 116.089 429.251 119.258C429.252 120.215 429.152 121.169 428.952 122.105C428.975 122.169 428.998 122.229 429.026 122.293C429.558 123.673 430.159 125.09 430.687 126.313L433.279 128.668C433.279 128.668 434.38 129.588 436.032 130.968C439.624 134.003 445.832 139.347 449.034 142.617C451.851 145.506 452.732 156.7 452.998 165.131Z" fill="black"/>
<path d="M403.828 105.493C404.484 104.154 404.81 102.655 405.594 101.385C406.746 99.5457 408.756 98.3683 410.82 97.6554C416.211 95.7927 427.603 93.0884 431.008 97.6554C431.678 98.5753 432.233 99.5963 433.16 100.231C433.866 100.714 434.72 100.921 435.495 101.284C437.665 102.305 439.051 104.531 439.789 106.803C440.528 109.075 440.748 111.513 441.29 113.854C441.982 116.857 443.198 119.704 444.41 122.533C445.836 125.872 447.35 129.335 450.103 131.694C453.861 134.914 454.691 139.472 458.178 143.004C462.308 147.198 462.175 154.12 460.046 159.616C459.766 160.338 459.449 161.093 459.559 161.861C459.669 162.629 460.238 163.328 460.775 163.939L463.032 166.492C457.692 167.784 451.649 164.988 449.163 160.081C448.397 158.563 447.887 156.815 446.575 155.734C445.401 154.769 443.822 154.539 442.359 154.106C437.532 152.671 433.485 148.252 433.334 143.211C433.26 140.842 433.999 138.474 433.664 136.128C433.478 134.789 432.948 133.521 432.127 132.449C430.866 130.797 428.961 129.689 427.934 127.849C426.195 124.772 427.516 120.776 426.264 117.473C425.878 116.462 425.108 115.45 424.029 115.372C422.951 115.293 422.029 116.19 420.997 116.59C418.849 117.427 416.528 116.006 414.734 114.548C412.94 113.09 410.917 111.435 408.632 111.761C407.122 111.973 405.934 113.003 404.544 113.541C403.516 113.937 401.433 114.291 400.534 113.422C398.634 111.669 403.034 107.13 403.828 105.493Z" fill="#591D4B"/>
<path opacity="0.1" d="M450.438 158.563C449.667 157.045 449.163 155.298 447.851 154.221C446.676 153.255 445.098 153.021 443.63 152.589C438.808 151.158 434.761 146.738 434.605 141.698C434.531 139.329 435.27 136.956 434.94 134.61C434.748 133.28 434.218 132.021 433.403 130.954C432.136 129.303 430.232 128.194 429.209 126.355C427.47 123.282 428.792 119.286 427.535 115.979C427.154 114.971 426.378 113.96 425.305 113.877C424.231 113.794 423.3 114.7 422.272 115.1C420.125 115.937 417.799 114.512 416.009 113.058C414.22 111.605 412.188 109.945 409.907 110.266C408.398 110.483 407.205 111.513 405.819 112.046C404.792 112.442 402.704 112.801 401.805 111.931C399.914 110.092 404.314 105.561 405.104 103.933C405.76 102.59 406.085 101.096 406.875 99.8262C406.916 99.7572 406.962 99.6883 407.008 99.6193C406.417 100.109 405.908 100.69 405.498 101.339C404.714 102.609 404.388 104.099 403.732 105.446C402.938 107.075 398.538 111.619 400.433 113.445C401.351 114.318 403.415 113.96 404.443 113.564C405.819 113.026 407.021 111.996 408.531 111.784C410.825 111.458 412.844 113.118 414.633 114.571C416.422 116.025 418.762 117.45 420.9 116.613C421.928 116.213 422.827 115.312 423.928 115.395C425.03 115.477 425.764 116.485 426.163 117.496C427.415 120.799 426.094 124.795 427.833 127.872C428.861 129.68 430.765 130.811 432.026 132.472C432.847 133.544 433.377 134.812 433.563 136.151C433.898 138.497 433.16 140.865 433.233 143.234C433.384 148.293 437.431 152.694 442.258 154.129C443.712 154.562 445.3 154.792 446.474 155.757C447.791 156.838 448.309 158.586 449.062 160.104C451.549 165.011 457.591 167.807 462.932 166.515L461.867 165.31C457.238 165.379 452.553 162.739 450.438 158.563Z" fill="black"/>
<path opacity="0.1" d="M418.808 137.572C418.207 138.492 416.487 143.202 415.05 147.313C413.706 146.789 412.486 143.445 412.486 143.445L419.652 133.226C420.386 134.238 419.905 135.916 418.808 137.572Z" fill="black"/>
<path d="M419.083 137.296C418.482 138.216 416.762 142.926 415.326 147.037C413.981 146.518 412.761 143.169 412.761 143.169L419.928 132.954C420.662 133.962 420.18 135.645 419.083 137.296Z" fill="#DCE7FF"/>
<path d="M377.415 184.282L373.441 171.721C373.394 171.574 373.377 171.419 373.389 171.266C373.402 171.112 373.445 170.962 373.516 170.825C373.587 170.687 373.684 170.566 373.802 170.466C373.92 170.367 374.056 170.292 374.203 170.245C374.499 170.152 374.819 170.181 375.094 170.324C375.369 170.467 375.576 170.713 375.671 171.009L379.644 183.555L379.25 186.181L377.415 184.282Z" fill="#BE8B87"/>
<path opacity="0.1" d="M373.818 170.618C374.114 170.524 374.435 170.551 374.711 170.694C374.987 170.837 375.196 171.084 375.29 171.381L379.264 183.928L378.965 185.896L379.254 186.2L379.649 183.574L375.653 171.027C375.558 170.731 375.35 170.485 375.075 170.342C374.8 170.199 374.48 170.171 374.185 170.263C373.936 170.344 373.721 170.506 373.574 170.723C373.652 170.681 373.734 170.646 373.818 170.618Z" fill="white"/>
<path d="M377.415 184.282L379.644 183.574L379.319 185.726L379.25 186.2L378.598 185.519L377.415 184.282Z" fill="#EFC8C4"/>
<path d="M378.598 185.519C378.637 185.47 378.685 185.429 378.741 185.399C378.773 185.379 378.81 185.368 378.848 185.368C378.887 185.368 378.924 185.379 378.956 185.399C378.987 185.437 379.014 185.479 379.034 185.524C379.064 185.574 379.106 185.618 379.155 185.65C379.204 185.683 379.26 185.704 379.319 185.712L379.25 186.172L378.598 185.519Z" fill="#727A9C"/>
<path d="M373.418 176.183C373.418 176.183 381.388 176.137 379.511 179.535C377.635 182.934 374.703 183.344 374.703 183.344L373.418 176.183Z" fill="#FFB0B1"/>
<path d="M323.853 23.6493H323.509C309.819 23.6493 297.711 30.9115 290.746 41.6277C283.781 30.9115 271.673 23.6493 257.983 23.6493H257.638C247.364 23.7474 237.543 27.9063 230.31 35.2222C223.077 42.5381 219.017 52.4197 219.011 62.7197C219.011 75.5102 224.6 93.6587 235.496 108.592C256.257 137.048 290.746 161.943 290.746 161.943C290.746 161.943 325.234 137.052 345.991 108.592C356.892 93.6587 362.476 75.5102 362.476 62.7197C362.47 52.4205 358.41 42.5396 351.179 35.2238C343.947 27.9081 334.127 23.7486 323.853 23.6493ZM318.93 110.782C317.371 110.776 315.85 110.297 314.567 109.409C313.284 108.521 312.299 107.265 311.741 105.805H303.556C303.017 105.802 302.492 105.63 302.056 105.313C301.619 104.997 301.292 104.551 301.12 104.039L298.605 96.4459L290.65 124.313C290.495 124.849 290.17 125.321 289.725 125.657C289.28 125.992 288.738 126.174 288.181 126.175H288.021C287.439 126.147 286.885 125.92 286.451 125.531C286.017 125.143 285.729 124.617 285.635 124.041L277.436 74.6087L271.444 103.86C271.307 104.416 270.987 104.909 270.538 105.262C270.088 105.614 269.533 105.806 268.962 105.805H257.432C257.086 105.82 256.741 105.764 256.418 105.642C256.094 105.519 255.798 105.333 255.549 105.093C255.299 104.853 255.1 104.565 254.965 104.246C254.829 103.927 254.759 103.583 254.759 103.237C254.759 102.89 254.829 102.547 254.965 102.228C255.1 101.909 255.299 101.621 255.549 101.381C255.798 101.141 256.094 100.954 256.418 100.831C256.741 100.709 257.086 100.653 257.432 100.668H266.943L275.431 61.34C275.57 60.7585 275.907 60.2436 276.383 59.8833C276.859 59.523 277.445 59.3397 278.041 59.3647C278.637 59.3897 279.206 59.6214 279.651 60.0203C280.095 60.4192 280.387 60.9604 280.478 61.5515L288.851 111.977L295.981 87.0451C296.129 86.52 296.443 86.0571 296.876 85.7255C297.308 85.3939 297.836 85.2115 298.38 85.2054H298.431C298.97 85.2055 299.496 85.3764 299.932 85.6935C300.369 86.0106 300.694 86.4579 300.863 86.9715L305.409 100.682H311.64C312.083 99.3326 312.889 98.1324 313.97 97.2136C315.05 96.2948 316.363 95.6931 317.763 95.4749C319.163 95.2568 320.596 95.4306 321.904 95.9773C323.211 96.5239 324.343 97.4222 325.174 98.5728C326.004 99.7235 326.502 101.082 326.611 102.498C326.72 103.914 326.437 105.333 325.792 106.598C325.148 107.863 324.167 108.925 322.959 109.666C321.75 110.408 320.361 110.8 318.944 110.8L318.93 110.782Z" fill="#FFCE00"/>
</g>
<defs>
<linearGradient id="paint0_linear_4693_2457" x1="163.487" y1="356.38" x2="163.487" y2="73.3715" gradientUnits="userSpaceOnUse">
<stop stop-color="#808080" stop-opacity="0.25"/>
<stop offset="0.54" stop-color="#808080" stop-opacity="0.12"/>
<stop offset="1" stop-color="#808080" stop-opacity="0.1"/>
</linearGradient>
<linearGradient id="paint1_linear_4693_2457" x1="409.912" y1="352.802" x2="409.912" y2="94.3256" gradientUnits="userSpaceOnUse">
<stop stop-color="#808080" stop-opacity="0.25"/>
<stop offset="0.54" stop-color="#808080" stop-opacity="0.12"/>
<stop offset="1" stop-color="#808080" stop-opacity="0.1"/>
</linearGradient>
<clipPath id="clip0_4693_2457">
<rect width="507" height="360" fill="white"/>
</clipPath>
</defs>
</svg>
