<?xml version="1.0" encoding="UTF-8"?>
<svg id="Capa_2" data-name="Capa 2" xmlns="http://www.w3.org/2000/svg" viewBox="0 0 449.7 449.69">
  <defs>
    <style>
      .cls-1 {
        fill: #1a4590;
      }

      .cls-2 {
        fill: #fff;
        fill-rule: evenodd;
      }
    </style>
  </defs>
  <g id="Layer_1" data-name="Layer 1">
    <g>
      <circle class="cls-1" cx="224.85" cy="224.85" r="224.85" transform="translate(-93.13 224.85) rotate(-45)"/>
      <path class="cls-2" d="m174.3,159.86c7.94-5.05,13-1.44,15.88,6.5l7.22,18.77s5.05,10.11-7.94,20.22q-2.17,1.44-1.44,5.05c2.89,8.66,14.44,34.66,51.26,54.88,3.61,2.17,4.33,2.17,7.94-.72,2.89-2.89,6.5-6.5,9.39-9.39,6.5-5.78,10.11-7.94,15.88-3.61,4.33,2.89,8.66,6.5,13,9.39,4.33,3.61,11.55,7.94,4.33,16.61l-6.5,7.94c-9.39,11.55-17.33,12.27-29.6,9.39-46.93-12.27-81.59-45.49-96.75-92.42-5.05-18.05,2.17-33.21,17.33-42.6h0Zm50.54-77.26c78.7,0,142.24,63.54,142.24,142.24s-63.54,142.24-142.24,142.24c-21.66,0-41.88-4.33-59.93-13l-75.81,13,10.11-75.09-.72-1.44c-10.11-19.5-15.88-41.88-15.88-65.71,0-78.7,63.54-142.24,142.24-142.24h0Zm-89.53,252.71l20.22-3.61,12.27-2.17c17.33,9.39,36.1,14.44,57.04,14.44,65.71,0,119.14-53.43,119.14-119.14s-53.43-119.14-119.14-119.14-119.14,53.43-119.14,119.14c0,23.83,7.22,45.49,18.77,64.26l-1.44,10.83-2.89,21.66-2.17,16.61,17.33-2.89Z"/>
    </g>
  </g>
</svg>